<svg xmlns="http://www.w3.org/2000/svg" xmlns:xlink="http://www.w3.org/1999/xlink" width="96" zoomAndPan="magnify" viewBox="0 0 72 72" height="96" preserveAspectRatio="xMidYMid meet" version="1.2"><defs><clipPath id="04dd431dba"><path d="M 4.796875 35.800781 L 17.480469 35.800781 L 17.480469 70.679688 L 4.796875 70.679688 Z M 4.796875 35.800781 "/></clipPath><clipPath id="06f2ffbf1d"><path d="M 8.351562 35.800781 L 13.925781 35.800781 C 14.871094 35.800781 15.773438 36.171875 16.441406 36.835938 C 17.109375 37.496094 17.480469 38.398438 17.480469 39.335938 L 17.480469 67.125 C 17.480469 68.0625 17.109375 68.960938 16.441406 69.621094 C 15.773438 70.285156 14.871094 70.65625 13.925781 70.65625 L 8.351562 70.65625 C 7.410156 70.65625 6.503906 70.285156 5.839844 69.621094 C 5.171875 68.960938 4.796875 68.0625 4.796875 67.125 L 4.796875 39.335938 C 4.796875 38.398438 5.171875 37.496094 5.839844 36.835938 C 6.503906 36.171875 7.410156 35.800781 8.351562 35.800781 Z M 8.351562 35.800781 "/></clipPath><clipPath id="1e91331198"><path d="M 21.8125 9.683594 L 34.5 9.683594 L 34.5 70.679688 L 21.8125 70.679688 Z M 21.8125 9.683594 "/></clipPath><clipPath id="2dd8e831c8"><path d="M 25.367188 9.683594 L 30.945312 9.683594 C 31.886719 9.683594 32.789062 10.058594 33.457031 10.71875 C 34.125 11.382812 34.5 12.28125 34.5 13.21875 L 34.5 67.125 C 34.5 68.0625 34.125 68.960938 33.457031 69.621094 C 32.789062 70.285156 31.886719 70.65625 30.945312 70.65625 L 25.367188 70.65625 C 24.425781 70.65625 23.523438 70.285156 22.855469 69.621094 C 22.1875 68.960938 21.8125 68.0625 21.8125 67.125 L 21.8125 13.21875 C 21.8125 12.28125 22.1875 11.382812 22.855469 10.71875 C 23.523438 10.058594 24.425781 9.683594 25.367188 9.683594 Z M 25.367188 9.683594 "/></clipPath><clipPath id="21e0243c53"><path d="M 38.847656 21.636719 L 51.53125 21.636719 L 51.53125 70.664062 L 38.847656 70.664062 Z M 38.847656 21.636719 "/></clipPath><clipPath id="33c8daed4b"><path d="M 42.402344 21.636719 L 47.976562 21.636719 C 48.917969 21.636719 49.824219 22.007812 50.492188 22.671875 C 51.15625 23.335938 51.53125 24.234375 51.53125 25.171875 L 51.53125 67.125 C 51.53125 68.0625 51.15625 68.960938 50.492188 69.621094 C 49.824219 70.285156 48.917969 70.65625 47.976562 70.65625 L 42.402344 70.65625 C 41.460938 70.65625 40.554688 70.285156 39.886719 69.621094 C 39.222656 68.960938 38.847656 68.0625 38.847656 67.125 L 38.847656 25.171875 C 38.847656 24.234375 39.222656 23.335938 39.886719 22.671875 C 40.554688 22.007812 41.460938 21.636719 42.402344 21.636719 Z M 42.402344 21.636719 "/></clipPath><clipPath id="a355dfa379"><path d="M 55.878906 0.941406 L 68.566406 0.941406 L 68.566406 70.664062 L 55.878906 70.664062 Z M 55.878906 0.941406 "/></clipPath><clipPath id="7d81551c67"><path d="M 59.433594 0.941406 L 65.011719 0.941406 C 65.953125 0.941406 66.855469 1.3125 67.523438 1.976562 C 68.191406 2.640625 68.566406 3.539062 68.566406 4.476562 L 68.566406 67.125 C 68.566406 68.0625 68.191406 68.960938 67.523438 69.621094 C 66.855469 70.285156 65.953125 70.65625 65.011719 70.65625 L 59.433594 70.65625 C 58.492188 70.65625 57.589844 70.285156 56.921875 69.621094 C 56.253906 68.960938 55.878906 68.0625 55.878906 67.125 L 55.878906 4.476562 C 55.878906 3.539062 56.253906 2.640625 56.921875 1.976562 C 57.589844 1.3125 58.492188 0.941406 59.433594 0.941406 Z M 59.433594 0.941406 "/></clipPath><clipPath id="dec0c40a19"><path d="M 7.640625 42.050781 L 14.394531 42.050781 L 14.394531 48.765625 L 7.640625 48.765625 Z M 7.640625 42.050781 "/></clipPath><clipPath id="49c5869676"><path d="M 11.019531 42.050781 C 9.152344 42.050781 7.640625 43.554688 7.640625 45.40625 C 7.640625 47.261719 9.152344 48.765625 11.019531 48.765625 C 12.882812 48.765625 14.394531 47.261719 14.394531 45.40625 C 14.394531 43.554688 12.882812 42.050781 11.019531 42.050781 Z M 11.019531 42.050781 "/></clipPath><clipPath id="99598b0a5b"><path d="M 24.726562 29.40625 L 31.480469 29.40625 L 31.480469 36.121094 L 24.726562 36.121094 Z M 24.726562 29.40625 "/></clipPath><clipPath id="59b1b20192"><path d="M 28.105469 29.40625 C 26.242188 29.40625 24.726562 30.90625 24.726562 32.761719 C 24.726562 34.617188 26.242188 36.121094 28.105469 36.121094 C 29.96875 36.121094 31.480469 34.617188 31.480469 32.761719 C 31.480469 30.90625 29.96875 29.40625 28.105469 29.40625 Z M 28.105469 29.40625 "/></clipPath><clipPath id="524b5d0db0"><path d="M 41.796875 45.527344 L 48.550781 45.527344 L 48.550781 52.242188 L 41.796875 52.242188 Z M 41.796875 45.527344 "/></clipPath><clipPath id="7ac241ffbe"><path d="M 45.175781 45.527344 C 43.308594 45.527344 41.796875 47.03125 41.796875 48.886719 C 41.796875 50.738281 43.308594 52.242188 45.175781 52.242188 C 47.039062 52.242188 48.550781 50.738281 48.550781 48.886719 C 48.550781 47.03125 47.039062 45.527344 45.175781 45.527344 Z M 45.175781 45.527344 "/></clipPath><clipPath id="4d102bf531"><path d="M 58.847656 21.636719 L 65.601562 21.636719 L 65.601562 28.351562 L 58.847656 28.351562 Z M 58.847656 21.636719 "/></clipPath><clipPath id="cdfbebce73"><path d="M 62.222656 21.636719 C 60.359375 21.636719 58.847656 23.140625 58.847656 24.996094 C 58.847656 26.851562 60.359375 28.351562 62.222656 28.351562 C 64.085938 28.351562 65.601562 26.851562 65.601562 24.996094 C 65.601562 23.140625 64.085938 21.636719 62.222656 21.636719 Z M 62.222656 21.636719 "/></clipPath></defs><g id="492ba2d4ce"><g clip-rule="nonzero" clip-path="url(#04dd431dba)"><g clip-rule="nonzero" clip-path="url(#06f2ffbf1d)"><path style=" stroke:none;fill-rule:nonzero;fill:#dc9542;fill-opacity:1;" d="M 4.796875 35.800781 L 17.480469 35.800781 L 17.480469 70.636719 L 4.796875 70.636719 Z M 4.796875 35.800781 "/></g></g><g clip-rule="nonzero" clip-path="url(#1e91331198)"><g clip-rule="nonzero" clip-path="url(#2dd8e831c8)"><path style=" stroke:none;fill-rule:nonzero;fill:#dc9542;fill-opacity:1;" d="M 21.8125 9.683594 L 34.5 9.683594 L 34.5 70.636719 L 21.8125 70.636719 Z M 21.8125 9.683594 "/></g></g><g clip-rule="nonzero" clip-path="url(#21e0243c53)"><g clip-rule="nonzero" clip-path="url(#33c8daed4b)"><path style=" stroke:none;fill-rule:nonzero;fill:#dc9542;fill-opacity:1;" d="M 38.847656 21.636719 L 51.53125 21.636719 L 51.53125 70.664062 L 38.847656 70.664062 Z M 38.847656 21.636719 "/></g></g><g clip-rule="nonzero" clip-path="url(#a355dfa379)"><g clip-rule="nonzero" clip-path="url(#7d81551c67)"><path style=" stroke:none;fill-rule:nonzero;fill:#dc9542;fill-opacity:1;" d="M 55.878906 0.941406 L 68.566406 0.941406 L 68.566406 70.664062 L 55.878906 70.664062 Z M 55.878906 0.941406 "/></g></g><path style="fill:none;stroke-width:59;stroke-linecap:butt;stroke-linejoin:miter;stroke:#4e0f53;stroke-opacity:1;stroke-miterlimit:4;" d="M -0.00619714 29.538281 L 420.185113 29.51173 " transform="matrix(0.0406642,-0.0302478,0.0304164,0.0404388,10.121335,44.246727)"/><path style="fill:none;stroke-width:59;stroke-linecap:butt;stroke-linejoin:miter;stroke:#4e0f53;stroke-opacity:1;stroke-miterlimit:4;" d="M -0.0154959 29.491058 L 464.923038 29.522424 " transform="matrix(-0.0368016,-0.0347972,0.0349911,-0.0365976,44.217505,49.988918)"/><path style="fill:none;stroke-width:59;stroke-linecap:butt;stroke-linejoin:miter;stroke:#4e0f53;stroke-opacity:1;stroke-miterlimit:4;" d="M 0.00672851 29.54225 L 578.064374 29.503123 " transform="matrix(0.0295197,-0.0410906,0.0413197,0.0293561,43.954906,47.980687)"/><g clip-rule="nonzero" clip-path="url(#dec0c40a19)"><g clip-rule="nonzero" clip-path="url(#49c5869676)"><path style=" stroke:none;fill-rule:nonzero;fill:#4e0f53;fill-opacity:1;" d="M 7.640625 42.050781 L 14.394531 42.050781 L 14.394531 48.765625 L 7.640625 48.765625 Z M 7.640625 42.050781 "/></g></g><g clip-rule="nonzero" clip-path="url(#99598b0a5b)"><g clip-rule="nonzero" clip-path="url(#59b1b20192)"><path style=" stroke:none;fill-rule:nonzero;fill:#4e0f53;fill-opacity:1;" d="M 24.726562 29.40625 L 31.480469 29.40625 L 31.480469 36.121094 L 24.726562 36.121094 Z M 24.726562 29.40625 "/></g></g><g clip-rule="nonzero" clip-path="url(#524b5d0db0)"><g clip-rule="nonzero" clip-path="url(#7ac241ffbe)"><path style=" stroke:none;fill-rule:nonzero;fill:#4e0f53;fill-opacity:1;" d="M 41.796875 45.527344 L 48.550781 45.527344 L 48.550781 52.242188 L 41.796875 52.242188 Z M 41.796875 45.527344 "/></g></g><g clip-rule="nonzero" clip-path="url(#4d102bf531)"><g clip-rule="nonzero" clip-path="url(#cdfbebce73)"><path style=" stroke:none;fill-rule:nonzero;fill:#4e0f53;fill-opacity:1;" d="M 58.847656 21.636719 L 65.601562 21.636719 L 65.601562 28.351562 L 58.847656 28.351562 Z M 58.847656 21.636719 "/></g></g></g></svg>