<svg xmlns="http://www.w3.org/2000/svg" xmlns:xlink="http://www.w3.org/1999/xlink" width="1920" zoomAndPan="magnify" viewBox="0 0 1440 599.999999" height="800" preserveAspectRatio="xMidYMid meet" version="1.2"><g id="03afb4aab2"><path style=" stroke:none;fill-rule:nonzero;fill:#4e1053;fill-opacity:1;" d="M 58.597656 499.101562 C 49.621094 499.101562 43.445312 497.335938 40.085938 493.792969 C 36.71875 490.230469 35.039062 484.164062 35.039062 475.570312 L 35.039062 124.6875 C 35.039062 116.101562 36.71875 110.039062 40.085938 106.492188 C 43.445312 102.933594 49.621094 101.15625 58.597656 101.15625 L 121.925781 101.15625 C 130.902344 101.15625 137.070312 102.933594 140.4375 106.492188 C 143.796875 110.039062 145.484375 116.101562 145.484375 124.6875 L 145.484375 401.015625 L 280.582031 401.015625 C 289.167969 401.015625 295.230469 402.703125 298.777344 406.0625 C 302.335938 409.429688 304.117188 415.59375 304.117188 424.550781 L 304.117188 475.570312 C 304.117188 484.164062 302.335938 490.230469 298.777344 493.792969 C 295.230469 497.335938 289.167969 499.101562 280.582031 499.101562 Z M 58.597656 499.101562 "/><path style=" stroke:none;fill-rule:nonzero;fill:#4e1053;fill-opacity:1;" d="M 355.132812 499.101562 C 346.898438 499.101562 341.09375 497.421875 337.734375 494.058594 C 334.367188 490.695312 332.6875 484.90625 332.6875 476.6875 L 332.6875 123.570312 C 332.6875 114.988281 334.367188 109.109375 337.734375 105.9375 C 341.09375 102.75 346.898438 101.15625 355.132812 101.15625 L 420.714844 101.15625 C 429.304688 101.15625 435.179688 102.75 438.355469 105.9375 C 441.542969 109.109375 443.136719 114.988281 443.136719 123.570312 L 443.136719 476.6875 C 443.136719 484.90625 441.542969 490.695312 438.355469 494.058594 C 435.179688 497.421875 429.304688 499.101562 420.714844 499.101562 Z M 355.132812 499.101562 "/><path style=" stroke:none;fill-rule:nonzero;fill:#4e1053;fill-opacity:1;" d="M 602.871094 499.101562 C 593.90625 499.101562 587.746094 497.335938 584.386719 493.792969 C 581.019531 490.230469 579.339844 484.164062 579.339844 475.570312 L 579.339844 198.683594 L 495.824219 198.683594 C 486.847656 198.683594 480.671875 197.003906 477.3125 193.636719 C 473.945312 190.277344 472.265625 184.101562 472.265625 175.125 L 472.265625 124.6875 C 472.265625 116.101562 473.945312 110.039062 477.3125 106.492188 C 480.671875 102.933594 486.847656 101.15625 495.824219 101.15625 L 773.296875 101.15625 C 782.257812 101.15625 788.417969 102.933594 791.785156 106.492188 C 795.144531 110.039062 796.832031 116.101562 796.832031 124.6875 L 796.832031 175.125 C 796.832031 184.101562 795.144531 190.277344 791.785156 193.636719 C 788.417969 197.003906 782.257812 198.683594 773.296875 198.683594 L 689.757812 198.683594 L 689.757812 475.570312 C 689.757812 484.164062 688.070312 490.230469 684.710938 493.792969 C 681.363281 497.335938 675.203125 499.101562 666.222656 499.101562 Z M 602.871094 499.101562 "/><path style=" stroke:none;fill-rule:nonzero;fill:#4e1053;fill-opacity:1;" d="M 848.414062 499.101562 C 840.179688 499.101562 834.375 497.421875 831.015625 494.058594 C 827.648438 490.695312 825.96875 484.90625 825.96875 476.6875 L 825.96875 123.570312 C 825.96875 114.988281 827.648438 109.109375 831.015625 105.9375 C 834.375 102.75 840.179688 101.15625 848.414062 101.15625 L 913.996094 101.15625 C 922.582031 101.15625 928.460938 102.75 931.636719 105.9375 C 934.824219 109.109375 936.417969 114.988281 936.417969 123.570312 L 936.417969 476.6875 C 936.417969 484.90625 934.824219 490.695312 931.636719 494.058594 C 928.460938 497.421875 922.582031 499.101562 913.996094 499.101562 Z M 848.414062 499.101562 "/><path style=" stroke:none;fill-rule:nonzero;fill:#4e1053;fill-opacity:1;" d="M 975.640625 499.101562 C 967.417969 499.101562 962.285156 496.867188 960.234375 492.382812 C 958.175781 487.90625 959.390625 482.304688 963.871094 475.570312 L 1079.339844 296.210938 L 969.476562 123.570312 C 965.367188 117.21875 964.246094 111.898438 966.105469 107.609375 C 967.976562 103.308594 972.835938 101.15625 980.6875 101.15625 L 1047.386719 101.15625 C 1061.582031 101.15625 1071.582031 102.285156 1077.375 104.527344 C 1083.179688 106.757812 1088.695312 112.171875 1093.921875 120.757812 L 1144.363281 207.632812 L 1194.25 120.757812 C 1199.488281 111.425781 1204.820312 105.828125 1210.238281 103.972656 C 1215.660156 102.097656 1224.714844 101.15625 1237.414062 101.15625 L 1309.183594 101.15625 C 1317.027344 101.15625 1321.882812 103.308594 1323.742188 107.609375 C 1325.613281 111.898438 1324.5 117.21875 1320.394531 123.570312 L 1209.390625 296.210938 L 1326 475.570312 C 1330.476562 481.539062 1331.777344 486.957031 1329.902344 491.824219 C 1328.042969 496.679688 1322.816406 499.101562 1314.230469 499.101562 L 1242.460938 499.101562 C 1232.75 499.101562 1225.195312 498.730469 1219.777344 497.988281 C 1214.355469 497.242188 1209.960938 495.378906 1206.601562 492.382812 C 1203.234375 489.394531 1199.679688 484.722656 1195.949219 478.359375 L 1142.691406 385.878906 L 1090.550781 478.359375 C 1087.183594 483.976562 1083.914062 488.28125 1080.746094 491.269531 C 1077.574219 494.242188 1073.285156 496.300781 1067.863281 497.429688 C 1062.445312 498.546875 1054.691406 499.101562 1044.597656 499.101562 Z M 975.640625 499.101562 "/><path style=" stroke:none;fill-rule:nonzero;fill:#4e1053;fill-opacity:1;" d="M 1355.027344 153.730469 C 1354.125 153.730469 1353.496094 153.558594 1353.144531 153.199219 C 1352.785156 152.847656 1352.613281 152.230469 1352.613281 151.339844 L 1352.613281 111.84375 L 1340.3125 111.84375 C 1339.421875 111.84375 1338.804688 111.671875 1338.453125 111.3125 C 1338.09375 110.960938 1337.921875 110.332031 1337.921875 109.429688 L 1337.921875 105.976562 C 1337.921875 105.070312 1338.09375 104.449219 1338.453125 104.089844 C 1338.804688 103.738281 1339.421875 103.558594 1340.3125 103.558594 L 1373.730469 103.558594 C 1374.683594 103.558594 1375.324219 103.738281 1375.640625 104.089844 C 1375.972656 104.449219 1376.144531 105.070312 1376.144531 105.976562 L 1376.144531 109.429688 C 1376.144531 110.332031 1375.972656 110.960938 1375.640625 111.3125 C 1375.324219 111.671875 1374.683594 111.84375 1373.730469 111.84375 L 1361.457031 111.84375 L 1361.457031 151.339844 C 1361.457031 152.230469 1361.285156 152.847656 1360.953125 153.199219 C 1360.613281 153.558594 1359.976562 153.730469 1359.039062 153.730469 Z M 1355.027344 153.730469 "/><path style=" stroke:none;fill-rule:nonzero;fill:#4e1053;fill-opacity:1;" d="M 1384.410156 153.730469 C 1383.519531 153.730469 1382.902344 153.558594 1382.550781 153.199219 C 1382.191406 152.847656 1382.019531 152.230469 1382.019531 151.339844 L 1382.019531 105.976562 C 1382.019531 105.070312 1382.191406 104.449219 1382.550781 104.089844 C 1382.902344 103.738281 1383.519531 103.558594 1384.410156 103.558594 L 1387.519531 103.558594 C 1388.558594 103.558594 1389.296875 103.683594 1389.722656 103.929688 C 1390.148438 104.164062 1390.546875 104.660156 1390.917969 105.417969 L 1405.6875 131.683594 L 1420.324219 105.46875 C 1420.726562 104.671875 1421.132812 104.164062 1421.542969 103.929688 C 1421.949219 103.683594 1422.621094 103.558594 1423.5625 103.558594 L 1427.015625 103.558594 C 1427.953125 103.558594 1428.597656 103.738281 1428.957031 104.089844 C 1429.308594 104.449219 1429.488281 105.070312 1429.488281 105.976562 L 1429.488281 151.339844 C 1429.488281 152.230469 1429.308594 152.847656 1428.957031 153.199219 C 1428.597656 153.558594 1427.953125 153.730469 1427.015625 153.730469 L 1423.429688 153.730469 C 1422.527344 153.730469 1421.894531 153.558594 1421.542969 153.199219 C 1421.1875 152.847656 1421.011719 152.230469 1421.011719 151.339844 L 1421.011719 129.773438 C 1421.011719 125.828125 1421.578125 121.140625 1422.714844 115.722656 L 1422.289062 115.722656 C 1421.386719 118.367188 1420.460938 120.664062 1419.527344 122.628906 C 1418.582031 124.582031 1417.546875 126.558594 1416.417969 128.578125 L 1409.511719 140.875 C 1409.171875 141.480469 1408.808594 141.910156 1408.421875 142.175781 C 1408.050781 142.441406 1407.492188 142.574219 1406.75 142.574219 L 1404.492188 142.574219 C 1403.78125 142.574219 1403.25 142.46875 1402.898438 142.257812 C 1402.539062 142.042969 1402.152344 141.585938 1401.730469 140.875 L 1394.664062 128.578125 C 1393.867188 127.214844 1393.164062 125.914062 1392.566406 124.671875 C 1391.980469 123.417969 1391.429688 122.070312 1390.917969 120.636719 C 1390.398438 119.203125 1389.835938 117.542969 1389.21875 115.644531 L 1388.738281 115.644531 C 1389.285156 118.425781 1389.675781 120.941406 1389.910156 123.1875 C 1390.152344 125.417969 1390.28125 127.640625 1390.28125 129.851562 L 1390.28125 151.339844 C 1390.28125 152.230469 1390.101562 152.847656 1389.75 153.199219 C 1389.390625 153.558594 1388.773438 153.730469 1387.890625 153.730469 Z M 1384.410156 153.730469 "/></g></svg>