<svg xmlns="http://www.w3.org/2000/svg" xmlns:xlink="http://www.w3.org/1999/xlink" width="1700" zoomAndPan="magnify" viewBox="0 0 1275 1439.999935" height="1920" preserveAspectRatio="xMidYMid meet" version="1.2"><defs><clipPath id="891373b029"><path d="M 193.359375 485.617188 L 355.359375 485.617188 L 355.359375 932.796875 L 193.359375 932.796875 Z M 193.359375 485.617188 "/></clipPath><clipPath id="f1a961b010"><path d="M 235.882812 485.617188 L 312.558594 485.617188 C 323.835938 485.617188 334.652344 490.09375 342.628906 498.070312 C 350.601562 506.046875 355.082031 516.863281 355.082031 528.136719 L 355.082031 890.007812 C 355.082031 901.285156 350.601562 912.097656 342.628906 920.074219 C 334.652344 928.050781 323.835938 932.527344 312.558594 932.527344 L 235.882812 932.527344 C 224.605469 932.527344 213.789062 928.050781 205.8125 920.074219 C 197.835938 912.097656 193.359375 901.285156 193.359375 890.007812 L 193.359375 528.136719 C 193.359375 516.863281 197.835938 506.046875 205.8125 498.070312 C 213.789062 490.09375 224.605469 485.617188 235.882812 485.617188 Z M 235.882812 485.617188 "/></clipPath><clipPath id="87371f7e2c"><path d="M 410.316406 150.804688 L 572.316406 150.804688 L 572.316406 932.941406 L 410.316406 932.941406 Z M 410.316406 150.804688 "/></clipPath><clipPath id="fde34e7046"><path d="M 452.839844 150.804688 L 529.515625 150.804688 C 540.796875 150.804688 551.609375 155.28125 559.585938 163.257812 C 567.558594 171.234375 572.039062 182.050781 572.039062 193.324219 L 572.039062 890.003906 C 572.039062 901.277344 567.558594 912.09375 559.585938 920.070312 C 551.609375 928.046875 540.796875 932.523438 529.515625 932.523438 L 452.839844 932.523438 C 441.5625 932.523438 430.746094 928.046875 422.773438 920.070312 C 414.796875 912.09375 410.316406 901.277344 410.316406 890.003906 L 410.316406 193.324219 C 410.316406 182.050781 414.796875 171.234375 422.773438 163.257812 C 430.746094 155.28125 441.5625 150.804688 452.839844 150.804688 Z M 452.839844 150.804688 "/></clipPath><clipPath id="b6cd4f09f4"><path d="M 627.496094 304.039062 L 789.496094 304.039062 L 789.496094 932.617188 L 627.496094 932.617188 Z M 627.496094 304.039062 "/></clipPath><clipPath id="5468e8e544"><path d="M 670.015625 304.039062 L 746.691406 304.039062 C 757.972656 304.039062 768.789062 308.519531 776.765625 316.496094 C 784.734375 324.464844 789.21875 335.285156 789.21875 346.5625 L 789.21875 890.007812 C 789.21875 901.285156 784.734375 912.097656 776.765625 920.074219 C 768.789062 928.050781 757.972656 932.527344 746.691406 932.527344 L 670.015625 932.527344 C 658.742188 932.527344 647.925781 928.050781 639.949219 920.074219 C 631.972656 912.097656 627.496094 901.285156 627.496094 890.007812 L 627.496094 346.5625 C 627.496094 335.285156 631.972656 324.464844 639.949219 316.496094 C 647.925781 308.519531 658.742188 304.039062 670.015625 304.039062 Z M 670.015625 304.039062 "/></clipPath><clipPath id="ec478a8bc2"><path d="M 844.671875 38.699219 L 1006.671875 38.699219 L 1006.671875 932.207031 L 844.671875 932.207031 Z M 844.671875 38.699219 "/></clipPath><clipPath id="4747874e1e"><path d="M 887.179688 38.699219 L 963.828125 38.699219 C 975.101562 38.699219 985.914062 43.179688 993.886719 51.152344 C 1001.855469 59.121094 1006.335938 69.933594 1006.335938 81.207031 L 1006.335938 889.6875 C 1006.335938 900.960938 1001.855469 911.773438 993.886719 919.746094 C 985.914062 927.714844 975.101562 932.195312 963.828125 932.195312 L 887.179688 932.195312 C 875.90625 932.195312 865.09375 927.714844 857.121094 919.746094 C 849.152344 911.773438 844.671875 900.960938 844.671875 889.6875 L 844.671875 81.207031 C 844.671875 69.933594 849.152344 59.121094 857.121094 51.152344 C 865.09375 43.179688 875.90625 38.699219 887.179688 38.699219 Z M 887.179688 38.699219 "/></clipPath><clipPath id="5ef09d6229"><path d="M 144.253906 236 L 700 236 L 700 819 L 144.253906 819 Z M 144.253906 236 "/></clipPath><clipPath id="e2209dfb55"><path d="M 498 138 L 1055.503906 138 L 1055.503906 863 L 498 863 Z M 498 138 "/></clipPath><clipPath id="30aa345b8c"><path d="M 229.617188 565.742188 L 315.730469 565.742188 L 315.730469 651.855469 L 229.617188 651.855469 Z M 229.617188 565.742188 "/></clipPath><clipPath id="6ea655c6be"><path d="M 272.671875 565.742188 C 248.894531 565.742188 229.617188 585.019531 229.617188 608.800781 C 229.617188 632.578125 248.894531 651.855469 272.671875 651.855469 C 296.457031 651.855469 315.730469 632.578125 315.730469 608.800781 C 315.730469 585.019531 296.457031 565.742188 272.671875 565.742188 Z M 272.671875 565.742188 "/></clipPath><clipPath id="6d152f89aa"><path d="M 447.476562 403.621094 L 533.589844 403.621094 L 533.589844 489.734375 L 447.476562 489.734375 Z M 447.476562 403.621094 "/></clipPath><clipPath id="9d469f487c"><path d="M 490.53125 403.621094 C 466.753906 403.621094 447.476562 422.898438 447.476562 446.675781 C 447.476562 470.457031 466.753906 489.734375 490.53125 489.734375 C 514.3125 489.734375 533.589844 470.457031 533.589844 446.675781 C 533.589844 422.898438 514.3125 403.621094 490.53125 403.621094 Z M 490.53125 403.621094 "/></clipPath><clipPath id="4761093b5b"><path d="M 665.105469 610.328125 L 751.214844 610.328125 L 751.214844 696.441406 L 665.105469 696.441406 Z M 665.105469 610.328125 "/></clipPath><clipPath id="7b140847ad"><path d="M 708.160156 610.328125 C 684.378906 610.328125 665.105469 629.605469 665.105469 653.386719 C 665.105469 677.164062 684.378906 696.441406 708.160156 696.441406 C 731.941406 696.441406 751.214844 677.164062 751.214844 653.386719 C 751.214844 629.605469 731.941406 610.328125 708.160156 610.328125 Z M 708.160156 610.328125 "/></clipPath><clipPath id="01782f5c04"><path d="M 882.480469 304.027344 L 968.59375 304.027344 L 968.59375 390.140625 L 882.480469 390.140625 Z M 882.480469 304.027344 "/></clipPath><clipPath id="71a5540e35"><path d="M 925.535156 304.027344 C 901.757812 304.027344 882.480469 323.304688 882.480469 347.085938 C 882.480469 370.863281 901.757812 390.140625 925.535156 390.140625 C 949.316406 390.140625 968.59375 370.863281 968.59375 347.085938 C 968.59375 323.304688 949.316406 304.027344 925.535156 304.027344 Z M 925.535156 304.027344 "/></clipPath></defs><g id="131fb1f48d"><path style=" stroke:none;fill-rule:nonzero;fill:#fcf8f5;fill-opacity:1;" d="M 75.175781 1357.480469 C 67.378906 1357.480469 62.015625 1355.945312 59.097656 1352.867188 C 56.171875 1349.773438 54.714844 1344.503906 54.714844 1337.039062 L 54.714844 1032.261719 C 54.714844 1024.804688 56.171875 1019.539062 59.097656 1016.457031 C 62.015625 1013.367188 67.378906 1011.820312 75.175781 1011.820312 L 130.175781 1011.820312 C 137.972656 1011.820312 143.332031 1013.367188 146.257812 1016.457031 C 149.175781 1019.539062 150.640625 1024.804688 150.640625 1032.261719 L 150.640625 1272.28125 L 267.972656 1272.28125 C 275.429688 1272.28125 280.695312 1273.746094 283.777344 1276.664062 C 286.867188 1279.589844 288.414062 1284.941406 288.414062 1292.722656 L 288.414062 1337.039062 C 288.414062 1344.503906 286.867188 1349.773438 283.777344 1352.867188 C 280.695312 1355.945312 275.429688 1357.480469 267.972656 1357.480469 Z M 75.175781 1357.480469 "/><path style=" stroke:none;fill-rule:nonzero;fill:#fcf8f5;fill-opacity:1;" d="M 332.722656 1357.480469 C 325.570312 1357.480469 320.53125 1356.019531 317.613281 1353.097656 C 314.6875 1350.179688 313.230469 1345.148438 313.230469 1338.007812 L 313.230469 1031.292969 C 313.230469 1023.835938 314.6875 1018.730469 317.613281 1015.972656 C 320.53125 1013.207031 325.570312 1011.820312 332.722656 1011.820312 L 389.683594 1011.820312 C 397.140625 1011.820312 402.246094 1013.207031 405.003906 1015.972656 C 407.769531 1018.730469 409.15625 1023.835938 409.15625 1031.292969 L 409.15625 1338.007812 C 409.15625 1345.148438 407.769531 1350.179688 405.003906 1353.097656 C 402.246094 1356.019531 397.140625 1357.480469 389.683594 1357.480469 Z M 332.722656 1357.480469 "/><path style=" stroke:none;fill-rule:nonzero;fill:#fcf8f5;fill-opacity:1;" d="M 547.890625 1357.480469 C 540.105469 1357.480469 534.75 1355.945312 531.832031 1352.867188 C 528.910156 1349.773438 527.449219 1344.503906 527.449219 1337.039062 L 527.449219 1096.535156 L 454.917969 1096.535156 C 447.121094 1096.535156 441.757812 1095.074219 438.835938 1092.152344 C 435.914062 1089.234375 434.453125 1083.871094 434.453125 1076.070312 L 434.453125 1032.261719 C 434.453125 1024.804688 435.914062 1019.539062 438.835938 1016.457031 C 441.757812 1013.367188 447.121094 1011.820312 454.917969 1011.820312 L 695.90625 1011.820312 C 703.6875 1011.820312 709.039062 1013.367188 711.964844 1016.457031 C 714.882812 1019.539062 716.347656 1024.804688 716.347656 1032.261719 L 716.347656 1076.070312 C 716.347656 1083.871094 714.882812 1089.234375 711.964844 1092.152344 C 709.039062 1095.074219 703.6875 1096.535156 695.90625 1096.535156 L 623.351562 1096.535156 L 623.351562 1337.039062 C 623.351562 1344.503906 621.886719 1349.773438 618.96875 1352.867188 C 616.0625 1355.945312 610.710938 1357.480469 602.910156 1357.480469 Z M 547.890625 1357.480469 "/><path style=" stroke:none;fill-rule:nonzero;fill:#fcf8f5;fill-opacity:1;" d="M 761.148438 1357.480469 C 753.996094 1357.480469 748.957031 1356.019531 746.035156 1353.097656 C 743.113281 1350.179688 741.652344 1345.148438 741.652344 1338.007812 L 741.652344 1031.292969 C 741.652344 1023.835938 743.113281 1018.730469 746.035156 1015.972656 C 748.957031 1013.207031 753.996094 1011.820312 761.148438 1011.820312 L 818.109375 1011.820312 C 825.566406 1011.820312 830.667969 1013.207031 833.425781 1015.972656 C 836.195312 1018.730469 837.578125 1023.835938 837.578125 1031.292969 L 837.578125 1338.007812 C 837.578125 1345.148438 836.195312 1350.179688 833.425781 1353.097656 C 830.667969 1356.019531 825.566406 1357.480469 818.109375 1357.480469 Z M 761.148438 1357.480469 "/><path style=" stroke:none;fill-rule:nonzero;fill:#fcf8f5;fill-opacity:1;" d="M 871.644531 1357.480469 C 864.503906 1357.480469 860.046875 1355.535156 858.265625 1351.644531 C 856.476562 1347.757812 857.53125 1342.886719 861.425781 1337.039062 L 961.710938 1181.25 L 866.292969 1031.292969 C 862.722656 1025.773438 861.746094 1021.152344 863.363281 1017.425781 C 864.988281 1013.691406 869.210938 1011.820312 876.027344 1011.820312 L 933.957031 1011.820312 C 946.289062 1011.820312 954.972656 1012.800781 960.003906 1014.75 C 965.042969 1016.6875 969.835938 1021.390625 974.375 1028.847656 L 1018.1875 1104.308594 L 1061.511719 1028.847656 C 1066.0625 1020.742188 1070.691406 1015.882812 1075.398438 1014.265625 C 1080.105469 1012.640625 1087.972656 1011.820312 1099 1011.820312 L 1161.335938 1011.820312 C 1168.148438 1011.820312 1172.363281 1013.691406 1173.976562 1017.425781 C 1175.605469 1021.152344 1174.636719 1025.773438 1171.070312 1031.292969 L 1074.660156 1181.25 L 1175.9375 1337.039062 C 1179.828125 1342.226562 1180.957031 1346.929688 1179.332031 1351.160156 C 1177.714844 1355.375 1173.175781 1357.480469 1165.71875 1357.480469 L 1103.382812 1357.480469 C 1094.953125 1357.480469 1088.386719 1357.15625 1083.683594 1356.511719 C 1078.976562 1355.867188 1075.15625 1354.246094 1072.238281 1351.644531 C 1069.316406 1349.046875 1066.230469 1344.988281 1062.988281 1339.460938 L 1016.734375 1259.132812 L 971.445312 1339.460938 C 968.523438 1344.339844 965.683594 1348.078125 962.933594 1350.675781 C 960.175781 1353.257812 956.449219 1355.046875 951.746094 1356.027344 C 947.039062 1356.996094 940.300781 1357.480469 931.535156 1357.480469 Z M 871.644531 1357.480469 "/><path style=" stroke:none;fill-rule:nonzero;fill:#fcf8f5;fill-opacity:1;" d="M 1201.152344 1057.488281 C 1200.367188 1057.488281 1199.820312 1057.335938 1199.515625 1057.027344 C 1199.203125 1056.722656 1199.054688 1056.183594 1199.054688 1055.410156 L 1199.054688 1021.105469 L 1188.371094 1021.105469 C 1187.597656 1021.105469 1187.0625 1020.957031 1186.757812 1020.644531 C 1186.445312 1020.339844 1186.296875 1019.792969 1186.296875 1019.007812 L 1186.296875 1016.007812 C 1186.296875 1015.222656 1186.445312 1014.679688 1186.757812 1014.371094 C 1187.0625 1014.0625 1187.597656 1013.910156 1188.371094 1013.910156 L 1217.394531 1013.910156 C 1218.222656 1013.910156 1218.777344 1014.0625 1219.054688 1014.371094 C 1219.34375 1014.679688 1219.492188 1015.222656 1219.492188 1016.007812 L 1219.492188 1019.007812 C 1219.492188 1019.792969 1219.34375 1020.339844 1219.054688 1020.644531 C 1218.777344 1020.957031 1218.222656 1021.105469 1217.394531 1021.105469 L 1206.734375 1021.105469 L 1206.734375 1055.410156 C 1206.734375 1056.183594 1206.585938 1056.722656 1206.296875 1057.027344 C 1206.003906 1057.335938 1205.449219 1057.488281 1204.636719 1057.488281 Z M 1201.152344 1057.488281 "/><path style=" stroke:none;fill-rule:nonzero;fill:#fcf8f5;fill-opacity:1;" d="M 1226.671875 1057.488281 C 1225.898438 1057.488281 1225.359375 1057.335938 1225.054688 1057.027344 C 1224.742188 1056.722656 1224.59375 1056.183594 1224.59375 1055.410156 L 1224.59375 1016.007812 C 1224.59375 1015.222656 1224.742188 1014.679688 1225.054688 1014.371094 C 1225.359375 1014.0625 1225.898438 1013.910156 1226.671875 1013.910156 L 1229.371094 1013.910156 C 1230.273438 1013.910156 1230.914062 1014.019531 1231.285156 1014.230469 C 1231.652344 1014.433594 1232 1014.867188 1232.324219 1015.523438 L 1245.148438 1038.339844 L 1257.859375 1015.570312 C 1258.210938 1014.878906 1258.566406 1014.433594 1258.921875 1014.230469 C 1259.273438 1014.019531 1259.855469 1013.910156 1260.675781 1013.910156 L 1263.675781 1013.910156 C 1264.488281 1013.910156 1265.046875 1014.0625 1265.359375 1014.371094 C 1265.664062 1014.679688 1265.820312 1015.222656 1265.820312 1016.007812 L 1265.820312 1055.410156 C 1265.820312 1056.183594 1265.664062 1056.722656 1265.359375 1057.027344 C 1265.046875 1057.335938 1264.488281 1057.488281 1263.675781 1057.488281 L 1260.558594 1057.488281 C 1259.777344 1057.488281 1259.226562 1057.335938 1258.921875 1057.027344 C 1258.609375 1056.722656 1258.460938 1056.183594 1258.460938 1055.410156 L 1258.460938 1036.679688 C 1258.460938 1033.253906 1258.949219 1029.179688 1259.9375 1024.472656 L 1259.566406 1024.472656 C 1258.785156 1026.769531 1257.980469 1028.765625 1257.167969 1030.472656 C 1256.351562 1032.167969 1255.449219 1033.886719 1254.46875 1035.640625 L 1248.472656 1046.320312 C 1248.175781 1046.847656 1247.859375 1047.222656 1247.527344 1047.453125 C 1247.203125 1047.683594 1246.71875 1047.796875 1246.070312 1047.796875 L 1244.109375 1047.796875 C 1243.492188 1047.796875 1243.03125 1047.707031 1242.726562 1047.523438 C 1242.414062 1047.335938 1242.082031 1046.9375 1241.710938 1046.320312 L 1235.574219 1035.640625 C 1234.882812 1034.457031 1234.273438 1033.328125 1233.753906 1032.25 C 1233.246094 1031.160156 1232.765625 1029.988281 1232.324219 1028.742188 C 1231.871094 1027.496094 1231.382812 1026.054688 1230.847656 1024.40625 L 1230.429688 1024.40625 C 1230.902344 1026.820312 1231.242188 1029.007812 1231.445312 1030.957031 C 1231.660156 1032.894531 1231.769531 1034.828125 1231.769531 1036.746094 L 1231.769531 1055.410156 C 1231.769531 1056.183594 1231.613281 1056.722656 1231.308594 1057.027344 C 1230.996094 1057.335938 1230.460938 1057.488281 1229.691406 1057.488281 Z M 1226.671875 1057.488281 "/><g clip-rule="nonzero" clip-path="url(#891373b029)"><g clip-rule="nonzero" clip-path="url(#f1a961b010)"><path style="fill:none;stroke-width:58;stroke-linecap:butt;stroke-linejoin:miter;stroke:#fcf8f5;stroke-opacity:1;stroke-miterlimit:4;" d="M 50.398618 0.00102597 L 141.273613 0.00102597 C 154.639353 0.00102597 167.458797 5.306623 176.9125 14.760401 C 186.361574 24.214178 191.671759 37.033723 191.671759 50.394939 L 191.671759 479.282553 C 191.671759 492.648399 186.361574 505.463314 176.9125 514.917092 C 167.458797 524.370869 154.639353 529.676466 141.273613 529.676466 L 50.398618 529.676466 C 37.032878 529.676466 24.213435 524.370869 14.759731 514.917092 C 5.306028 505.463314 0.000472899 492.648399 0.000472899 479.282553 L 0.000472899 50.394939 C 0.000472899 37.033723 5.306028 24.214178 14.759731 14.760401 C 24.213435 5.306623 37.032878 0.00102597 50.398618 0.00102597 Z M 50.398618 0.00102597 " transform="matrix(0.84375,0,0,0.843743,193.358976,485.616322)"/></g></g><g clip-rule="nonzero" clip-path="url(#87371f7e2c)"><g clip-rule="nonzero" clip-path="url(#fde34e7046)"><path style="fill:none;stroke-width:58;stroke-linecap:butt;stroke-linejoin:miter;stroke:#fcf8f5;stroke-opacity:1;stroke-miterlimit:4;" d="M 50.397839 0.000825595 L 141.272833 0.000825595 C 154.643203 0.000825595 167.458017 5.306423 176.91172 14.7602 C 186.360794 24.213978 191.670979 37.033523 191.670979 50.394738 L 191.670979 876.095643 C 191.670979 889.456859 186.360794 902.276403 176.91172 911.730181 C 167.458017 921.183959 154.643203 926.489556 141.272833 926.489556 L 50.397839 926.489556 C 37.032099 926.489556 24.212655 921.183959 14.763581 911.730181 C 5.309878 902.276403 -0.000306854 889.456859 -0.000306854 876.095643 L -0.000306854 50.394738 C -0.000306854 37.033523 5.309878 24.213978 14.763581 14.7602 C 24.212655 5.306423 37.032099 0.000825595 50.397839 0.000825595 Z M 50.397839 0.000825595 " transform="matrix(0.84375,0,0,0.843743,410.316665,150.803991)"/></g></g><g clip-rule="nonzero" clip-path="url(#b6cd4f09f4)"><g clip-rule="nonzero" clip-path="url(#5468e8e544)"><path style="fill:none;stroke-width:58;stroke-linecap:butt;stroke-linejoin:miter;stroke:#fcf8f5;stroke-opacity:1;stroke-miterlimit:4;" d="M 50.394899 0.000355668 L 141.269894 0.000355668 C 154.640264 0.000355668 167.459708 5.310582 176.913411 14.76436 C 186.357855 24.208878 191.672669 37.033053 191.672669 50.398898 L 191.672669 694.487271 C 191.672669 707.853116 186.357855 720.668031 176.913411 730.121809 C 167.459708 739.575586 154.640264 744.881183 141.269894 744.881183 L 50.394899 744.881183 C 37.033789 744.881183 24.214345 739.575586 14.760642 730.121809 C 5.306939 720.668031 0.00138364 707.853116 0.00138364 694.487271 L 0.00138364 50.398898 C 0.00138364 37.033053 5.306939 24.208878 14.760642 14.76436 C 24.214345 5.310582 37.033789 0.000355668 50.394899 0.000355668 Z M 50.394899 0.000355668 " transform="matrix(0.84375,0,0,0.843743,627.494926,304.038762)"/></g></g><g clip-rule="nonzero" clip-path="url(#ec478a8bc2)"><g clip-rule="nonzero" clip-path="url(#4747874e1e)"><path style="fill:none;stroke-width:58;stroke-linecap:butt;stroke-linejoin:miter;stroke:#fcf8f5;stroke-opacity:1;stroke-miterlimit:4;" d="M 50.396799 -0.000455817 L 141.272952 -0.000455817 C 154.638999 -0.000455817 167.458548 5.311733 176.911113 14.764372 C 186.359047 24.21238 191.671193 37.032029 191.671193 50.398181 L 191.671193 1008.958773 C 191.671193 1022.324925 186.359047 1035.144575 176.911113 1044.597214 C 167.458548 1054.045222 154.638999 1059.35741 141.272952 1059.35741 L 50.396799 1059.35741 C 37.030752 1059.35741 24.211203 1054.045222 14.758638 1044.597214 C 5.310705 1035.144575 -0.00144226 1022.324925 -0.00144226 1008.958773 L -0.00144226 50.398181 C -0.00144226 37.032029 5.310705 24.21238 14.758638 14.764372 C 24.211203 5.311733 37.030752 -0.000455817 50.396799 -0.000455817 Z M 50.396799 -0.000455817 " transform="matrix(0.843438,0,0,0.843432,844.673091,38.699603)"/></g></g><g clip-rule="nonzero" clip-path="url(#5ef09d6229)"><path style="fill:none;stroke-width:44;stroke-linecap:butt;stroke-linejoin:miter;stroke:#fcf8f5;stroke-opacity:1;stroke-miterlimit:4;" d="M -0.000562667 22.003612 L 322.444463 21.999056 " transform="matrix(0.674735,-0.504691,0.504695,0.674729,261.555416,594.34464)"/></g><path style="fill:none;stroke-width:44;stroke-linecap:butt;stroke-linejoin:miter;stroke:#fcf8f5;stroke-opacity:1;stroke-miterlimit:4;" d="M -0.00138519 22.002447 L 356.760443 21.998452 " transform="matrix(-0.611472,-0.581386,0.581391,-0.611468,696.332128,667.144386)"/><g clip-rule="nonzero" clip-path="url(#e2209dfb55)"><path style="fill:none;stroke-width:44;stroke-linecap:butt;stroke-linejoin:miter;stroke:#fcf8f5;stroke-opacity:1;stroke-miterlimit:4;" d="M -0.0037959 22.000863 L 443.588969 22.00079 " transform="matrix(0.490482,-0.686537,0.686543,0.490478,693.053585,642.097076)"/></g><g clip-rule="nonzero" clip-path="url(#30aa345b8c)"><g clip-rule="nonzero" clip-path="url(#6ea655c6be)"><path style=" stroke:none;fill-rule:nonzero;fill:#fcf8f5;fill-opacity:1;" d="M 229.617188 565.742188 L 315.730469 565.742188 L 315.730469 651.855469 L 229.617188 651.855469 Z M 229.617188 565.742188 "/></g></g><g clip-rule="nonzero" clip-path="url(#6d152f89aa)"><g clip-rule="nonzero" clip-path="url(#9d469f487c)"><path style=" stroke:none;fill-rule:nonzero;fill:#fcf8f5;fill-opacity:1;" d="M 447.476562 403.621094 L 533.589844 403.621094 L 533.589844 489.734375 L 447.476562 489.734375 Z M 447.476562 403.621094 "/></g></g><g clip-rule="nonzero" clip-path="url(#4761093b5b)"><g clip-rule="nonzero" clip-path="url(#7b140847ad)"><path style=" stroke:none;fill-rule:nonzero;fill:#fcf8f5;fill-opacity:1;" d="M 665.105469 610.328125 L 751.214844 610.328125 L 751.214844 696.441406 L 665.105469 696.441406 Z M 665.105469 610.328125 "/></g></g><g clip-rule="nonzero" clip-path="url(#01782f5c04)"><g clip-rule="nonzero" clip-path="url(#71a5540e35)"><path style=" stroke:none;fill-rule:nonzero;fill:#fcf8f5;fill-opacity:1;" d="M 882.480469 304.027344 L 968.59375 304.027344 L 968.59375 390.140625 L 882.480469 390.140625 Z M 882.480469 304.027344 "/></g></g></g></svg>