<svg xmlns="http://www.w3.org/2000/svg" xmlns:xlink="http://www.w3.org/1999/xlink" width="1080" zoomAndPan="magnify" viewBox="0 0 810 899.99999" height="1200" preserveAspectRatio="xMidYMid meet" version="1.2"><defs><clipPath id="a8183cabdd"><path d="M 43.648438 450.003906 L 187.648438 450.003906 L 187.648438 847.5 L 43.648438 847.5 Z M 43.648438 450.003906 "/></clipPath><clipPath id="13c857628b"><path d="M 81.445312 450.003906 L 149.601562 450.003906 C 159.628906 450.003906 169.242188 453.984375 176.332031 461.074219 C 183.417969 468.164062 187.402344 477.777344 187.402344 487.800781 L 187.402344 809.464844 C 187.402344 819.488281 183.417969 829.101562 176.332031 836.191406 C 169.242188 843.28125 159.628906 847.261719 149.601562 847.261719 L 81.445312 847.261719 C 71.421875 847.261719 61.808594 843.28125 54.71875 836.191406 C 47.628906 829.101562 43.648438 819.488281 43.648438 809.464844 L 43.648438 487.800781 C 43.648438 477.777344 47.628906 468.164062 54.71875 461.074219 C 61.808594 453.984375 71.421875 450.003906 81.445312 450.003906 Z M 81.445312 450.003906 "/></clipPath><clipPath id="68dec8d5ce"><path d="M 236.5 152.390625 L 380.5 152.390625 L 380.5 847.628906 L 236.5 847.628906 Z M 236.5 152.390625 "/></clipPath><clipPath id="8cf64bfe12"><path d="M 274.296875 152.390625 L 342.453125 152.390625 C 352.480469 152.390625 362.09375 156.371094 369.183594 163.460938 C 376.269531 170.550781 380.253906 180.164062 380.253906 190.1875 L 380.253906 809.460938 C 380.253906 819.484375 376.269531 829.097656 369.183594 836.1875 C 362.09375 843.277344 352.480469 847.257812 342.453125 847.257812 L 274.296875 847.257812 C 264.273438 847.257812 254.660156 843.277344 247.570312 836.1875 C 240.480469 829.097656 236.5 819.484375 236.5 809.460938 L 236.5 190.1875 C 236.5 180.164062 240.480469 170.550781 247.570312 163.460938 C 254.660156 156.371094 264.273438 152.390625 274.296875 152.390625 Z M 274.296875 152.390625 "/></clipPath><clipPath id="5f83939e3d"><path d="M 429.546875 288.601562 L 573.546875 288.601562 L 573.546875 847.339844 L 429.546875 847.339844 Z M 429.546875 288.601562 "/></clipPath><clipPath id="a75f7269d1"><path d="M 467.34375 288.601562 L 535.5 288.601562 C 545.527344 288.601562 555.140625 292.582031 562.230469 299.671875 C 569.316406 306.757812 573.300781 316.375 573.300781 326.398438 L 573.300781 809.464844 C 573.300781 819.488281 569.316406 829.101562 562.230469 836.191406 C 555.140625 843.28125 545.527344 847.261719 535.5 847.261719 L 467.34375 847.261719 C 457.320312 847.261719 447.707031 843.28125 440.617188 836.191406 C 433.527344 829.101562 429.546875 819.488281 429.546875 809.464844 L 429.546875 326.398438 C 429.546875 316.375 433.527344 306.757812 440.617188 299.671875 C 447.707031 292.582031 457.320312 288.601562 467.34375 288.601562 Z M 467.34375 288.601562 "/></clipPath><clipPath id="4f89b86f50"><path d="M 622.59375 52.742188 L 766.59375 52.742188 L 766.59375 846.976562 L 622.59375 846.976562 Z M 622.59375 52.742188 "/></clipPath><clipPath id="1b3e6d8b4a"><path d="M 660.378906 52.742188 L 728.507812 52.742188 C 738.53125 52.742188 748.140625 56.722656 755.226562 63.808594 C 762.3125 70.894531 766.292969 80.503906 766.292969 90.527344 L 766.292969 809.179688 C 766.292969 819.203125 762.3125 828.8125 755.226562 835.898438 C 748.140625 842.984375 738.53125 846.964844 728.507812 846.964844 L 660.378906 846.964844 C 650.355469 846.964844 640.746094 842.984375 633.660156 835.898438 C 626.574219 828.8125 622.59375 819.203125 622.59375 809.179688 L 622.59375 90.527344 C 622.59375 80.503906 626.574219 70.894531 633.660156 63.808594 C 640.746094 56.722656 650.355469 52.742188 660.378906 52.742188 Z M 660.378906 52.742188 "/></clipPath><clipPath id="b174253013"><path d="M 75.878906 521.226562 L 152.421875 521.226562 L 152.421875 597.773438 L 75.878906 597.773438 Z M 75.878906 521.226562 "/></clipPath><clipPath id="9e98d1e0b8"><path d="M 114.148438 521.226562 C 93.011719 521.226562 75.878906 538.363281 75.878906 559.5 C 75.878906 580.636719 93.011719 597.773438 114.148438 597.773438 C 135.289062 597.773438 152.421875 580.636719 152.421875 559.5 C 152.421875 538.363281 135.289062 521.226562 114.148438 521.226562 Z M 114.148438 521.226562 "/></clipPath><clipPath id="cc39b29d4d"><path d="M 269.53125 377.117188 L 346.074219 377.117188 L 346.074219 453.664062 L 269.53125 453.664062 Z M 269.53125 377.117188 "/></clipPath><clipPath id="18d35cb657"><path d="M 307.800781 377.117188 C 286.664062 377.117188 269.53125 394.253906 269.53125 415.390625 C 269.53125 436.527344 286.664062 453.664062 307.800781 453.664062 C 328.941406 453.664062 346.074219 436.527344 346.074219 415.390625 C 346.074219 394.253906 328.941406 377.117188 307.800781 377.117188 Z M 307.800781 377.117188 "/></clipPath><clipPath id="14a7bfce12"><path d="M 462.976562 560.859375 L 539.519531 560.859375 L 539.519531 637.40625 L 462.976562 637.40625 Z M 462.976562 560.859375 "/></clipPath><clipPath id="a3b9d7a030"><path d="M 501.25 560.859375 C 480.109375 560.859375 462.976562 577.996094 462.976562 599.132812 C 462.976562 620.269531 480.109375 637.40625 501.25 637.40625 C 522.386719 637.40625 539.519531 620.269531 539.519531 599.132812 C 539.519531 577.996094 522.386719 560.859375 501.25 560.859375 Z M 501.25 560.859375 "/></clipPath><clipPath id="3d5a806929"><path d="M 656.199219 288.589844 L 732.746094 288.589844 L 732.746094 365.136719 L 656.199219 365.136719 Z M 656.199219 288.589844 "/></clipPath><clipPath id="0373fed7c7"><path d="M 694.472656 288.589844 C 673.335938 288.589844 656.199219 305.726562 656.199219 326.863281 C 656.199219 348 673.335938 365.136719 694.472656 365.136719 C 715.609375 365.136719 732.746094 348 732.746094 326.863281 C 732.746094 305.726562 715.609375 288.589844 694.472656 288.589844 Z M 694.472656 288.589844 "/></clipPath></defs><g id="2bd7841adc"><g clip-rule="nonzero" clip-path="url(#a8183cabdd)"><g clip-rule="nonzero" clip-path="url(#13c857628b)"><path style="fill:none;stroke-width:58;stroke-linecap:butt;stroke-linejoin:miter;stroke:#fcf8f5;stroke-opacity:1;stroke-miterlimit:4;" d="M 50.396806 0.000605067 L 141.271811 0.000605067 C 154.641603 0.000605067 167.459312 5.307897 176.912438 14.761023 C 186.360355 24.214148 191.672855 37.031857 191.672855 50.396441 L 191.672855 479.28188 C 191.672855 492.646464 186.360355 505.464173 176.912438 514.917299 C 167.459312 524.370424 154.641603 529.677716 141.271811 529.677716 L 50.396806 529.677716 C 37.032222 529.677716 24.214513 524.370424 14.761387 514.917299 C 5.308262 505.464173 0.000969952 492.646464 0.000969952 479.28188 L 0.000969952 50.396441 C 0.000969952 37.031857 5.308262 24.214148 14.761387 14.761023 C 24.214513 5.307897 37.032222 0.000605067 50.396806 0.000605067 Z M 50.396806 0.000605067 " transform="matrix(0.75,0,0,0.75,43.64771,450.003452)"/></g></g><g clip-rule="nonzero" clip-path="url(#68dec8d5ce)"><g clip-rule="nonzero" clip-path="url(#8cf64bfe12)"><path style="fill:none;stroke-width:58;stroke-linecap:butt;stroke-linejoin:miter;stroke:#fcf8f5;stroke-opacity:1;stroke-miterlimit:4;" d="M 50.397186 0.000648767 L 141.272191 0.000648767 C 154.641984 0.000648767 167.459693 5.307941 176.912818 14.761066 C 186.360735 24.214192 191.673236 37.031901 191.673236 50.396485 L 191.673236 876.094445 C 191.673236 889.459029 186.360735 902.276738 176.912818 911.729863 C 167.459693 921.182989 154.641984 926.490281 141.272191 926.490281 L 50.397186 926.490281 C 37.032602 926.490281 24.214893 921.182989 14.761768 911.729863 C 5.308642 902.276738 0.00135048 889.459029 0.00135048 876.094445 L 0.00135048 50.396485 C 0.00135048 37.031901 5.308642 24.214192 14.761768 14.761066 C 24.214893 5.307941 37.032602 0.000648767 50.397186 0.000648767 Z M 50.397186 0.000648767 " transform="matrix(0.75,0,0,0.75,236.498987,152.390138)"/></g></g><g clip-rule="nonzero" clip-path="url(#5f83939e3d)"><g clip-rule="nonzero" clip-path="url(#a75f7269d1)"><path style="fill:none;stroke-width:58;stroke-linecap:butt;stroke-linejoin:miter;stroke:#fcf8f5;stroke-opacity:1;stroke-miterlimit:4;" d="M 50.396579 0.0022336 L 141.271584 0.0022336 C 154.641376 0.0022336 167.459085 5.309526 176.91221 14.762651 C 186.360128 24.210568 191.672628 37.033486 191.672628 50.39807 L 191.672628 694.486645 C 191.672628 707.851229 186.360128 720.668938 176.91221 730.122063 C 167.459085 739.575189 154.641376 744.882481 141.271584 744.882481 L 50.396579 744.882481 C 37.031995 744.882481 24.214286 739.575189 14.76116 730.122063 C 5.308035 720.668938 0.000742879 707.851229 0.000742879 694.486645 L 0.000742879 50.39807 C 0.000742879 37.033486 5.308035 24.210568 14.76116 14.762651 C 24.214286 5.309526 37.031995 0.0022336 50.396579 0.0022336 Z M 50.396579 0.0022336 " transform="matrix(0.75,0,0,0.75,429.546318,288.599887)"/></g></g><g clip-rule="nonzero" clip-path="url(#4f89b86f50)"><g clip-rule="nonzero" clip-path="url(#1b3e6d8b4a)"><path style="fill:none;stroke-width:58;stroke-linecap:butt;stroke-linejoin:miter;stroke:#fcf8f5;stroke-opacity:1;stroke-miterlimit:4;" d="M 50.398996 0.00156626 L 141.271041 0.00156626 C 154.640554 0.00156626 167.457779 5.310815 176.909181 14.762217 C 186.360582 24.213618 191.669831 37.030844 191.669831 50.400356 L 191.669831 1008.956894 C 191.669831 1022.326406 186.360582 1035.143632 176.909181 1044.595033 C 167.457779 1054.046434 154.640554 1059.355684 141.271041 1059.355684 L 50.398996 1059.355684 C 37.029483 1059.355684 24.212258 1054.046434 14.760856 1044.595033 C 5.309455 1035.143632 0.000205759 1022.326406 0.000205759 1008.956894 L 0.000205759 50.400356 C 0.000205759 37.030844 5.309455 24.213618 14.760856 14.762217 C 24.212258 5.310815 37.029483 0.00156626 50.398996 0.00156626 Z M 50.398996 0.00156626 " transform="matrix(0.749723,0,0,0.749723,622.593596,52.741013)"/></g></g><path style="fill:none;stroke-width:44;stroke-linecap:butt;stroke-linejoin:miter;stroke:#fcf8f5;stroke-opacity:1;stroke-miterlimit:4;" d="M -0.000659199 22.001691 L 322.445462 21.999745 " transform="matrix(0.599764,-0.448618,0.448618,0.599764,104.266763,546.651543)"/><path style="fill:none;stroke-width:44;stroke-linecap:butt;stroke-linejoin:miter;stroke:#fcf8f5;stroke-opacity:1;stroke-miterlimit:4;" d="M -0.00194701 22.00014 L 356.762189 21.996924 " transform="matrix(-0.543531,-0.516792,0.516792,-0.543531,490.734915,611.363004)"/><path style="fill:none;stroke-width:44;stroke-linecap:butt;stroke-linejoin:miter;stroke:#fcf8f5;stroke-opacity:1;stroke-miterlimit:4;" d="M -0.00163356 22.000598 L 443.590295 21.999459 " transform="matrix(0.435984,-0.61026,0.61026,0.435984,487.820715,589.098493)"/><g clip-rule="nonzero" clip-path="url(#b174253013)"><g clip-rule="nonzero" clip-path="url(#9e98d1e0b8)"><path style=" stroke:none;fill-rule:nonzero;fill:#fcf8f5;fill-opacity:1;" d="M 75.878906 521.226562 L 152.421875 521.226562 L 152.421875 597.773438 L 75.878906 597.773438 Z M 75.878906 521.226562 "/></g></g><g clip-rule="nonzero" clip-path="url(#cc39b29d4d)"><g clip-rule="nonzero" clip-path="url(#18d35cb657)"><path style=" stroke:none;fill-rule:nonzero;fill:#fcf8f5;fill-opacity:1;" d="M 269.53125 377.117188 L 346.074219 377.117188 L 346.074219 453.664062 L 269.53125 453.664062 Z M 269.53125 377.117188 "/></g></g><g clip-rule="nonzero" clip-path="url(#14a7bfce12)"><g clip-rule="nonzero" clip-path="url(#a3b9d7a030)"><path style=" stroke:none;fill-rule:nonzero;fill:#fcf8f5;fill-opacity:1;" d="M 462.976562 560.859375 L 539.519531 560.859375 L 539.519531 637.40625 L 462.976562 637.40625 Z M 462.976562 560.859375 "/></g></g><g clip-rule="nonzero" clip-path="url(#3d5a806929)"><g clip-rule="nonzero" clip-path="url(#0373fed7c7)"><path style=" stroke:none;fill-rule:nonzero;fill:#fcf8f5;fill-opacity:1;" d="M 656.199219 288.589844 L 732.746094 288.589844 L 732.746094 365.136719 L 656.199219 365.136719 Z M 656.199219 288.589844 "/></g></g></g></svg>