<svg xmlns="http://www.w3.org/2000/svg" xmlns:xlink="http://www.w3.org/1999/xlink" width="1920" zoomAndPan="magnify" viewBox="0 0 1440 599.999999" height="800" preserveAspectRatio="xMidYMid meet" version="1.2"><g id="f667f365b8"><path style=" stroke:none;fill-rule:nonzero;fill:#fcf8f5;fill-opacity:1;" d="M 58.578125 499.097656 C 49.601562 499.097656 43.425781 497.328125 40.066406 493.785156 C 36.699219 490.226562 35.019531 484.15625 35.019531 475.5625 L 35.019531 124.683594 C 35.019531 116.097656 36.699219 110.035156 40.066406 106.492188 C 43.425781 102.933594 49.601562 101.152344 58.578125 101.152344 L 121.898438 101.152344 C 130.875 101.152344 137.042969 102.933594 140.410156 106.492188 C 143.769531 110.035156 145.457031 116.097656 145.457031 124.683594 L 145.457031 401.011719 L 280.539062 401.011719 C 289.125 401.011719 295.1875 402.699219 298.730469 406.058594 C 302.289062 409.425781 304.070312 415.585938 304.070312 424.542969 L 304.070312 475.5625 C 304.070312 484.15625 302.289062 490.226562 298.730469 493.785156 C 295.1875 497.328125 289.125 499.097656 280.539062 499.097656 Z M 58.578125 499.097656 "/><path style=" stroke:none;fill-rule:nonzero;fill:#fcf8f5;fill-opacity:1;" d="M 355.082031 499.097656 C 346.847656 499.097656 341.046875 497.414062 337.6875 494.050781 C 334.320312 490.691406 332.640625 484.898438 332.640625 476.679688 L 332.640625 123.570312 C 332.640625 114.984375 334.320312 109.105469 337.6875 105.933594 C 341.046875 102.746094 346.847656 101.152344 355.082031 101.152344 L 420.65625 101.152344 C 429.242188 101.152344 435.121094 102.746094 438.292969 105.933594 C 441.480469 109.105469 443.074219 114.984375 443.074219 123.570312 L 443.074219 476.679688 C 443.074219 484.898438 441.480469 490.691406 438.292969 494.050781 C 435.121094 497.414062 429.242188 499.097656 420.65625 499.097656 Z M 355.082031 499.097656 "/><path style=" stroke:none;fill-rule:nonzero;fill:#fcf8f5;fill-opacity:1;" d="M 602.792969 499.097656 C 593.832031 499.097656 587.667969 497.328125 584.308594 493.785156 C 580.941406 490.226562 579.261719 484.15625 579.261719 475.5625 L 579.261719 198.679688 L 495.757812 198.679688 C 486.78125 198.679688 480.605469 197 477.246094 193.632812 C 473.878906 190.273438 472.199219 184.097656 472.199219 175.121094 L 472.199219 124.683594 C 472.199219 116.097656 473.878906 110.035156 477.246094 106.492188 C 480.605469 102.933594 486.78125 101.152344 495.757812 101.152344 L 773.203125 101.152344 C 782.160156 101.152344 788.320312 102.933594 791.6875 106.492188 C 795.046875 110.035156 796.734375 116.097656 796.734375 124.683594 L 796.734375 175.121094 C 796.734375 184.097656 795.046875 190.273438 791.6875 193.632812 C 788.320312 197 782.160156 198.679688 773.203125 198.679688 L 689.671875 198.679688 L 689.671875 475.5625 C 689.671875 484.15625 687.984375 490.226562 684.625 493.785156 C 681.277344 497.328125 675.117188 499.097656 666.140625 499.097656 Z M 602.792969 499.097656 "/><path style=" stroke:none;fill-rule:nonzero;fill:#fcf8f5;fill-opacity:1;" d="M 848.308594 499.097656 C 840.078125 499.097656 834.273438 497.414062 830.914062 494.050781 C 827.546875 490.691406 825.867188 484.898438 825.867188 476.679688 L 825.867188 123.570312 C 825.867188 114.984375 827.546875 109.105469 830.914062 105.933594 C 834.273438 102.746094 840.078125 101.152344 848.308594 101.152344 L 913.886719 101.152344 C 922.472656 101.152344 928.347656 102.746094 931.523438 105.933594 C 934.707031 109.105469 936.300781 114.984375 936.300781 123.570312 L 936.300781 476.679688 C 936.300781 484.898438 934.707031 490.691406 931.523438 494.050781 C 928.347656 497.414062 922.472656 499.097656 913.886719 499.097656 Z M 848.308594 499.097656 "/><path style=" stroke:none;fill-rule:nonzero;fill:#fcf8f5;fill-opacity:1;" d="M 975.519531 499.097656 C 967.300781 499.097656 962.167969 496.859375 960.117188 492.375 C 958.058594 487.902344 959.273438 482.296875 963.753906 475.5625 L 1079.210938 296.207031 L 969.359375 123.570312 C 965.25 117.214844 964.128906 111.894531 965.988281 107.605469 C 967.859375 103.304688 972.71875 101.152344 980.566406 101.152344 L 1047.257812 101.152344 C 1061.457031 101.152344 1071.453125 102.28125 1077.246094 104.527344 C 1083.046875 106.757812 1088.566406 112.167969 1093.792969 120.753906 L 1144.226562 207.628906 L 1194.105469 120.753906 C 1199.347656 111.425781 1204.679688 105.828125 1210.097656 103.96875 C 1215.515625 102.09375 1224.570312 101.152344 1237.265625 101.152344 L 1309.03125 101.152344 C 1316.871094 101.152344 1321.726562 103.304688 1323.585938 107.605469 C 1325.457031 111.894531 1324.34375 117.214844 1320.238281 123.570312 L 1209.246094 296.207031 L 1325.84375 475.5625 C 1330.320312 481.535156 1331.621094 486.953125 1329.746094 491.820312 C 1327.886719 496.671875 1322.664062 499.097656 1314.078125 499.097656 L 1242.3125 499.097656 C 1232.605469 499.097656 1225.050781 498.722656 1219.632812 497.980469 C 1214.214844 497.238281 1209.816406 495.371094 1206.457031 492.375 C 1203.089844 489.386719 1199.539062 484.714844 1195.808594 478.351562 L 1142.554688 385.871094 L 1090.417969 478.351562 C 1087.050781 483.96875 1083.785156 488.273438 1080.617188 491.261719 C 1077.445312 494.234375 1073.15625 496.292969 1067.738281 497.421875 C 1062.320312 498.539062 1054.5625 499.097656 1044.46875 499.097656 Z M 975.519531 499.097656 "/><path style=" stroke:none;fill-rule:nonzero;fill:#fcf8f5;fill-opacity:1;" d="M 1354.871094 153.726562 C 1353.96875 153.726562 1353.335938 153.554688 1352.984375 153.195312 C 1352.625 152.84375 1352.453125 152.226562 1352.453125 151.335938 L 1352.453125 111.84375 L 1340.15625 111.84375 C 1339.265625 111.84375 1338.648438 111.667969 1338.296875 111.3125 C 1337.9375 110.957031 1337.765625 110.328125 1337.765625 109.425781 L 1337.765625 105.972656 C 1337.765625 105.070312 1337.9375 104.445312 1338.296875 104.085938 C 1338.648438 103.734375 1339.265625 103.554688 1340.15625 103.554688 L 1373.566406 103.554688 C 1374.523438 103.554688 1375.160156 103.734375 1375.480469 104.085938 C 1375.8125 104.445312 1375.984375 105.070312 1375.984375 105.972656 L 1375.984375 109.425781 C 1375.984375 110.328125 1375.8125 110.957031 1375.480469 111.3125 C 1375.160156 111.667969 1374.523438 111.84375 1373.566406 111.84375 L 1361.296875 111.84375 L 1361.296875 151.335938 C 1361.296875 152.226562 1361.125 152.84375 1360.792969 153.195312 C 1360.453125 153.554688 1359.816406 153.726562 1358.878906 153.726562 Z M 1354.871094 153.726562 "/><path style=" stroke:none;fill-rule:nonzero;fill:#fcf8f5;fill-opacity:1;" d="M 1384.25 153.726562 C 1383.359375 153.726562 1382.742188 153.554688 1382.390625 153.195312 C 1382.03125 152.84375 1381.859375 152.226562 1381.859375 151.335938 L 1381.859375 105.972656 C 1381.859375 105.070312 1382.03125 104.445312 1382.390625 104.085938 C 1382.742188 103.734375 1383.359375 103.554688 1384.25 103.554688 L 1387.355469 103.554688 C 1388.398438 103.554688 1389.136719 103.679688 1389.558594 103.925781 C 1389.984375 104.160156 1390.382812 104.65625 1390.753906 105.414062 L 1405.523438 131.683594 L 1420.15625 105.46875 C 1420.5625 104.671875 1420.96875 104.160156 1421.378906 103.925781 C 1421.785156 103.679688 1422.453125 103.554688 1423.398438 103.554688 L 1426.851562 103.554688 C 1427.785156 103.554688 1428.429688 103.734375 1428.789062 104.085938 C 1429.140625 104.445312 1429.320312 105.070312 1429.320312 105.972656 L 1429.320312 151.335938 C 1429.320312 152.226562 1429.140625 152.84375 1428.789062 153.195312 C 1428.429688 153.554688 1427.785156 153.726562 1426.851562 153.726562 L 1423.265625 153.726562 C 1422.363281 153.726562 1421.730469 153.554688 1421.378906 153.195312 C 1421.019531 152.84375 1420.847656 152.226562 1420.847656 151.335938 L 1420.847656 129.769531 C 1420.847656 125.824219 1421.410156 121.136719 1422.546875 115.71875 L 1422.121094 115.71875 C 1421.21875 118.363281 1420.296875 120.660156 1419.359375 122.625 C 1418.417969 124.578125 1417.382812 126.554688 1416.253906 128.574219 L 1409.347656 140.871094 C 1409.007812 141.476562 1408.644531 141.90625 1408.257812 142.171875 C 1407.886719 142.4375 1407.328125 142.570312 1406.585938 142.570312 L 1404.328125 142.570312 C 1403.617188 142.570312 1403.085938 142.464844 1402.734375 142.253906 C 1402.375 142.039062 1401.988281 141.582031 1401.566406 140.871094 L 1394.5 128.574219 C 1393.703125 127.214844 1393 125.910156 1392.402344 124.671875 C 1391.816406 123.414062 1391.265625 122.066406 1390.753906 120.632812 C 1390.238281 119.199219 1389.671875 117.539062 1389.054688 115.640625 L 1388.578125 115.640625 C 1389.121094 118.421875 1389.515625 120.9375 1389.746094 123.183594 C 1389.992188 125.414062 1390.117188 127.636719 1390.117188 129.847656 L 1390.117188 151.335938 C 1390.117188 152.226562 1389.9375 152.84375 1389.585938 153.195312 C 1389.226562 153.554688 1388.609375 153.726562 1387.726562 153.726562 Z M 1384.25 153.726562 "/></g></svg>