<svg xmlns="http://www.w3.org/2000/svg" xmlns:xlink="http://www.w3.org/1999/xlink" width="2560" zoomAndPan="magnify" viewBox="0 0 1920 599.999999" height="800" preserveAspectRatio="xMidYMid meet" version="1.2"><defs><clipPath id="38ddc56987"><path d="M 1816.257812 98 L 1817 98 L 1817 159.40625 L 1816.257812 159.40625 Z M 1816.257812 98 "/></clipPath><clipPath id="9e6fce5250"><path d="M 1430.597656 307.125 L 1504.523438 307.125 L 1504.523438 511.359375 L 1430.597656 511.359375 Z M 1430.597656 307.125 "/></clipPath><clipPath id="1d84a53662"><path d="M 1451.296875 307.125 L 1483.761719 307.125 C 1489.25 307.125 1494.515625 309.308594 1498.398438 313.195312 C 1502.28125 317.078125 1504.460938 322.347656 1504.460938 327.84375 L 1504.460938 490.71875 C 1504.460938 496.214844 1502.28125 501.484375 1498.398438 505.371094 C 1494.515625 509.257812 1489.25 511.441406 1483.761719 511.441406 L 1451.296875 511.441406 C 1445.808594 511.441406 1440.542969 509.257812 1436.660156 505.371094 C 1432.78125 501.484375 1430.597656 496.214844 1430.597656 490.71875 L 1430.597656 327.84375 C 1430.597656 322.347656 1432.78125 317.078125 1436.660156 313.195312 C 1440.542969 309.308594 1445.808594 307.125 1451.296875 307.125 Z M 1451.296875 307.125 "/></clipPath><clipPath id="f94775d25a"><path d="M 1529.683594 154.0625 L 1603.609375 154.0625 L 1603.609375 511.324219 L 1529.683594 511.324219 Z M 1529.683594 154.0625 "/></clipPath><clipPath id="29f1424a70"><path d="M 1550.382812 154.0625 L 1582.847656 154.0625 C 1588.335938 154.0625 1593.601562 156.242188 1597.484375 160.128906 C 1601.363281 164.015625 1603.546875 169.285156 1603.546875 174.78125 L 1603.546875 490.71875 C 1603.546875 496.214844 1601.363281 501.484375 1597.484375 505.371094 C 1593.601562 509.253906 1588.335938 511.4375 1582.847656 511.4375 L 1550.382812 511.4375 C 1544.894531 511.4375 1539.628906 509.253906 1535.746094 505.371094 C 1531.867188 501.484375 1529.683594 496.214844 1529.683594 490.71875 L 1529.683594 174.78125 C 1529.683594 169.285156 1531.867188 164.015625 1535.746094 160.128906 C 1539.628906 156.242188 1544.894531 154.0625 1550.382812 154.0625 Z M 1550.382812 154.0625 "/></clipPath><clipPath id="2537e5fb8b"><path d="M 1628.871094 224.113281 L 1702.796875 224.113281 L 1702.796875 511.523438 L 1628.871094 511.523438 Z M 1628.871094 224.113281 "/></clipPath><clipPath id="9d237848b9"><path d="M 1649.570312 224.113281 L 1682.035156 224.113281 C 1687.523438 224.113281 1692.789062 226.296875 1696.667969 230.179688 C 1700.550781 234.066406 1702.734375 239.335938 1702.734375 244.832031 L 1702.734375 490.71875 C 1702.734375 496.214844 1700.550781 501.484375 1696.667969 505.371094 C 1692.789062 509.253906 1687.523438 511.4375 1682.035156 511.4375 L 1649.570312 511.4375 C 1644.082031 511.4375 1638.816406 509.253906 1634.933594 505.371094 C 1631.050781 501.484375 1628.871094 496.214844 1628.871094 490.71875 L 1628.871094 244.832031 C 1628.871094 239.335938 1631.050781 234.066406 1634.933594 230.179688 C 1638.816406 226.296875 1644.082031 224.113281 1649.570312 224.113281 Z M 1649.570312 224.113281 "/></clipPath><clipPath id="90b39b3fcd"><path d="M 1728.058594 102.808594 L 1801.960938 102.808594 L 1801.960938 511.558594 L 1728.058594 511.558594 Z M 1728.058594 102.808594 "/></clipPath><clipPath id="0340d6767e"><path d="M 1748.757812 102.808594 L 1781.21875 102.808594 C 1786.710938 102.808594 1791.976562 104.992188 1795.855469 108.875 C 1799.738281 112.761719 1801.917969 118.03125 1801.917969 123.527344 L 1801.917969 490.714844 C 1801.917969 496.210938 1799.738281 501.480469 1795.855469 505.367188 C 1791.976562 509.253906 1786.710938 511.4375 1781.21875 511.4375 L 1748.757812 511.4375 C 1743.265625 511.4375 1738 509.253906 1734.121094 505.367188 C 1730.238281 501.480469 1728.058594 496.210938 1728.058594 490.714844 L 1728.058594 123.527344 C 1728.058594 118.03125 1730.238281 112.761719 1734.121094 108.875 C 1738 104.992188 1743.265625 102.808594 1748.757812 102.808594 Z M 1748.757812 102.808594 "/></clipPath><clipPath id="9e5dde01ab"><path d="M 1447.160156 343.757812 L 1486.488281 343.757812 L 1486.488281 383.125 L 1447.160156 383.125 Z M 1447.160156 343.757812 "/></clipPath><clipPath id="cad987a37d"><path d="M 1466.824219 343.757812 C 1455.960938 343.757812 1447.160156 352.570312 1447.160156 363.441406 C 1447.160156 374.308594 1455.960938 383.125 1466.824219 383.125 C 1477.683594 383.125 1486.488281 374.308594 1486.488281 363.441406 C 1486.488281 352.570312 1477.683594 343.757812 1466.824219 343.757812 Z M 1466.824219 343.757812 "/></clipPath><clipPath id="73eeb6f24a"><path d="M 1546.65625 269.640625 L 1585.984375 269.640625 L 1585.984375 309.007812 L 1546.65625 309.007812 Z M 1546.65625 269.640625 "/></clipPath><clipPath id="d1d64bc3a5"><path d="M 1566.320312 269.640625 C 1555.460938 269.640625 1546.65625 278.453125 1546.65625 289.324219 C 1546.65625 300.195312 1555.460938 309.007812 1566.320312 309.007812 C 1577.179688 309.007812 1585.984375 300.195312 1585.984375 289.324219 C 1585.984375 278.453125 1577.179688 269.640625 1566.320312 269.640625 Z M 1566.320312 269.640625 "/></clipPath><clipPath id="52ee969ab8"><path d="M 1646.046875 364.140625 L 1685.375 364.140625 L 1685.375 403.507812 L 1646.046875 403.507812 Z M 1646.046875 364.140625 "/></clipPath><clipPath id="9addd566dd"><path d="M 1665.710938 364.140625 C 1654.851562 364.140625 1646.046875 372.953125 1646.046875 383.824219 C 1646.046875 394.695312 1654.851562 403.507812 1665.710938 403.507812 C 1676.570312 403.507812 1685.375 394.695312 1685.375 383.824219 C 1685.375 372.953125 1676.570312 364.140625 1665.710938 364.140625 Z M 1665.710938 364.140625 "/></clipPath><clipPath id="db4aa634db"><path d="M 1745.324219 224.113281 L 1784.652344 224.113281 L 1784.652344 263.480469 L 1745.324219 263.480469 Z M 1745.324219 224.113281 "/></clipPath><clipPath id="2e92932a82"><path d="M 1764.988281 224.113281 C 1754.128906 224.113281 1745.324219 232.921875 1745.324219 243.796875 C 1745.324219 254.667969 1754.128906 263.480469 1764.988281 263.480469 C 1775.847656 263.480469 1784.652344 254.667969 1784.652344 243.796875 C 1784.652344 232.921875 1775.847656 224.113281 1764.988281 224.113281 Z M 1764.988281 224.113281 "/></clipPath></defs><g id="e695d50e9f"><path style=" stroke:none;fill-rule:nonzero;fill:#fcf8f5;fill-opacity:1;" d="M 48.496094 102.308594 C 43.226562 103.65625 40.023438 106.441406 37.753906 111.722656 L 35.582031 116.777344 L 35.785156 306.707031 C 36.09375 496.121094 36.09375 496.644531 38.269531 500.253906 C 39.40625 502.222656 42.402344 505.007812 44.984375 506.453125 L 49.535156 509.042969 L 297.535156 509.042969 L 302.292969 506.871094 C 306.007812 505.113281 307.558594 503.5625 309.316406 500.050781 C 311.382812 495.605469 311.488281 494.160156 311.488281 459.230469 C 311.488281 423.578125 311.488281 423.066406 309.113281 418.621094 C 307.558594 415.730469 305.289062 413.351562 302.707031 412.011719 C 298.671875 409.839844 297.023438 409.839844 223.65625 409.324219 L 148.738281 408.800781 L 148.214844 260.519531 L 147.699219 112.234375 L 145.324219 108.820312 C 140.257812 101.792969 140.988281 101.902344 93.964844 101.699219 C 70.609375 101.589844 50.15625 101.902344 48.496094 102.308594 Z M 48.496094 102.308594 "/><path style=" stroke:none;fill-rule:nonzero;fill:#fcf8f5;fill-opacity:1;" d="M 355.09375 102.414062 C 350.449219 103.453125 345.800781 108.199219 344.558594 112.855469 C 343.832031 115.332031 343.625 183.535156 343.734375 307.851562 C 344.042969 499.019531 344.042969 499.117188 346.207031 502.007812 C 347.34375 503.5625 350.339844 505.941406 352.824219 507.289062 C 357.367188 509.558594 357.890625 509.558594 399.835938 509.558594 C 441.792969 509.558594 442.308594 509.558594 446.859375 507.179688 C 449.34375 505.941406 452.332031 503.5625 453.476562 502.007812 L 455.640625 499.117188 L 455.640625 306.191406 C 455.640625 145.304688 455.433594 112.75 454.195312 109.953125 C 453.476562 108.101562 451.097656 105.519531 449.03125 104.277344 C 445.304688 101.902344 444.996094 101.902344 401.902344 101.699219 C 378.035156 101.589844 356.957031 101.902344 355.09375 102.414062 Z M 355.09375 102.414062 "/><path style=" stroke:none;fill-rule:nonzero;fill:#fcf8f5;fill-opacity:1;" d="M 499.769531 102.414062 C 497.90625 102.832031 495.113281 104.277344 493.664062 105.617188 C 488.289062 110.683594 487.882812 113.058594 487.367188 143.75 C 486.746094 186.019531 487.882812 192.9375 496.558594 198 C 499.867188 199.960938 502.445312 200.066406 548.644531 200.582031 L 597.207031 201.105469 L 597.730469 348.875 C 598.140625 456.648438 598.554688 497.363281 599.382812 499.226562 C 601.136719 503.046875 604.960938 506.144531 610.027344 508.007812 C 613.742188 509.25 621.078125 509.558594 653.429688 509.558594 C 696.207031 509.558594 700.234375 509.140625 705.503906 503.5625 C 711.597656 497.15625 711.394531 503.871094 711.394531 345.460938 L 711.394531 200.582031 L 758.726562 200.582031 C 802.332031 200.582031 806.261719 200.378906 810.085938 198.621094 C 812.355469 197.582031 815.042969 195.730469 816.070312 194.59375 C 820.417969 189.734375 820.824219 186.113281 820.933594 151.707031 C 820.933594 111.925781 820.515625 109.34375 812.152344 103.863281 C 809.25 101.902344 805.222656 101.902344 656.117188 101.699219 C 572 101.699219 501.621094 101.902344 499.769531 102.414062 Z M 499.769531 102.414062 "/><path style=" stroke:none;fill-rule:nonzero;fill:#fcf8f5;fill-opacity:1;" d="M 863.605469 102.523438 C 859.582031 103.753906 855.445312 108.507812 854 113.679688 C 853.273438 116.464844 853.070312 178.984375 853.175781 307.636719 C 853.476562 496.226562 853.476562 497.671875 855.542969 501.292969 C 856.785156 503.457031 859.582031 505.832031 862.269531 507.179688 C 866.808594 509.558594 867.332031 509.558594 908.765625 509.558594 C 955.679688 509.558594 958.261719 509.25 962.707031 503.046875 L 965.082031 499.738281 L 965.082031 305.878906 C 965.082031 91.976562 965.597656 108.722656 958.472656 104.171875 C 954.75 101.902344 954.234375 101.902344 910.832031 101.699219 C 885.925781 101.589844 865.46875 101.902344 863.605469 102.523438 Z M 863.605469 102.523438 "/><path style=" stroke:none;fill-rule:nonzero;fill:#fcf8f5;fill-opacity:1;" d="M 1004.867188 102.523438 C 1000.21875 104.480469 998.664062 106.550781 998.664062 111.410156 C 998.664062 115.953125 1000.730469 120.8125 1006.726562 130.011719 C 1008.28125 132.484375 1013.132812 140.132812 1017.578125 147.058594 C 1022.019531 154.085938 1030.703125 167.621094 1036.90625 177.332031 C 1043.105469 186.941406 1051.46875 200.273438 1055.601562 206.78125 C 1059.738281 213.292969 1065.113281 221.667969 1067.488281 225.382812 C 1069.867188 229.109375 1081.644531 247.601562 1093.628906 266.515625 C 1118.539062 305.785156 1116.78125 299.582031 1107.378906 314.050781 C 1104.691406 318.078125 1094.25 334.40625 1084.226562 350.214844 C 1074.105469 365.921875 1057.046875 392.578125 1046.199219 409.324219 C 1035.460938 426.0625 1025.640625 441.460938 1024.503906 443.421875 C 1023.367188 445.382812 1016.128906 456.753906 1008.484375 468.640625 C 1000.730469 480.625 994.015625 492.09375 993.300781 494.265625 C 991.4375 500.46875 993.085938 504.386719 998.664062 507.289062 L 1003.324219 509.65625 L 1052.914062 509.355469 C 1102.109375 509.042969 1102.625 508.9375 1108.515625 506.558594 C 1115.230469 503.871094 1119.78125 499.847656 1124.941406 491.78125 C 1126.910156 488.785156 1140.03125 465.738281 1154.1875 440.628906 C 1168.238281 415.417969 1180.121094 394.859375 1180.636719 394.859375 C 1181.78125 394.859375 1183.847656 398.058594 1200.375 426.886719 C 1243.988281 502.535156 1243.464844 501.699219 1250.597656 505.320312 C 1258.242188 509.140625 1263.929688 509.558594 1314.460938 509.558594 C 1360.757812 509.558594 1363.753906 509.453125 1367.363281 507.589844 C 1371.402344 505.523438 1373.777344 501.914062 1373.777344 497.875 C 1373.671875 493.957031 1370.363281 487.851562 1355.585938 465.429688 C 1347.734375 453.339844 1335.644531 434.84375 1328.824219 424.308594 C 1322.003906 413.769531 1310.328125 395.789062 1302.78125 384.214844 C 1295.347656 372.746094 1285.730469 357.96875 1281.492188 351.457031 C 1277.261719 344.945312 1268.789062 331.921875 1262.589844 322.519531 C 1256.488281 313.117188 1251.015625 304.230469 1250.5 302.785156 C 1249.566406 300.40625 1251.527344 296.992188 1270.953125 266.613281 C 1292.863281 232.621094 1297.929688 224.664062 1305.980469 212.15625 C 1308.464844 208.335938 1318.488281 192.625 1328.308594 177.332031 C 1345.871094 149.953125 1349.492188 144.265625 1360.242188 127.730469 C 1368.808594 114.503906 1369.332031 108.414062 1362.40625 103.65625 L 1358.894531 101.28125 L 1306.601562 101.589844 L 1254.417969 101.902344 L 1249.355469 104.480469 C 1241.300781 108.617188 1241.816406 107.792969 1211.851562 159.769531 C 1205.234375 171.132812 1197.277344 184.882812 1194.183594 190.25 C 1191.078125 195.625 1187.457031 201.929688 1186.214844 204.203125 C 1184.878906 206.472656 1183.226562 208.335938 1182.5 208.335938 C 1181.78125 208.335938 1178.882812 204.40625 1176.097656 199.554688 C 1173.203125 194.691406 1167.410156 184.667969 1163.074219 177.332031 C 1158.738281 169.890625 1149.121094 153.464844 1141.785156 140.753906 C 1126.910156 115.125 1121.320312 108.101562 1113.160156 104.375 L 1107.6875 101.902344 L 1057.574219 101.699219 C 1025.328125 101.484375 1006.523438 101.792969 1004.867188 102.523438 Z M 1004.867188 102.523438 "/><g clip-rule="nonzero" clip-path="url(#38ddc56987)"><path style=" stroke:none;fill-rule:nonzero;fill:#fcf8f5;fill-opacity:1;" d="M 1491.699219 462.632812 C 1484.175781 462.632812 1479.480469 460.585938 1477.601562 456.484375 C 1475.71875 452.386719 1476.828125 447.265625 1480.929688 441.121094 L 1586.476562 277.136719 L 1486.058594 119.332031 C 1482.296875 113.53125 1481.273438 108.671875 1482.972656 104.746094 C 1484.6875 100.808594 1489.128906 98.839844 1496.292969 98.839844 L 1557.28125 98.839844 C 1570.261719 98.839844 1579.390625 99.871094 1584.679688 101.925781 C 1589.976562 103.96875 1595.015625 108.921875 1599.796875 116.777344 L 1645.910156 196.191406 L 1691.511719 116.777344 C 1696.289062 108.238281 1701.160156 103.117188 1706.121094 101.414062 C 1711.078125 99.703125 1719.355469 98.839844 1730.964844 98.839844 L 1796.570312 98.839844 C 1803.730469 98.839844 1808.164062 100.808594 1809.867188 104.746094 C 1811.582031 108.671875 1810.558594 113.53125 1806.804688 119.332031 L 1705.34375 277.136719 L 1811.933594 441.121094 C 1816.03125 446.582031 1817.222656 451.535156 1815.507812 455.972656 C 1813.804688 460.414062 1809.023438 462.632812 1801.164062 462.632812 L 1735.582031 462.632812 C 1726.699219 462.632812 1719.78125 462.292969 1714.824219 461.613281 C 1709.875 460.929688 1705.867188 459.222656 1702.789062 456.484375 C 1699.710938 453.75 1696.46875 449.476562 1693.066406 443.671875 L 1644.378906 359.128906 L 1596.734375 443.671875 C 1593.652344 448.796875 1590.664062 452.726562 1587.765625 455.460938 C 1584.859375 458.203125 1580.933594 460.082031 1575.976562 461.101562 C 1571.015625 462.121094 1563.925781 462.632812 1554.707031 462.632812 Z M 1491.699219 462.632812 "/></g><path style=" stroke:none;fill-rule:nonzero;fill:#fcf8f5;fill-opacity:1;" d="M 1838.476562 146.894531 C 1837.652344 146.894531 1837.074219 146.738281 1836.75 146.410156 C 1836.421875 146.085938 1836.265625 145.523438 1836.265625 144.707031 L 1836.265625 108.585938 L 1825.035156 108.585938 C 1824.21875 108.585938 1823.65625 108.433594 1823.332031 108.125 C 1823.003906 107.800781 1822.847656 107.226562 1822.847656 106.398438 L 1822.847656 103.238281 C 1822.847656 102.410156 1823.003906 101.847656 1823.332031 101.535156 C 1823.65625 101.214844 1824.21875 101.050781 1825.035156 101.050781 L 1855.589844 101.050781 C 1856.445312 101.050781 1857.023438 101.214844 1857.316406 101.535156 C 1857.621094 101.847656 1857.777344 102.410156 1857.777344 103.238281 L 1857.777344 106.398438 C 1857.777344 107.226562 1857.621094 107.800781 1857.316406 108.125 C 1857.023438 108.433594 1856.445312 108.585938 1855.589844 108.585938 L 1844.359375 108.585938 L 1844.359375 144.707031 C 1844.359375 145.523438 1844.203125 146.085938 1843.898438 146.410156 C 1843.585938 146.738281 1843.003906 146.894531 1842.148438 146.894531 Z M 1838.476562 146.894531 "/><path style=" stroke:none;fill-rule:nonzero;fill:#fcf8f5;fill-opacity:1;" d="M 1865.347656 146.894531 C 1864.519531 146.894531 1863.945312 146.738281 1863.621094 146.410156 C 1863.3125 146.085938 1863.160156 145.523438 1863.160156 144.707031 L 1863.160156 103.238281 C 1863.160156 102.410156 1863.3125 101.847656 1863.621094 101.535156 C 1863.945312 101.214844 1864.519531 101.050781 1865.347656 101.050781 L 1868.191406 101.050781 C 1869.128906 101.050781 1869.796875 101.160156 1870.183594 101.367188 C 1870.574219 101.578125 1870.9375 102.035156 1871.277344 102.726562 L 1884.792969 126.746094 L 1898.164062 102.777344 C 1898.550781 102.046875 1898.921875 101.578125 1899.28125 101.367188 C 1899.652344 101.160156 1900.265625 101.050781 1901.128906 101.050781 L 1904.289062 101.050781 C 1905.144531 101.050781 1905.734375 101.214844 1906.0625 101.535156 C 1906.386719 101.847656 1906.550781 102.410156 1906.550781 103.238281 L 1906.550781 144.707031 C 1906.550781 145.523438 1906.386719 146.085938 1906.0625 146.410156 C 1905.734375 146.738281 1905.144531 146.894531 1904.289062 146.894531 L 1901.007812 146.894531 C 1900.179688 146.894531 1899.605469 146.738281 1899.28125 146.410156 C 1898.953125 146.085938 1898.796875 145.523438 1898.796875 144.707031 L 1898.796875 124.992188 C 1898.796875 121.382812 1899.3125 117.105469 1900.351562 112.160156 L 1899.960938 112.160156 C 1899.148438 114.558594 1898.308594 116.65625 1897.433594 118.457031 C 1896.570312 120.242188 1895.636719 122.054688 1894.613281 123.898438 L 1888.269531 135.128906 C 1887.976562 135.703125 1887.648438 136.101562 1887.296875 136.347656 C 1886.957031 136.578125 1886.445312 136.6875 1885.765625 136.6875 L 1883.699219 136.6875 C 1883.050781 136.6875 1882.5625 136.589844 1882.242188 136.394531 C 1881.914062 136.199219 1881.5625 135.78125 1881.171875 135.128906 L 1874.707031 123.898438 C 1873.976562 122.65625 1873.34375 121.464844 1872.808594 120.328125 C 1872.273438 119.179688 1871.765625 117.945312 1871.277344 116.632812 C 1870.804688 115.320312 1870.292969 113.804688 1869.746094 112.085938 L 1869.285156 112.085938 C 1869.800781 114.632812 1870.167969 116.925781 1870.378906 118.964844 C 1870.585938 121.007812 1870.695312 123.042969 1870.695312 125.066406 L 1870.695312 144.707031 C 1870.695312 145.523438 1870.53125 146.085938 1870.210938 146.410156 C 1869.898438 146.738281 1869.335938 146.894531 1868.507812 146.894531 Z M 1865.347656 146.894531 "/><g clip-rule="nonzero" clip-path="url(#9e6fce5250)"><g clip-rule="nonzero" clip-path="url(#1d84a53662)"><path style="fill:none;stroke-width:80;stroke-linecap:butt;stroke-linejoin:miter;stroke:#fcf8f5;stroke-opacity:1;stroke-miterlimit:4;" d="M 69.995306 0.000471305 L 179.783943 0.000471305 C 198.344049 0.000471305 216.151182 7.377599 229.281961 20.508623 C 242.41274 33.626451 249.783942 51.429216 249.783942 69.997408 L 249.783942 620.259899 C 249.783942 638.828091 242.41274 656.630856 229.281961 669.76188 C 216.151182 682.892904 198.344049 690.270032 179.783943 690.270032 L 69.995306 690.270032 C 51.435201 690.270032 33.628067 682.892904 20.497288 669.76188 C 7.379719 656.630856 -0.00469278 638.828091 -0.00469278 620.259899 L -0.00469278 69.997408 C -0.00469278 51.429216 7.379719 33.626451 20.497288 20.508623 C 33.628067 7.377599 51.435201 0.000471305 69.995306 0.000471305 Z M 69.995306 0.000471305 " transform="matrix(0.295703,0,0,0.295995,1430.599044,307.12486)"/></g></g><g clip-rule="nonzero" clip-path="url(#f94775d25a)"><g clip-rule="nonzero" clip-path="url(#29f1424a70)"><path style="fill:none;stroke-width:80;stroke-linecap:butt;stroke-linejoin:miter;stroke:#fcf8f5;stroke-opacity:1;stroke-miterlimit:4;" d="M 69.996272 0.00616015 L 179.784909 0.00616015 C 198.345015 0.00616015 216.152148 7.370091 229.282927 20.501115 C 242.400496 33.632139 249.784908 51.434905 249.784908 70.003096 L 249.784908 1137.377193 C 249.784908 1155.945385 242.400496 1173.74815 229.282927 1186.879174 C 216.152148 1199.997001 198.345015 1207.374129 179.784909 1207.374129 L 69.996272 1207.374129 C 51.436167 1207.374129 33.629034 1199.997001 20.498255 1186.879174 C 7.380685 1173.74815 -0.00372652 1155.945385 -0.00372652 1137.377193 L -0.00372652 70.003096 C -0.00372652 51.434905 7.380685 33.632139 20.498255 20.501115 C 33.629034 7.370091 51.436167 0.00616015 69.996272 0.00616015 Z M 69.996272 0.00616015 " transform="matrix(0.295703,0,0,0.295995,1529.684696,154.060677)"/></g></g><g clip-rule="nonzero" clip-path="url(#2537e5fb8b)"><g clip-rule="nonzero" clip-path="url(#9d237848b9)"><path style="fill:none;stroke-width:80;stroke-linecap:butt;stroke-linejoin:miter;stroke:#fcf8f5;stroke-opacity:1;stroke-miterlimit:4;" d="M 69.999411 0.0013825 L 179.788049 0.0013825 C 198.348154 0.0013825 216.155287 7.378511 229.272856 20.496338 C 242.403635 33.627362 249.788047 51.430127 249.788047 69.998319 L 249.788047 900.710451 C 249.788047 919.278643 242.403635 937.081408 229.272856 950.212432 C 216.155287 963.330259 198.348154 970.707387 179.788049 970.707387 L 69.999411 970.707387 C 51.439306 970.707387 33.632173 963.330259 20.501394 950.212432 C 7.370615 937.081408 -0.000587452 919.278643 -0.000587452 900.710451 L -0.000587452 69.998319 C -0.000587452 51.430127 7.370615 33.627362 20.501394 20.496338 C 33.632173 7.378511 51.439306 0.0013825 69.999411 0.0013825 Z M 69.999411 0.0013825 " transform="matrix(0.295703,0,0,0.295995,1628.871267,224.112872)"/></g></g><g clip-rule="nonzero" clip-path="url(#90b39b3fcd)"><g clip-rule="nonzero" clip-path="url(#0340d6767e)"><path style="fill:none;stroke-width:80;stroke-linecap:butt;stroke-linejoin:miter;stroke:#fcf8f5;stroke-opacity:1;stroke-miterlimit:4;" d="M 70.003443 0.000742365 L 179.77887 0.000742365 C 198.352186 0.000742365 216.159319 7.37787 229.276888 20.495698 C 242.407667 33.626722 249.778869 51.429487 249.778869 69.997679 L 249.778869 1310.516534 C 249.778869 1329.084726 242.407667 1346.887492 229.276888 1360.018516 C 216.159319 1373.14954 198.352186 1380.526668 179.77887 1380.526668 L 70.003443 1380.526668 C 51.430128 1380.526668 33.622995 1373.14954 20.505426 1360.018516 C 7.374646 1346.887492 0.0034444 1329.084726 0.0034444 1310.516534 L 0.0034444 69.997679 C 0.0034444 51.429487 7.374646 33.626722 20.505426 20.495698 C 33.622995 7.37787 51.430128 0.000742365 70.003443 0.000742365 Z M 70.003443 0.000742365 " transform="matrix(0.295703,0,0,0.295995,1728.057575,102.808374)"/></g></g><path style="fill:none;stroke-width:59;stroke-linecap:butt;stroke-linejoin:miter;stroke:#fcf8f5;stroke-opacity:1;stroke-miterlimit:4;" d="M 0.00205242 29.506049 L 420.188802 29.504579 " transform="matrix(0.236791,-0.177292,0.177117,0.237025,1461.597707,356.63561)"/><path style="fill:none;stroke-width:59;stroke-linecap:butt;stroke-linejoin:miter;stroke:#fcf8f5;stroke-opacity:1;stroke-miterlimit:4;" d="M 0.000641868 29.49704 L 464.914993 29.504457 " transform="matrix(-0.214298,-0.203957,0.203756,-0.21451,1660.142282,390.292386)"/><path style="fill:none;stroke-width:59;stroke-linecap:butt;stroke-linejoin:miter;stroke:#fcf8f5;stroke-opacity:1;stroke-miterlimit:4;" d="M -0.00105903 29.499889 L 578.060085 29.503714 " transform="matrix(0.171896,-0.240845,0.240608,0.172066,1658.613218,378.521488)"/><g clip-rule="nonzero" clip-path="url(#9e5dde01ab)"><g clip-rule="nonzero" clip-path="url(#cad987a37d)"><path style=" stroke:none;fill-rule:nonzero;fill:#fcf8f5;fill-opacity:1;" d="M 1447.160156 343.757812 L 1486.488281 343.757812 L 1486.488281 383.125 L 1447.160156 383.125 Z M 1447.160156 343.757812 "/></g></g><g clip-rule="nonzero" clip-path="url(#73eeb6f24a)"><g clip-rule="nonzero" clip-path="url(#d1d64bc3a5)"><path style=" stroke:none;fill-rule:nonzero;fill:#fcf8f5;fill-opacity:1;" d="M 1546.65625 269.640625 L 1585.984375 269.640625 L 1585.984375 309.007812 L 1546.65625 309.007812 Z M 1546.65625 269.640625 "/></g></g><g clip-rule="nonzero" clip-path="url(#52ee969ab8)"><g clip-rule="nonzero" clip-path="url(#9addd566dd)"><path style=" stroke:none;fill-rule:nonzero;fill:#fcf8f5;fill-opacity:1;" d="M 1646.046875 364.140625 L 1685.375 364.140625 L 1685.375 403.507812 L 1646.046875 403.507812 Z M 1646.046875 364.140625 "/></g></g><g clip-rule="nonzero" clip-path="url(#db4aa634db)"><g clip-rule="nonzero" clip-path="url(#2e92932a82)"><path style=" stroke:none;fill-rule:nonzero;fill:#fcf8f5;fill-opacity:1;" d="M 1745.324219 224.113281 L 1784.652344 224.113281 L 1784.652344 263.480469 L 1745.324219 263.480469 Z M 1745.324219 224.113281 "/></g></g></g></svg>