<svg xmlns="http://www.w3.org/2000/svg" xmlns:xlink="http://www.w3.org/1999/xlink" width="1700" zoomAndPan="magnify" viewBox="0 0 1275 1439.999935" height="1920" preserveAspectRatio="xMidYMid meet" version="1.2"><defs><clipPath id="5123564ddf"><path d="M 193.8125 485.167969 L 355.382812 485.167969 L 355.382812 931.691406 L 193.8125 931.691406 Z M 193.8125 485.167969 "/></clipPath><clipPath id="6ba9afd447"><path d="M 239.089844 485.167969 L 310.101562 485.167969 C 322.113281 485.167969 333.628906 489.9375 342.121094 498.421875 C 350.613281 506.910156 355.382812 518.421875 355.382812 530.425781 L 355.382812 886.179688 C 355.382812 898.1875 350.613281 909.695312 342.121094 918.183594 C 333.628906 926.667969 322.113281 931.4375 310.101562 931.4375 L 239.089844 931.4375 C 227.082031 931.4375 215.566406 926.667969 207.074219 918.183594 C 198.582031 909.695312 193.8125 898.1875 193.8125 886.179688 L 193.8125 530.425781 C 193.8125 518.421875 198.582031 506.910156 207.074219 498.421875 C 215.566406 489.9375 227.082031 485.167969 239.089844 485.167969 Z M 239.089844 485.167969 "/></clipPath><clipPath id="6f409ce446"><path d="M 410.558594 150.839844 L 572.132812 150.839844 L 572.132812 931.691406 L 410.558594 931.691406 Z M 410.558594 150.839844 "/></clipPath><clipPath id="1b6673c856"><path d="M 455.839844 150.839844 L 526.851562 150.839844 C 538.859375 150.839844 550.378906 155.609375 558.867188 164.097656 C 567.363281 172.582031 572.132812 184.097656 572.132812 196.097656 L 572.132812 886.179688 C 572.132812 898.1875 567.363281 909.695312 558.867188 918.183594 C 550.378906 926.667969 538.859375 931.4375 526.851562 931.4375 L 455.839844 931.4375 C 443.832031 931.4375 432.3125 926.667969 423.824219 918.183594 C 415.328125 909.695312 410.558594 898.1875 410.558594 886.179688 L 410.558594 196.097656 C 410.558594 184.097656 415.328125 172.582031 423.824219 164.097656 C 432.3125 155.609375 443.832031 150.839844 455.839844 150.839844 Z M 455.839844 150.839844 "/></clipPath><clipPath id="68295a8c49"><path d="M 627.527344 303.851562 L 789.101562 303.851562 L 789.101562 931.515625 L 627.527344 931.515625 Z M 627.527344 303.851562 "/></clipPath><clipPath id="fabab58c4e"><path d="M 672.808594 303.851562 L 743.820312 303.851562 C 755.828125 303.851562 767.347656 308.621094 775.835938 317.109375 C 784.332031 325.59375 789.101562 337.109375 789.101562 349.109375 L 789.101562 886.179688 C 789.101562 898.1875 784.332031 909.695312 775.835938 918.183594 C 767.347656 926.667969 755.828125 931.4375 743.820312 931.4375 L 672.808594 931.4375 C 660.796875 931.4375 649.28125 926.667969 640.789062 918.183594 C 632.296875 909.695312 627.527344 898.1875 627.527344 886.179688 L 627.527344 349.109375 C 627.527344 337.109375 632.296875 325.59375 640.789062 317.109375 C 649.28125 308.621094 660.796875 303.851562 672.808594 303.851562 Z M 672.808594 303.851562 "/></clipPath><clipPath id="27bff97368"><path d="M 844.496094 38.902344 L 1006.066406 38.902344 L 1006.066406 931.503906 L 844.496094 931.503906 Z M 844.496094 38.902344 "/></clipPath><clipPath id="c600fbefb8"><path d="M 889.777344 38.902344 L 960.789062 38.902344 C 972.796875 38.902344 984.3125 43.667969 992.804688 52.152344 C 1001.296875 60.644531 1006.066406 72.152344 1006.066406 84.15625 L 1006.066406 886.179688 C 1006.066406 898.1875 1001.296875 909.695312 992.804688 918.183594 C 984.3125 926.667969 972.796875 931.4375 960.789062 931.4375 L 889.777344 931.4375 C 877.765625 931.4375 866.246094 926.667969 857.757812 918.183594 C 849.265625 909.695312 844.496094 898.1875 844.496094 886.179688 L 844.496094 84.15625 C 844.496094 72.152344 849.265625 60.644531 857.757812 52.152344 C 866.246094 43.667969 877.765625 38.902344 889.777344 38.902344 Z M 889.777344 38.902344 "/></clipPath><clipPath id="82391b8ac3"><path d="M 160.339844 230 L 707 230 L 707 825 L 160.339844 825 Z M 160.339844 230 "/></clipPath><clipPath id="7c7d94b7c6"><path d="M 492 132 L 1033.28125 132 L 1033.28125 868 L 492 868 Z M 492 132 "/></clipPath><clipPath id="37372c8d45"><path d="M 230.035156 565.179688 L 316.066406 565.179688 L 316.066406 651.167969 L 230.035156 651.167969 Z M 230.035156 565.179688 "/></clipPath><clipPath id="8c564244a8"><path d="M 273.050781 565.179688 C 249.292969 565.179688 230.035156 584.429688 230.035156 608.175781 C 230.035156 631.917969 249.292969 651.167969 273.050781 651.167969 C 296.804688 651.167969 316.066406 631.917969 316.066406 608.175781 C 316.066406 584.429688 296.804688 565.179688 273.050781 565.179688 Z M 273.050781 565.179688 "/></clipPath><clipPath id="caccbd693e"><path d="M 447.683594 403.296875 L 533.710938 403.296875 L 533.710938 489.285156 L 447.683594 489.285156 Z M 447.683594 403.296875 "/></clipPath><clipPath id="46bb01359e"><path d="M 490.695312 403.296875 C 466.941406 403.296875 447.683594 422.542969 447.683594 446.289062 C 447.683594 470.03125 466.941406 489.285156 490.695312 489.285156 C 514.457031 489.285156 533.710938 470.03125 533.710938 446.289062 C 533.710938 422.542969 514.457031 403.296875 490.695312 403.296875 Z M 490.695312 403.296875 "/></clipPath><clipPath id="b0e2be210e"><path d="M 665.097656 609.703125 L 751.128906 609.703125 L 751.128906 695.6875 L 665.097656 695.6875 Z M 665.097656 609.703125 "/></clipPath><clipPath id="c3a82694c2"><path d="M 708.113281 609.703125 C 684.355469 609.703125 665.097656 628.949219 665.097656 652.695312 C 665.097656 676.4375 684.355469 695.6875 708.113281 695.6875 C 731.871094 695.6875 751.128906 676.4375 751.128906 652.695312 C 751.128906 628.949219 731.871094 609.703125 708.113281 609.703125 Z M 708.113281 609.703125 "/></clipPath><clipPath id="b6b4d26b1d"><path d="M 882.265625 303.851562 L 968.296875 303.851562 L 968.296875 389.839844 L 882.265625 389.839844 Z M 882.265625 303.851562 "/></clipPath><clipPath id="f34b20f274"><path d="M 925.28125 303.851562 C 901.523438 303.851562 882.265625 323.101562 882.265625 346.84375 C 882.265625 370.589844 901.523438 389.839844 925.28125 389.839844 C 949.035156 389.839844 968.296875 370.589844 968.296875 346.84375 C 968.296875 323.101562 949.035156 303.851562 925.28125 303.851562 Z M 925.28125 303.851562 "/></clipPath></defs><g id="3bf993af89"><path style=" stroke:none;fill-rule:nonzero;fill:#4e1053;fill-opacity:1;" d="M 75.261719 1357.644531 C 67.457031 1357.644531 62.09375 1356.109375 59.171875 1353.027344 C 56.246094 1349.9375 54.785156 1344.664062 54.785156 1337.195312 L 54.785156 1032.3125 C 54.785156 1024.851562 56.246094 1019.582031 59.171875 1016.503906 C 62.09375 1013.410156 67.457031 1011.863281 75.261719 1011.863281 L 130.292969 1011.863281 C 138.09375 1011.863281 143.457031 1013.410156 146.382812 1016.503906 C 149.300781 1019.582031 150.769531 1024.851562 150.769531 1032.3125 L 150.769531 1272.417969 L 268.171875 1272.417969 C 275.632812 1272.417969 280.902344 1273.882812 283.984375 1276.800781 C 287.078125 1279.726562 288.625 1285.082031 288.625 1292.863281 L 288.625 1337.195312 C 288.625 1344.664062 287.078125 1349.9375 283.984375 1353.027344 C 280.902344 1356.109375 275.632812 1357.644531 268.171875 1357.644531 Z M 75.261719 1357.644531 "/><path style=" stroke:none;fill-rule:nonzero;fill:#4e1053;fill-opacity:1;" d="M 332.960938 1357.644531 C 325.804688 1357.644531 320.757812 1356.183594 317.839844 1353.257812 C 314.914062 1350.339844 313.453125 1345.308594 313.453125 1338.164062 L 313.453125 1031.339844 C 313.453125 1023.882812 314.914062 1018.777344 317.839844 1016.019531 C 320.757812 1013.25 325.804688 1011.863281 332.960938 1011.863281 L 389.953125 1011.863281 C 397.414062 1011.863281 402.523438 1013.25 405.28125 1016.019531 C 408.050781 1018.777344 409.433594 1023.882812 409.433594 1031.339844 L 409.433594 1338.164062 C 409.433594 1345.308594 408.050781 1350.339844 405.28125 1353.257812 C 402.523438 1356.183594 397.414062 1357.644531 389.953125 1357.644531 Z M 332.960938 1357.644531 "/><path style=" stroke:none;fill-rule:nonzero;fill:#4e1053;fill-opacity:1;" d="M 548.253906 1357.644531 C 540.460938 1357.644531 535.105469 1356.109375 532.1875 1353.027344 C 529.261719 1349.9375 527.800781 1344.664062 527.800781 1337.195312 L 527.800781 1096.605469 L 455.226562 1096.605469 C 447.421875 1096.605469 442.054688 1095.148438 439.136719 1092.222656 C 436.210938 1089.300781 434.75 1083.9375 434.75 1076.136719 L 434.75 1032.3125 C 434.75 1024.851562 436.210938 1019.582031 439.136719 1016.503906 C 442.054688 1013.410156 447.421875 1011.863281 455.226562 1011.863281 L 696.355469 1011.863281 C 704.140625 1011.863281 709.496094 1013.410156 712.421875 1016.503906 C 715.34375 1019.582031 716.808594 1024.851562 716.808594 1032.3125 L 716.808594 1076.136719 C 716.808594 1083.9375 715.34375 1089.300781 712.421875 1092.222656 C 709.496094 1095.148438 704.140625 1096.605469 696.355469 1096.605469 L 623.757812 1096.605469 L 623.757812 1337.195312 C 623.757812 1344.664062 622.292969 1349.9375 619.371094 1353.027344 C 616.464844 1356.109375 611.109375 1357.644531 603.308594 1357.644531 Z M 548.253906 1357.644531 "/><path style=" stroke:none;fill-rule:nonzero;fill:#4e1053;fill-opacity:1;" d="M 761.636719 1357.644531 C 754.480469 1357.644531 749.4375 1356.183594 746.515625 1353.257812 C 743.589844 1350.339844 742.128906 1345.308594 742.128906 1338.164062 L 742.128906 1031.339844 C 742.128906 1023.882812 743.589844 1018.777344 746.515625 1016.019531 C 749.4375 1013.25 754.480469 1011.863281 761.636719 1011.863281 L 818.628906 1011.863281 C 826.089844 1011.863281 831.199219 1013.25 833.957031 1016.019531 C 836.726562 1018.777344 838.113281 1023.882812 838.113281 1031.339844 L 838.113281 1338.164062 C 838.113281 1345.308594 836.726562 1350.339844 833.957031 1353.257812 C 831.199219 1356.183594 826.089844 1357.644531 818.628906 1357.644531 Z M 761.636719 1357.644531 "/><path style=" stroke:none;fill-rule:nonzero;fill:#4e1053;fill-opacity:1;" d="M 872.199219 1357.644531 C 865.054688 1357.644531 860.59375 1355.699219 858.808594 1351.804688 C 857.019531 1347.917969 858.078125 1343.046875 861.972656 1337.195312 L 962.316406 1181.351562 L 866.84375 1031.339844 C 863.269531 1025.820312 862.296875 1021.199219 863.910156 1017.472656 C 865.539062 1013.734375 869.761719 1011.863281 876.585938 1011.863281 L 934.546875 1011.863281 C 946.886719 1011.863281 955.578125 1012.84375 960.609375 1014.792969 C 965.652344 1016.734375 970.449219 1021.433594 974.988281 1028.894531 L 1018.824219 1104.382812 L 1062.175781 1028.894531 C 1066.730469 1020.789062 1071.363281 1015.925781 1076.074219 1014.308594 C 1080.78125 1012.683594 1088.652344 1011.863281 1099.6875 1011.863281 L 1162.058594 1011.863281 C 1168.875 1011.863281 1173.09375 1013.734375 1174.710938 1017.472656 C 1176.335938 1021.199219 1175.367188 1025.820312 1171.800781 1031.339844 L 1075.335938 1181.351562 L 1176.671875 1337.195312 C 1180.5625 1342.382812 1181.691406 1347.089844 1180.066406 1351.320312 C 1178.449219 1355.539062 1173.90625 1357.644531 1166.445312 1357.644531 L 1104.074219 1357.644531 C 1095.636719 1357.644531 1089.070312 1357.320312 1084.359375 1356.675781 C 1079.652344 1356.027344 1075.832031 1354.40625 1072.910156 1351.804688 C 1069.984375 1349.207031 1066.898438 1345.148438 1063.65625 1339.621094 L 1017.371094 1259.261719 L 972.058594 1339.621094 C 969.132812 1344.5 966.292969 1348.238281 963.539062 1350.835938 C 960.78125 1353.421875 957.054688 1355.210938 952.34375 1356.191406 C 947.636719 1357.160156 940.894531 1357.644531 932.125 1357.644531 Z M 872.199219 1357.644531 "/><path style=" stroke:none;fill-rule:nonzero;fill:#4e1053;fill-opacity:1;" d="M 1201.898438 1057.546875 C 1201.117188 1057.546875 1200.566406 1057.394531 1200.261719 1057.085938 C 1199.949219 1056.777344 1199.800781 1056.242188 1199.800781 1055.46875 L 1199.800781 1021.152344 L 1189.113281 1021.152344 C 1188.339844 1021.152344 1187.800781 1021 1187.496094 1020.691406 C 1187.183594 1020.382812 1187.035156 1019.835938 1187.035156 1019.050781 L 1187.035156 1016.050781 C 1187.035156 1015.265625 1187.183594 1014.722656 1187.496094 1014.414062 C 1187.800781 1014.105469 1188.339844 1013.953125 1189.113281 1013.953125 L 1218.152344 1013.953125 C 1218.980469 1013.953125 1219.535156 1014.105469 1219.8125 1014.414062 C 1220.101562 1014.722656 1220.25 1015.265625 1220.25 1016.050781 L 1220.25 1019.050781 C 1220.25 1019.835938 1220.101562 1020.382812 1219.8125 1020.691406 C 1219.535156 1021 1218.980469 1021.152344 1218.152344 1021.152344 L 1207.488281 1021.152344 L 1207.488281 1055.46875 C 1207.488281 1056.242188 1207.335938 1056.777344 1207.046875 1057.085938 C 1206.753906 1057.394531 1206.199219 1057.546875 1205.386719 1057.546875 Z M 1201.898438 1057.546875 "/><path style=" stroke:none;fill-rule:nonzero;fill:#4e1053;fill-opacity:1;" d="M 1227.433594 1057.546875 C 1226.660156 1057.546875 1226.125 1057.394531 1225.816406 1057.085938 C 1225.503906 1056.777344 1225.355469 1056.242188 1225.355469 1055.46875 L 1225.355469 1016.050781 C 1225.355469 1015.265625 1225.503906 1014.722656 1225.816406 1014.414062 C 1226.125 1014.105469 1226.660156 1013.953125 1227.433594 1013.953125 L 1230.132812 1013.953125 C 1231.039062 1013.953125 1231.679688 1014.0625 1232.050781 1014.273438 C 1232.417969 1014.476562 1232.765625 1014.910156 1233.089844 1015.566406 L 1245.921875 1038.390625 L 1258.640625 1015.613281 C 1258.996094 1014.921875 1259.347656 1014.476562 1259.703125 1014.273438 C 1260.054688 1014.0625 1260.640625 1013.953125 1261.457031 1013.953125 L 1264.460938 1013.953125 C 1265.273438 1013.953125 1265.832031 1014.105469 1266.144531 1014.414062 C 1266.449219 1014.722656 1266.605469 1015.265625 1266.605469 1016.050781 L 1266.605469 1055.46875 C 1266.605469 1056.242188 1266.449219 1056.777344 1266.144531 1057.085938 C 1265.832031 1057.394531 1265.273438 1057.546875 1264.460938 1057.546875 L 1261.34375 1057.546875 C 1260.558594 1057.546875 1260.011719 1057.394531 1259.703125 1057.085938 C 1259.394531 1056.777344 1259.242188 1056.242188 1259.242188 1055.46875 L 1259.242188 1036.730469 C 1259.242188 1033.300781 1259.734375 1029.230469 1260.71875 1024.519531 L 1260.351562 1024.519531 C 1259.566406 1026.816406 1258.761719 1028.8125 1257.949219 1030.523438 C 1257.128906 1032.21875 1256.230469 1033.9375 1255.25 1035.691406 L 1249.246094 1046.375 C 1248.953125 1046.902344 1248.636719 1047.277344 1248.300781 1047.507812 C 1247.976562 1047.738281 1247.492188 1047.851562 1246.847656 1047.851562 L 1244.882812 1047.851562 C 1244.265625 1047.851562 1243.804688 1047.761719 1243.5 1047.578125 C 1243.1875 1047.390625 1242.851562 1046.992188 1242.484375 1046.375 L 1236.34375 1035.691406 C 1235.652344 1034.507812 1235.039062 1033.378906 1234.519531 1032.296875 C 1234.011719 1031.207031 1233.53125 1030.035156 1233.089844 1028.789062 C 1232.640625 1027.542969 1232.148438 1026.101562 1231.613281 1024.453125 L 1231.195312 1024.453125 C 1231.667969 1026.871094 1232.007812 1029.054688 1232.210938 1031.007812 C 1232.425781 1032.945312 1232.535156 1034.878906 1232.535156 1036.796875 L 1232.535156 1055.46875 C 1232.535156 1056.242188 1232.378906 1056.777344 1232.074219 1057.085938 C 1231.761719 1057.394531 1231.226562 1057.546875 1230.457031 1057.546875 Z M 1227.433594 1057.546875 "/><g clip-rule="nonzero" clip-path="url(#5123564ddf)"><g clip-rule="nonzero" clip-path="url(#6ba9afd447)"><path style=" stroke:none;fill-rule:nonzero;fill:#dc9542;fill-opacity:1;" d="M 193.8125 485.167969 L 355.382812 485.167969 L 355.382812 931.15625 L 193.8125 931.15625 Z M 193.8125 485.167969 "/></g></g><g clip-rule="nonzero" clip-path="url(#6f409ce446)"><g clip-rule="nonzero" clip-path="url(#1b6673c856)"><path style=" stroke:none;fill-rule:nonzero;fill:#dc9542;fill-opacity:1;" d="M 410.558594 150.839844 L 572.132812 150.839844 L 572.132812 931.164062 L 410.558594 931.164062 Z M 410.558594 150.839844 "/></g></g><g clip-rule="nonzero" clip-path="url(#68295a8c49)"><g clip-rule="nonzero" clip-path="url(#fabab58c4e)"><path style=" stroke:none;fill-rule:nonzero;fill:#dc9542;fill-opacity:1;" d="M 627.527344 303.851562 L 789.101562 303.851562 L 789.101562 931.515625 L 627.527344 931.515625 Z M 627.527344 303.851562 "/></g></g><g clip-rule="nonzero" clip-path="url(#27bff97368)"><g clip-rule="nonzero" clip-path="url(#c600fbefb8)"><path style=" stroke:none;fill-rule:nonzero;fill:#dc9542;fill-opacity:1;" d="M 844.496094 38.902344 L 1006.066406 38.902344 L 1006.066406 931.503906 L 844.496094 931.503906 Z M 844.496094 38.902344 "/></g></g><g clip-rule="nonzero" clip-path="url(#82391b8ac3)"><path style="fill:none;stroke-width:59;stroke-linecap:butt;stroke-linejoin:miter;stroke:#4e0f53;stroke-opacity:1;stroke-miterlimit:4;" d="M -0.00108672 29.503222 L 420.185234 29.50028 " transform="matrix(0.517974,-0.387241,0.387439,0.517709,261.620632,593.31144)"/></g><path style="fill:none;stroke-width:59;stroke-linecap:butt;stroke-linejoin:miter;stroke:#4e0f53;stroke-opacity:1;stroke-miterlimit:4;" d="M -0.0025836 29.50021 L 464.916212 29.499897 " transform="matrix(-0.468773,-0.445483,0.445711,-0.468532,695.93224,666.824562)"/><g clip-rule="nonzero" clip-path="url(#7c7d94b7c6)"><path style="fill:none;stroke-width:59;stroke-linecap:butt;stroke-linejoin:miter;stroke:#4e0f53;stroke-opacity:1;stroke-miterlimit:4;" d="M -0.0027242 29.500756 L 578.06317 29.501033 " transform="matrix(0.376018,-0.526054,0.526324,0.375825,692.587361,641.114564)"/></g><g clip-rule="nonzero" clip-path="url(#37372c8d45)"><g clip-rule="nonzero" clip-path="url(#8c564244a8)"><path style=" stroke:none;fill-rule:nonzero;fill:#4e0f53;fill-opacity:1;" d="M 230.035156 565.179688 L 316.066406 565.179688 L 316.066406 651.167969 L 230.035156 651.167969 Z M 230.035156 565.179688 "/></g></g><g clip-rule="nonzero" clip-path="url(#caccbd693e)"><g clip-rule="nonzero" clip-path="url(#46bb01359e)"><path style=" stroke:none;fill-rule:nonzero;fill:#4e0f53;fill-opacity:1;" d="M 447.683594 403.296875 L 533.710938 403.296875 L 533.710938 489.285156 L 447.683594 489.285156 Z M 447.683594 403.296875 "/></g></g><g clip-rule="nonzero" clip-path="url(#b0e2be210e)"><g clip-rule="nonzero" clip-path="url(#c3a82694c2)"><path style=" stroke:none;fill-rule:nonzero;fill:#4e0f53;fill-opacity:1;" d="M 665.097656 609.703125 L 751.128906 609.703125 L 751.128906 695.6875 L 665.097656 695.6875 Z M 665.097656 609.703125 "/></g></g><g clip-rule="nonzero" clip-path="url(#b6b4d26b1d)"><g clip-rule="nonzero" clip-path="url(#f34b20f274)"><path style=" stroke:none;fill-rule:nonzero;fill:#4e0f53;fill-opacity:1;" d="M 882.265625 303.851562 L 968.296875 303.851562 L 968.296875 389.839844 L 882.265625 389.839844 Z M 882.265625 303.851562 "/></g></g></g></svg>