<svg xmlns="http://www.w3.org/2000/svg" xmlns:xlink="http://www.w3.org/1999/xlink" width="2560" zoomAndPan="magnify" viewBox="0 0 1920 599.999999" height="800" preserveAspectRatio="xMidYMid meet" version="1.2"><defs><clipPath id="ac887924aa"><path d="M 1430.636719 306.84375 L 1504.511719 306.84375 L 1504.511719 511 L 1430.636719 511 Z M 1430.636719 306.84375 "/></clipPath><clipPath id="b607ad3edd"><path d="M 1451.339844 306.84375 L 1483.808594 306.84375 C 1489.300781 306.84375 1494.566406 309.023438 1498.449219 312.902344 C 1502.332031 316.785156 1504.511719 322.046875 1504.511719 327.535156 L 1504.511719 490.191406 C 1504.511719 495.683594 1502.332031 500.945312 1498.449219 504.824219 C 1494.566406 508.703125 1489.300781 510.886719 1483.808594 510.886719 L 1451.339844 510.886719 C 1445.847656 510.886719 1440.585938 508.703125 1436.699219 504.824219 C 1432.820312 500.945312 1430.636719 495.683594 1430.636719 490.191406 L 1430.636719 327.535156 C 1430.636719 322.046875 1432.820312 316.785156 1436.699219 312.902344 C 1440.585938 309.023438 1445.847656 306.84375 1451.339844 306.84375 Z M 1451.339844 306.84375 "/></clipPath><clipPath id="a2afc0a217"><path d="M 1529.742188 153.980469 L 1603.621094 153.980469 L 1603.621094 511 L 1529.742188 511 Z M 1529.742188 153.980469 "/></clipPath><clipPath id="191ed9ddd1"><path d="M 1550.445312 153.980469 L 1582.917969 153.980469 C 1588.40625 153.980469 1593.671875 156.160156 1597.554688 160.042969 C 1601.4375 163.921875 1603.621094 169.1875 1603.621094 174.671875 L 1603.621094 490.191406 C 1603.621094 495.683594 1601.4375 500.945312 1597.554688 504.824219 C 1593.671875 508.703125 1588.40625 510.886719 1582.917969 510.886719 L 1550.445312 510.886719 C 1544.957031 510.886719 1539.6875 508.703125 1535.808594 504.824219 C 1531.921875 500.945312 1529.742188 495.683594 1529.742188 490.191406 L 1529.742188 174.671875 C 1529.742188 169.1875 1531.921875 163.921875 1535.808594 160.042969 C 1539.6875 156.160156 1544.957031 153.980469 1550.445312 153.980469 Z M 1550.445312 153.980469 "/></clipPath><clipPath id="a469ce6fa2"><path d="M 1628.949219 223.941406 L 1702.828125 223.941406 L 1702.828125 510.921875 L 1628.949219 510.921875 Z M 1628.949219 223.941406 "/></clipPath><clipPath id="e92f7365b2"><path d="M 1649.652344 223.941406 L 1682.121094 223.941406 C 1687.613281 223.941406 1692.878906 226.121094 1696.761719 230.003906 C 1700.644531 233.882812 1702.828125 239.144531 1702.828125 244.632812 L 1702.828125 490.191406 C 1702.828125 495.683594 1700.644531 500.945312 1696.761719 504.824219 C 1692.878906 508.703125 1687.613281 510.886719 1682.121094 510.886719 L 1649.652344 510.886719 C 1644.160156 510.886719 1638.894531 508.703125 1635.011719 504.824219 C 1631.128906 500.945312 1628.949219 495.683594 1628.949219 490.191406 L 1628.949219 244.632812 C 1628.949219 239.144531 1631.128906 233.882812 1635.011719 230.003906 C 1638.894531 226.121094 1644.160156 223.941406 1649.652344 223.941406 Z M 1649.652344 223.941406 "/></clipPath><clipPath id="8505e33adb"><path d="M 1728.15625 102.800781 L 1802.03125 102.800781 L 1802.03125 510.914062 L 1728.15625 510.914062 Z M 1728.15625 102.800781 "/></clipPath><clipPath id="dbe13556fd"><path d="M 1748.859375 102.800781 L 1781.328125 102.800781 C 1786.820312 102.800781 1792.085938 104.980469 1795.96875 108.859375 C 1799.851562 112.742188 1802.03125 118.003906 1802.03125 123.492188 L 1802.03125 490.191406 C 1802.03125 495.683594 1799.851562 500.945312 1795.96875 504.824219 C 1792.085938 508.703125 1786.820312 510.886719 1781.328125 510.886719 L 1748.859375 510.886719 C 1743.367188 510.886719 1738.101562 508.703125 1734.21875 504.824219 C 1730.335938 500.945312 1728.15625 495.683594 1728.15625 490.191406 L 1728.15625 123.492188 C 1728.15625 118.003906 1730.335938 112.742188 1734.21875 108.859375 C 1738.101562 104.980469 1743.367188 102.800781 1748.859375 102.800781 Z M 1748.859375 102.800781 "/></clipPath><clipPath id="f7837db78d"><path d="M 1447.199219 343.425781 L 1486.535156 343.425781 L 1486.535156 382.742188 L 1447.199219 382.742188 Z M 1447.199219 343.425781 "/></clipPath><clipPath id="d149b30953"><path d="M 1466.867188 343.425781 C 1456.003906 343.425781 1447.199219 352.226562 1447.199219 363.082031 C 1447.199219 373.9375 1456.003906 382.742188 1466.867188 382.742188 C 1477.730469 382.742188 1486.535156 373.9375 1486.535156 363.082031 C 1486.535156 352.226562 1477.730469 343.425781 1466.867188 343.425781 Z M 1466.867188 343.425781 "/></clipPath><clipPath id="2817413fbf"><path d="M 1546.714844 269.410156 L 1586.054688 269.410156 L 1586.054688 308.722656 L 1546.714844 308.722656 Z M 1546.714844 269.410156 "/></clipPath><clipPath id="9ed77739ee"><path d="M 1566.382812 269.410156 C 1555.523438 269.410156 1546.714844 278.210938 1546.714844 289.066406 C 1546.714844 299.921875 1555.523438 308.722656 1566.382812 308.722656 C 1577.246094 308.722656 1586.054688 299.921875 1586.054688 289.066406 C 1586.054688 278.210938 1577.246094 269.410156 1566.382812 269.410156 Z M 1566.382812 269.410156 "/></clipPath><clipPath id="1b3e2b3216"><path d="M 1646.128906 363.78125 L 1685.464844 363.78125 L 1685.464844 403.097656 L 1646.128906 403.097656 Z M 1646.128906 363.78125 "/></clipPath><clipPath id="7c3fb26b8d"><path d="M 1665.796875 363.78125 C 1654.933594 363.78125 1646.128906 372.582031 1646.128906 383.4375 C 1646.128906 394.292969 1654.933594 403.097656 1665.796875 403.097656 C 1676.660156 403.097656 1685.464844 394.292969 1685.464844 383.4375 C 1685.464844 372.582031 1676.660156 363.78125 1665.796875 363.78125 Z M 1665.796875 363.78125 "/></clipPath><clipPath id="c289b808d1"><path d="M 1745.425781 223.941406 L 1784.761719 223.941406 L 1784.761719 263.257812 L 1745.425781 263.257812 Z M 1745.425781 223.941406 "/></clipPath><clipPath id="bd9f673ae9"><path d="M 1765.09375 223.941406 C 1754.230469 223.941406 1745.425781 232.742188 1745.425781 243.597656 C 1745.425781 254.457031 1754.230469 263.257812 1765.09375 263.257812 C 1775.953125 263.257812 1784.761719 254.457031 1784.761719 243.597656 C 1784.761719 232.742188 1775.953125 223.941406 1765.09375 223.941406 Z M 1765.09375 223.941406 "/></clipPath><clipPath id="8048fd5cf7"><path d="M 1816.257812 98 L 1817 98 L 1817 159.664062 L 1816.257812 159.664062 Z M 1816.257812 98 "/></clipPath></defs><g id="175def16d8"><path style=" stroke:none;fill-rule:nonzero;fill:#4e0f53;fill-opacity:1;" d="M 48.496094 102.171875 C 43.230469 103.519531 40.027344 106.304688 37.757812 111.582031 L 35.582031 116.632812 L 35.785156 306.488281 C 36.097656 495.824219 36.097656 496.347656 38.269531 499.957031 C 39.40625 501.925781 42.402344 504.710938 44.984375 506.15625 L 49.535156 508.746094 L 297.546875 508.746094 L 302.300781 506.574219 C 306.015625 504.816406 307.570312 503.265625 309.324219 499.753906 C 311.390625 495.3125 311.5 493.867188 311.5 458.949219 C 311.5 423.3125 311.5 422.800781 309.121094 418.359375 C 307.570312 415.46875 305.296875 413.089844 302.71875 411.753906 C 298.679688 409.578125 297.03125 409.578125 223.664062 409.066406 L 148.742188 408.542969 L 148.21875 260.316406 L 147.707031 112.09375 L 145.328125 108.679688 C 140.261719 101.65625 140.992188 101.765625 93.96875 101.5625 C 70.613281 101.453125 50.15625 101.765625 48.496094 102.171875 Z M 48.496094 102.171875 "/><path style=" stroke:none;fill-rule:nonzero;fill:#4e0f53;fill-opacity:1;" d="M 355.105469 102.277344 C 350.457031 103.316406 345.808594 108.058594 344.566406 112.714844 C 343.839844 115.1875 343.636719 183.363281 343.742188 307.632812 C 344.054688 498.726562 344.054688 498.824219 346.21875 501.714844 C 347.351562 503.265625 350.351562 505.640625 352.835938 506.988281 C 357.375 509.257812 357.898438 509.257812 399.847656 509.257812 C 441.804688 509.257812 442.320312 509.257812 446.871094 506.882812 C 449.355469 505.640625 452.34375 503.265625 453.488281 501.714844 L 455.652344 498.824219 L 455.652344 305.972656 C 455.652344 145.148438 455.449219 112.609375 454.207031 109.816406 C 453.488281 107.960938 451.109375 105.382812 449.042969 104.140625 C 445.316406 101.765625 445.007812 101.765625 401.914062 101.5625 C 378.042969 101.453125 356.96875 101.765625 355.105469 102.277344 Z M 355.105469 102.277344 "/><path style=" stroke:none;fill-rule:nonzero;fill:#4e0f53;fill-opacity:1;" d="M 499.785156 102.277344 C 497.921875 102.695312 495.125 104.140625 493.679688 105.480469 C 488.304688 110.542969 487.898438 112.917969 487.382812 143.597656 C 486.761719 185.847656 487.898438 192.761719 496.570312 197.824219 C 499.878906 199.785156 502.460938 199.890625 548.660156 200.40625 L 597.226562 200.929688 L 597.75 348.640625 C 598.15625 456.367188 598.574219 497.066406 599.398438 498.929688 C 601.15625 502.75 604.976562 505.84375 610.042969 507.707031 C 613.757812 508.949219 621.09375 509.257812 653.445312 509.257812 C 696.230469 509.257812 700.253906 508.84375 705.523438 503.265625 C 711.617188 496.863281 711.414062 503.574219 711.414062 345.226562 L 711.414062 200.40625 L 758.746094 200.40625 C 802.355469 200.40625 806.285156 200.203125 810.109375 198.445312 C 812.378906 197.410156 815.066406 195.554688 816.09375 194.421875 C 820.441406 189.5625 820.851562 185.945312 820.957031 151.550781 C 820.957031 111.785156 820.539062 109.203125 812.175781 103.722656 C 809.273438 101.765625 805.246094 101.765625 656.132812 101.5625 C 572.015625 101.5625 501.636719 101.765625 499.785156 102.277344 Z M 499.785156 102.277344 "/><path style=" stroke:none;fill-rule:nonzero;fill:#4e0f53;fill-opacity:1;" d="M 863.632812 102.386719 C 859.605469 103.617188 855.472656 108.371094 854.027344 113.539062 C 853.296875 116.324219 853.09375 178.816406 853.199219 307.417969 C 853.5 495.933594 853.5 497.378906 855.570312 500.996094 C 856.808594 503.160156 859.605469 505.535156 862.292969 506.882812 C 866.835938 509.257812 867.359375 509.257812 908.792969 509.257812 C 955.707031 509.257812 958.289062 508.949219 962.734375 502.75 L 965.109375 499.445312 L 965.109375 305.664062 C 965.109375 91.84375 965.625 108.582031 958.503906 104.035156 C 954.777344 101.765625 954.261719 101.765625 910.859375 101.5625 C 885.949219 101.453125 865.496094 101.765625 863.632812 102.386719 Z M 863.632812 102.386719 "/><path style=" stroke:none;fill-rule:nonzero;fill:#4e0f53;fill-opacity:1;" d="M 1004.894531 102.386719 C 1000.246094 104.34375 998.695312 106.410156 998.695312 111.269531 C 998.695312 115.808594 1000.761719 120.667969 1006.757812 129.863281 C 1008.308594 132.335938 1013.160156 139.980469 1017.605469 146.90625 C 1022.050781 153.925781 1030.734375 167.457031 1036.933594 177.167969 C 1043.136719 186.769531 1051.5 200.09375 1055.632812 206.605469 C 1059.765625 213.113281 1065.140625 221.484375 1067.519531 225.199219 C 1069.898438 228.921875 1081.675781 247.410156 1093.660156 266.3125 C 1118.570312 305.566406 1116.8125 299.367188 1107.410156 313.828125 C 1104.722656 317.855469 1094.28125 334.179688 1084.257812 349.976562 C 1074.136719 365.679688 1057.078125 392.324219 1046.230469 409.066406 C 1035.488281 425.796875 1025.667969 441.191406 1024.535156 443.148438 C 1023.398438 445.109375 1016.160156 456.476562 1008.511719 468.355469 C 1000.761719 480.335938 994.046875 491.800781 993.328125 493.972656 C 991.464844 500.171875 993.113281 504.089844 998.695312 506.988281 L 1003.351562 509.355469 L 1052.945312 509.054688 C 1102.140625 508.746094 1102.65625 508.636719 1108.546875 506.261719 C 1115.261719 503.574219 1119.8125 499.550781 1124.972656 491.488281 C 1126.945312 488.492188 1140.0625 465.457031 1154.21875 440.355469 C 1168.269531 415.15625 1180.15625 394.605469 1180.671875 394.605469 C 1181.816406 394.605469 1183.882812 397.804688 1200.40625 426.621094 C 1244.023438 502.238281 1243.5 501.402344 1250.632812 505.019531 C 1258.277344 508.84375 1263.964844 509.257812 1314.5 509.257812 C 1360.796875 509.257812 1363.792969 509.152344 1367.402344 507.289062 C 1371.441406 505.222656 1373.816406 501.617188 1373.816406 497.582031 C 1373.710938 493.664062 1370.402344 487.5625 1355.625 465.148438 C 1347.773438 453.0625 1335.683594 434.574219 1328.863281 424.042969 C 1322.039062 413.507812 1310.367188 395.535156 1302.816406 383.964844 C 1295.386719 372.5 1285.769531 357.726562 1281.527344 351.21875 C 1277.296875 344.710938 1268.828125 331.695312 1262.625 322.296875 C 1256.523438 312.898438 1251.050781 304.011719 1250.535156 302.566406 C 1249.605469 300.191406 1251.5625 296.777344 1270.992188 266.410156 C 1292.902344 232.433594 1297.964844 224.480469 1306.019531 211.976562 C 1308.503906 208.15625 1318.527344 192.453125 1328.347656 177.167969 C 1345.910156 149.796875 1349.53125 144.113281 1360.28125 127.585938 C 1368.847656 114.363281 1369.375 108.273438 1362.445312 103.519531 L 1358.933594 101.144531 L 1306.640625 101.453125 L 1254.457031 101.765625 L 1249.390625 104.34375 C 1241.335938 108.476562 1241.851562 107.652344 1211.886719 159.609375 C 1205.269531 170.96875 1197.3125 184.710938 1194.21875 190.078125 C 1191.113281 195.449219 1187.492188 201.753906 1186.25 204.023438 C 1184.910156 206.292969 1183.261719 208.15625 1182.535156 208.15625 C 1181.816406 208.15625 1178.914062 204.226562 1176.128906 199.378906 C 1173.238281 194.519531 1167.445312 184.5 1163.109375 177.167969 C 1158.769531 169.726562 1149.15625 153.304688 1141.820312 140.601562 C 1126.945312 114.984375 1121.355469 107.960938 1113.195312 104.238281 L 1107.722656 101.765625 L 1057.601562 101.5625 C 1025.359375 101.347656 1006.554688 101.65625 1004.894531 102.386719 Z M 1004.894531 102.386719 "/><g clip-rule="nonzero" clip-path="url(#ac887924aa)"><g clip-rule="nonzero" clip-path="url(#b607ad3edd)"><path style=" stroke:none;fill-rule:nonzero;fill:#dc9542;fill-opacity:1;" d="M 1430.636719 306.84375 L 1504.511719 306.84375 L 1504.511719 510.757812 L 1430.636719 510.757812 Z M 1430.636719 306.84375 "/></g></g><g clip-rule="nonzero" clip-path="url(#a2afc0a217)"><g clip-rule="nonzero" clip-path="url(#191ed9ddd1)"><path style=" stroke:none;fill-rule:nonzero;fill:#dc9542;fill-opacity:1;" d="M 1529.742188 153.980469 L 1603.621094 153.980469 L 1603.621094 510.761719 L 1529.742188 510.761719 Z M 1529.742188 153.980469 "/></g></g><g clip-rule="nonzero" clip-path="url(#a469ce6fa2)"><g clip-rule="nonzero" clip-path="url(#e92f7365b2)"><path style=" stroke:none;fill-rule:nonzero;fill:#dc9542;fill-opacity:1;" d="M 1628.949219 223.941406 L 1702.824219 223.941406 L 1702.824219 510.921875 L 1628.949219 510.921875 Z M 1628.949219 223.941406 "/></g></g><g clip-rule="nonzero" clip-path="url(#8505e33adb)"><g clip-rule="nonzero" clip-path="url(#dbe13556fd)"><path style=" stroke:none;fill-rule:nonzero;fill:#dc9542;fill-opacity:1;" d="M 1728.15625 102.800781 L 1802.03125 102.800781 L 1802.03125 510.914062 L 1728.15625 510.914062 Z M 1728.15625 102.800781 "/></g></g><path style="fill:none;stroke-width:59;stroke-linecap:butt;stroke-linejoin:miter;stroke:#4e0f53;stroke-opacity:1;stroke-miterlimit:4;" d="M -0.00119849 29.495694 L 420.182341 29.498184 " transform="matrix(0.236837,-0.177054,0.177152,0.236706,1461.642251,356.287505)"/><path style="fill:none;stroke-width:59;stroke-linecap:butt;stroke-linejoin:miter;stroke:#4e0f53;stroke-opacity:1;stroke-miterlimit:4;" d="M 0.00235061 29.504185 L 464.912869 29.508038 " transform="matrix(-0.214341,-0.203683,0.203796,-0.214222,1660.225946,389.899047)"/><path style="fill:none;stroke-width:59;stroke-linecap:butt;stroke-linejoin:miter;stroke:#4e0f53;stroke-opacity:1;stroke-miterlimit:4;" d="M -0.00266549 29.506173 L 578.067788 29.503207 " transform="matrix(0.17193,-0.240522,0.240655,0.171834,1658.696522,378.144028)"/><g clip-rule="nonzero" clip-path="url(#f7837db78d)"><g clip-rule="nonzero" clip-path="url(#d149b30953)"><path style=" stroke:none;fill-rule:nonzero;fill:#4e0f53;fill-opacity:1;" d="M 1447.199219 343.425781 L 1486.535156 343.425781 L 1486.535156 382.742188 L 1447.199219 382.742188 Z M 1447.199219 343.425781 "/></g></g><g clip-rule="nonzero" clip-path="url(#2817413fbf)"><g clip-rule="nonzero" clip-path="url(#9ed77739ee)"><path style=" stroke:none;fill-rule:nonzero;fill:#4e0f53;fill-opacity:1;" d="M 1546.714844 269.410156 L 1586.054688 269.410156 L 1586.054688 308.722656 L 1546.714844 308.722656 Z M 1546.714844 269.410156 "/></g></g><g clip-rule="nonzero" clip-path="url(#1b3e2b3216)"><g clip-rule="nonzero" clip-path="url(#7c3fb26b8d)"><path style=" stroke:none;fill-rule:nonzero;fill:#4e0f53;fill-opacity:1;" d="M 1646.128906 363.78125 L 1685.464844 363.78125 L 1685.464844 403.097656 L 1646.128906 403.097656 Z M 1646.128906 363.78125 "/></g></g><g clip-rule="nonzero" clip-path="url(#c289b808d1)"><g clip-rule="nonzero" clip-path="url(#bd9f673ae9)"><path style=" stroke:none;fill-rule:nonzero;fill:#4e0f53;fill-opacity:1;" d="M 1745.425781 223.941406 L 1784.761719 223.941406 L 1784.761719 263.257812 L 1745.425781 263.257812 Z M 1745.425781 223.941406 "/></g></g><g clip-rule="nonzero" clip-path="url(#8048fd5cf7)"><path style=" stroke:none;fill-rule:nonzero;fill:#dc9543;fill-opacity:1;" d="M 1491.734375 462.648438 C 1484.210938 462.648438 1479.515625 460.597656 1477.636719 456.496094 C 1475.753906 452.402344 1476.863281 447.277344 1480.964844 441.132812 L 1586.515625 277.144531 L 1486.09375 119.332031 C 1482.332031 113.535156 1481.308594 108.675781 1483.007812 104.75 C 1484.722656 100.808594 1489.164062 98.839844 1496.328125 98.839844 L 1557.320312 98.839844 C 1570.300781 98.839844 1579.429688 99.875 1584.714844 101.929688 C 1590.015625 103.96875 1595.054688 108.921875 1599.835938 116.78125 L 1645.949219 196.199219 L 1691.554688 116.78125 C 1696.332031 108.242188 1701.203125 103.121094 1706.164062 101.417969 C 1711.121094 99.703125 1719.398438 98.839844 1731.007812 98.839844 L 1796.617188 98.839844 C 1803.777344 98.839844 1808.210938 100.808594 1809.914062 104.75 C 1811.628906 108.675781 1810.605469 113.535156 1806.851562 119.332031 L 1705.386719 277.144531 L 1811.980469 441.132812 C 1816.074219 446.597656 1817.265625 451.550781 1815.554688 455.988281 C 1813.851562 460.429688 1809.070312 462.648438 1801.210938 462.648438 L 1735.625 462.648438 C 1726.742188 462.648438 1719.824219 462.308594 1714.867188 461.625 C 1709.917969 460.945312 1705.90625 459.238281 1702.832031 456.496094 C 1699.75 453.761719 1696.511719 449.488281 1693.109375 443.6875 L 1644.417969 359.140625 L 1596.773438 443.6875 C 1593.691406 448.808594 1590.703125 452.742188 1587.804688 455.476562 C 1584.898438 458.214844 1580.972656 460.09375 1576.015625 461.117188 C 1571.054688 462.136719 1563.960938 462.648438 1554.742188 462.648438 Z M 1491.734375 462.648438 "/></g><path style=" stroke:none;fill-rule:nonzero;fill:#dc9543;fill-opacity:1;" d="M 1838.523438 146.898438 C 1837.695312 146.898438 1837.121094 146.742188 1836.796875 146.414062 C 1836.46875 146.089844 1836.3125 145.527344 1836.3125 144.710938 L 1836.3125 108.589844 L 1825.082031 108.589844 C 1824.265625 108.589844 1823.703125 108.4375 1823.378906 108.128906 C 1823.050781 107.804688 1822.894531 107.226562 1822.894531 106.402344 L 1822.894531 103.242188 C 1822.894531 102.414062 1823.050781 101.847656 1823.378906 101.539062 C 1823.703125 101.21875 1824.265625 101.054688 1825.082031 101.054688 L 1855.636719 101.054688 C 1856.492188 101.054688 1857.070312 101.21875 1857.363281 101.539062 C 1857.667969 101.847656 1857.824219 102.414062 1857.824219 103.242188 L 1857.824219 106.402344 C 1857.824219 107.226562 1857.667969 107.804688 1857.363281 108.128906 C 1857.070312 108.4375 1856.492188 108.589844 1855.636719 108.589844 L 1844.40625 108.589844 L 1844.40625 144.710938 C 1844.40625 145.527344 1844.25 146.089844 1843.945312 146.414062 C 1843.632812 146.742188 1843.050781 146.898438 1842.195312 146.898438 Z M 1838.523438 146.898438 "/><path style=" stroke:none;fill-rule:nonzero;fill:#dc9543;fill-opacity:1;" d="M 1865.394531 146.898438 C 1864.570312 146.898438 1863.992188 146.742188 1863.667969 146.414062 C 1863.359375 146.089844 1863.207031 145.527344 1863.207031 144.710938 L 1863.207031 103.242188 C 1863.207031 102.414062 1863.359375 101.847656 1863.667969 101.539062 C 1863.992188 101.21875 1864.570312 101.054688 1865.394531 101.054688 L 1868.238281 101.054688 C 1869.175781 101.054688 1869.84375 101.164062 1870.234375 101.371094 C 1870.621094 101.582031 1870.984375 102.039062 1871.328125 102.730469 L 1884.84375 126.746094 L 1898.210938 102.78125 C 1898.601562 102.050781 1898.972656 101.582031 1899.332031 101.371094 C 1899.699219 101.164062 1900.316406 101.054688 1901.179688 101.054688 L 1904.339844 101.054688 C 1905.195312 101.054688 1905.785156 101.21875 1906.113281 101.539062 C 1906.433594 101.847656 1906.597656 102.414062 1906.597656 103.242188 L 1906.597656 144.710938 C 1906.597656 145.527344 1906.433594 146.089844 1906.113281 146.414062 C 1905.785156 146.742188 1905.195312 146.898438 1904.339844 146.898438 L 1901.054688 146.898438 C 1900.230469 146.898438 1899.652344 146.742188 1899.332031 146.414062 C 1899.003906 146.089844 1898.84375 145.527344 1898.84375 144.710938 L 1898.84375 124.996094 C 1898.84375 121.386719 1899.359375 117.109375 1900.398438 112.164062 L 1900.011719 112.164062 C 1899.195312 114.5625 1898.359375 116.660156 1897.484375 118.457031 C 1896.621094 120.246094 1895.683594 122.054688 1894.664062 123.902344 L 1888.320312 135.132812 C 1888.027344 135.707031 1887.699219 136.105469 1887.347656 136.351562 C 1887.003906 136.582031 1886.496094 136.691406 1885.816406 136.691406 L 1883.75 136.691406 C 1883.097656 136.691406 1882.613281 136.59375 1882.289062 136.398438 C 1881.960938 136.203125 1881.609375 135.785156 1881.21875 135.132812 L 1874.753906 123.902344 C 1874.023438 122.65625 1873.394531 121.464844 1872.859375 120.332031 C 1872.324219 119.183594 1871.8125 117.949219 1871.328125 116.636719 C 1870.851562 115.324219 1870.34375 113.808594 1869.796875 112.089844 L 1869.332031 112.089844 C 1869.851562 114.636719 1870.214844 116.925781 1870.425781 118.96875 C 1870.632812 121.011719 1870.742188 123.046875 1870.742188 125.070312 L 1870.742188 144.710938 C 1870.742188 145.527344 1870.578125 146.089844 1870.257812 146.414062 C 1869.945312 146.742188 1869.382812 146.898438 1868.554688 146.898438 Z M 1865.394531 146.898438 "/></g></svg>