<svg xmlns="http://www.w3.org/2000/svg" xmlns:xlink="http://www.w3.org/1999/xlink" width="1080" zoomAndPan="magnify" viewBox="0 0 810 899.99999" height="1200" preserveAspectRatio="xMidYMid meet" version="1.2"><defs><clipPath id="409deb5ebf"><path d="M 43.648438 450 L 187.40625 450 L 187.40625 847.582031 L 43.648438 847.582031 Z M 43.648438 450 "/></clipPath><clipPath id="701cd65b06"><path d="M 88.648438 450 L 142.40625 450 C 167.257812 450 187.40625 470.148438 187.40625 495 L 187.40625 802.273438 C 187.40625 827.125 167.257812 847.273438 142.40625 847.273438 L 88.648438 847.273438 C 63.792969 847.273438 43.648438 827.125 43.648438 802.273438 L 43.648438 495 C 43.648438 470.148438 63.792969 450 88.648438 450 Z M 88.648438 450 "/></clipPath><clipPath id="df2aab0032"><path d="M 236.5 152.378906 L 380.257812 152.378906 L 380.257812 847.589844 L 236.5 847.589844 Z M 236.5 152.378906 "/></clipPath><clipPath id="c3647b633b"><path d="M 281.5 152.378906 L 335.257812 152.378906 C 360.109375 152.378906 380.257812 172.527344 380.257812 197.378906 L 380.257812 802.273438 C 380.257812 827.125 360.109375 847.273438 335.257812 847.273438 L 281.5 847.273438 C 256.644531 847.273438 236.5 827.125 236.5 802.273438 L 236.5 197.378906 C 236.5 172.527344 256.644531 152.378906 281.5 152.378906 Z M 281.5 152.378906 "/></clipPath><clipPath id="793efb9da0"><path d="M 429.546875 288.589844 L 573.304688 288.589844 L 573.304688 847.339844 L 429.546875 847.339844 Z M 429.546875 288.589844 "/></clipPath><clipPath id="9602ac3622"><path d="M 474.546875 288.589844 L 528.304688 288.589844 C 553.15625 288.589844 573.304688 308.738281 573.304688 333.589844 L 573.304688 802.273438 C 573.304688 827.125 553.15625 847.273438 528.304688 847.273438 L 474.546875 847.273438 C 449.695312 847.273438 429.546875 827.125 429.546875 802.273438 L 429.546875 333.589844 C 429.546875 308.738281 449.695312 288.589844 474.546875 288.589844 Z M 474.546875 288.589844 "/></clipPath><clipPath id="36108f84ec"><path d="M 622.59375 52.726562 L 766.351562 52.726562 L 766.351562 847.332031 L 622.59375 847.332031 Z M 622.59375 52.726562 "/></clipPath><clipPath id="216fb8e8c0"><path d="M 667.59375 52.726562 L 721.351562 52.726562 C 746.207031 52.726562 766.351562 72.875 766.351562 97.726562 L 766.351562 802.273438 C 766.351562 827.125 746.207031 847.273438 721.351562 847.273438 L 667.59375 847.273438 C 642.742188 847.273438 622.59375 827.125 622.59375 802.273438 L 622.59375 97.726562 C 622.59375 72.875 642.742188 52.726562 667.59375 52.726562 Z M 667.59375 52.726562 "/></clipPath><clipPath id="149ae99325"><path d="M 75.878906 521.226562 L 152.421875 521.226562 L 152.421875 597.773438 L 75.878906 597.773438 Z M 75.878906 521.226562 "/></clipPath><clipPath id="64b8abfabc"><path d="M 114.148438 521.226562 C 93.011719 521.226562 75.878906 538.363281 75.878906 559.5 C 75.878906 580.636719 93.011719 597.773438 114.148438 597.773438 C 135.289062 597.773438 152.421875 580.636719 152.421875 559.5 C 152.421875 538.363281 135.289062 521.226562 114.148438 521.226562 Z M 114.148438 521.226562 "/></clipPath><clipPath id="5d59ad520a"><path d="M 269.53125 377.117188 L 346.074219 377.117188 L 346.074219 453.664062 L 269.53125 453.664062 Z M 269.53125 377.117188 "/></clipPath><clipPath id="4f869cfbd0"><path d="M 307.800781 377.117188 C 286.664062 377.117188 269.53125 394.253906 269.53125 415.390625 C 269.53125 436.527344 286.664062 453.664062 307.800781 453.664062 C 328.941406 453.664062 346.074219 436.527344 346.074219 415.390625 C 346.074219 394.253906 328.941406 377.117188 307.800781 377.117188 Z M 307.800781 377.117188 "/></clipPath><clipPath id="5ceab9e461"><path d="M 462.976562 560.859375 L 539.519531 560.859375 L 539.519531 637.40625 L 462.976562 637.40625 Z M 462.976562 560.859375 "/></clipPath><clipPath id="8a283d376a"><path d="M 501.25 560.859375 C 480.109375 560.859375 462.976562 577.996094 462.976562 599.132812 C 462.976562 620.269531 480.109375 637.40625 501.25 637.40625 C 522.386719 637.40625 539.519531 620.269531 539.519531 599.132812 C 539.519531 577.996094 522.386719 560.859375 501.25 560.859375 Z M 501.25 560.859375 "/></clipPath><clipPath id="5c17b0c564"><path d="M 656.199219 288.589844 L 732.746094 288.589844 L 732.746094 365.136719 L 656.199219 365.136719 Z M 656.199219 288.589844 "/></clipPath><clipPath id="ecf85a243d"><path d="M 694.472656 288.589844 C 673.335938 288.589844 656.199219 305.726562 656.199219 326.863281 C 656.199219 348 673.335938 365.136719 694.472656 365.136719 C 715.609375 365.136719 732.746094 348 732.746094 326.863281 C 732.746094 305.726562 715.609375 288.589844 694.472656 288.589844 Z M 694.472656 288.589844 "/></clipPath></defs><g id="cd416f1406"><g clip-rule="nonzero" clip-path="url(#409deb5ebf)"><g clip-rule="nonzero" clip-path="url(#701cd65b06)"><path style=" stroke:none;fill-rule:nonzero;fill:#dc9542;fill-opacity:1;" d="M 43.648438 450 L 187.40625 450 L 187.40625 847.019531 L 43.648438 847.019531 Z M 43.648438 450 "/></g></g><g clip-rule="nonzero" clip-path="url(#df2aab0032)"><g clip-rule="nonzero" clip-path="url(#c3647b633b)"><path style=" stroke:none;fill-rule:nonzero;fill:#dc9542;fill-opacity:1;" d="M 236.5 152.378906 L 380.257812 152.378906 L 380.257812 847.027344 L 236.5 847.027344 Z M 236.5 152.378906 "/></g></g><g clip-rule="nonzero" clip-path="url(#793efb9da0)"><g clip-rule="nonzero" clip-path="url(#9602ac3622)"><path style=" stroke:none;fill-rule:nonzero;fill:#dc9542;fill-opacity:1;" d="M 429.546875 288.589844 L 573.304688 288.589844 L 573.304688 847.339844 L 429.546875 847.339844 Z M 429.546875 288.589844 "/></g></g><g clip-rule="nonzero" clip-path="url(#36108f84ec)"><g clip-rule="nonzero" clip-path="url(#216fb8e8c0)"><path style=" stroke:none;fill-rule:nonzero;fill:#dc9542;fill-opacity:1;" d="M 622.59375 52.726562 L 766.351562 52.726562 L 766.351562 847.332031 L 622.59375 847.332031 Z M 622.59375 52.726562 "/></g></g><path style="fill:none;stroke-width:46;stroke-linecap:butt;stroke-linejoin:miter;stroke:#4e0f53;stroke-opacity:1;stroke-miterlimit:4;" d="M 0.00246148 22.998867 L 322.441282 22.997973 " transform="matrix(0.599764,-0.448618,0.448618,0.599764,103.81754,546.050967)"/><path style="fill:none;stroke-width:46;stroke-linecap:butt;stroke-linejoin:miter;stroke:#4e0f53;stroke-opacity:1;stroke-miterlimit:4;" d="M -0.00192669 23.000115 L 356.76221 22.996899 " transform="matrix(-0.543531,-0.516792,0.516792,-0.543531,490.218147,611.906532)"/><path style="fill:none;stroke-width:46;stroke-linecap:butt;stroke-linejoin:miter;stroke:#4e0f53;stroke-opacity:1;stroke-miterlimit:4;" d="M -0.00166131 23.000558 L 443.590267 22.999419 " transform="matrix(0.435984,-0.61026,0.61026,0.435984,487.210491,588.662509)"/><g clip-rule="nonzero" clip-path="url(#149ae99325)"><g clip-rule="nonzero" clip-path="url(#64b8abfabc)"><path style=" stroke:none;fill-rule:nonzero;fill:#4e0f53;fill-opacity:1;" d="M 75.878906 521.226562 L 152.421875 521.226562 L 152.421875 597.773438 L 75.878906 597.773438 Z M 75.878906 521.226562 "/></g></g><g clip-rule="nonzero" clip-path="url(#5d59ad520a)"><g clip-rule="nonzero" clip-path="url(#4f869cfbd0)"><path style=" stroke:none;fill-rule:nonzero;fill:#4e0f53;fill-opacity:1;" d="M 269.53125 377.117188 L 346.074219 377.117188 L 346.074219 453.664062 L 269.53125 453.664062 Z M 269.53125 377.117188 "/></g></g><g clip-rule="nonzero" clip-path="url(#5ceab9e461)"><g clip-rule="nonzero" clip-path="url(#8a283d376a)"><path style=" stroke:none;fill-rule:nonzero;fill:#4e0f53;fill-opacity:1;" d="M 462.976562 560.859375 L 539.519531 560.859375 L 539.519531 637.40625 L 462.976562 637.40625 Z M 462.976562 560.859375 "/></g></g><g clip-rule="nonzero" clip-path="url(#5c17b0c564)"><g clip-rule="nonzero" clip-path="url(#ecf85a243d)"><path style=" stroke:none;fill-rule:nonzero;fill:#4e0f53;fill-opacity:1;" d="M 656.199219 288.589844 L 732.746094 288.589844 L 732.746094 365.136719 L 656.199219 365.136719 Z M 656.199219 288.589844 "/></g></g></g></svg>