<svg xmlns="http://www.w3.org/2000/svg" xmlns:xlink="http://www.w3.org/1999/xlink" width="2680" zoomAndPan="magnify" viewBox="0 0 2010 599.999999" height="800" preserveAspectRatio="xMidYMid meet" version="1.2"><defs><clipPath id="9fc2dd3014"><path d="M 61.476562 281.972656 L 132.117188 281.972656 L 132.117188 477 L 61.476562 477 Z M 61.476562 281.972656 "/></clipPath><clipPath id="d6a299b452"><path d="M 81.273438 281.972656 L 112.320312 281.972656 C 117.570312 281.972656 122.605469 284.054688 126.320312 287.761719 C 130.03125 291.472656 132.117188 296.5 132.117188 301.746094 L 132.117188 457.199219 C 132.117188 462.441406 130.03125 467.472656 126.320312 471.183594 C 122.605469 474.890625 117.570312 476.972656 112.320312 476.972656 L 81.273438 476.972656 C 76.023438 476.972656 70.988281 474.890625 67.273438 471.183594 C 63.5625 467.472656 61.476562 462.441406 61.476562 457.199219 L 61.476562 301.746094 C 61.476562 296.5 63.5625 291.472656 67.273438 287.761719 C 70.988281 284.054688 76.023438 281.972656 81.273438 281.972656 Z M 81.273438 281.972656 "/></clipPath><clipPath id="1863a5ff30"><path d="M 156.242188 135.882812 L 226.882812 135.882812 L 226.882812 477 L 156.242188 477 Z M 156.242188 135.882812 "/></clipPath><clipPath id="1a56a334d8"><path d="M 176.039062 135.882812 L 207.085938 135.882812 C 212.335938 135.882812 217.371094 137.96875 221.085938 141.675781 C 224.796875 145.382812 226.882812 150.414062 226.882812 155.660156 L 226.882812 457.199219 C 226.882812 462.441406 224.796875 467.472656 221.085938 471.183594 C 217.371094 474.890625 212.335938 476.972656 207.085938 476.972656 L 176.039062 476.972656 C 170.789062 476.972656 165.753906 474.890625 162.039062 471.183594 C 158.328125 467.472656 156.242188 462.441406 156.242188 457.199219 L 156.242188 155.660156 C 156.242188 150.414062 158.328125 145.382812 162.039062 141.675781 C 165.753906 137.96875 170.789062 135.882812 176.039062 135.882812 Z M 176.039062 135.882812 "/></clipPath><clipPath id="fa5c76345b"><path d="M 251.105469 202.742188 L 321.746094 202.742188 L 321.746094 477 L 251.105469 477 Z M 251.105469 202.742188 "/></clipPath><clipPath id="400a284846"><path d="M 270.902344 202.742188 L 301.949219 202.742188 C 307.199219 202.742188 312.234375 204.828125 315.949219 208.535156 C 319.660156 212.242188 321.746094 217.273438 321.746094 222.519531 L 321.746094 457.199219 C 321.746094 462.441406 319.660156 467.472656 315.949219 471.183594 C 312.234375 474.890625 307.199219 476.972656 301.949219 476.972656 L 270.902344 476.972656 C 265.648438 476.972656 260.613281 474.890625 256.902344 471.183594 C 253.191406 467.472656 251.105469 462.441406 251.105469 457.199219 L 251.105469 222.519531 C 251.105469 217.273438 253.191406 212.242188 256.902344 208.535156 C 260.613281 204.828125 265.648438 202.742188 270.902344 202.742188 Z M 270.902344 202.742188 "/></clipPath><clipPath id="22ca8a87c5"><path d="M 345.964844 86.96875 L 416.609375 86.96875 L 416.609375 477 L 345.964844 477 Z M 345.964844 86.96875 "/></clipPath><clipPath id="4b1cfa669f"><path d="M 365.761719 86.96875 L 396.8125 86.96875 C 402.0625 86.96875 407.097656 89.054688 410.808594 92.761719 C 414.523438 96.46875 416.609375 101.5 416.609375 106.746094 L 416.609375 457.199219 C 416.609375 462.441406 414.523438 467.472656 410.808594 471.183594 C 407.097656 474.890625 402.0625 476.972656 396.8125 476.972656 L 365.761719 476.972656 C 360.511719 476.972656 355.476562 474.890625 351.765625 471.183594 C 348.050781 467.472656 345.964844 462.441406 345.964844 457.199219 L 345.964844 106.746094 C 345.964844 101.5 348.050781 96.46875 351.765625 92.761719 C 355.476562 89.054688 360.511719 86.96875 365.761719 86.96875 Z M 365.761719 86.96875 "/></clipPath><clipPath id="2e2aacd868"><path d="M 77.3125 316.933594 L 114.925781 316.933594 L 114.925781 354.507812 L 77.3125 354.507812 Z M 77.3125 316.933594 "/></clipPath><clipPath id="3c21e220cf"><path d="M 96.121094 316.933594 C 85.734375 316.933594 77.3125 325.34375 77.3125 335.71875 C 77.3125 346.09375 85.734375 354.507812 96.121094 354.507812 C 106.507812 354.507812 114.925781 346.09375 114.925781 335.71875 C 114.925781 325.34375 106.507812 316.933594 96.121094 316.933594 Z M 96.121094 316.933594 "/></clipPath><clipPath id="82b7d6769e"><path d="M 172.472656 246.195312 L 210.085938 246.195312 L 210.085938 283.769531 L 172.472656 283.769531 Z M 172.472656 246.195312 "/></clipPath><clipPath id="a33568aef6"><path d="M 191.277344 246.195312 C 180.894531 246.195312 172.472656 254.605469 172.472656 264.984375 C 172.472656 275.359375 180.894531 283.769531 191.277344 283.769531 C 201.667969 283.769531 210.085938 275.359375 210.085938 264.984375 C 210.085938 254.605469 201.667969 246.195312 191.277344 246.195312 Z M 191.277344 246.195312 "/></clipPath><clipPath id="570fa09918"><path d="M 267.53125 336.386719 L 305.144531 336.386719 L 305.144531 373.960938 L 267.53125 373.960938 Z M 267.53125 336.386719 "/></clipPath><clipPath id="7170f9c584"><path d="M 286.335938 336.386719 C 275.949219 336.386719 267.53125 344.796875 267.53125 355.175781 C 267.53125 365.546875 275.949219 373.960938 286.335938 373.960938 C 296.726562 373.960938 305.144531 365.546875 305.144531 355.175781 C 305.144531 344.796875 296.726562 336.386719 286.335938 336.386719 Z M 286.335938 336.386719 "/></clipPath><clipPath id="5ce3b0d17c"><path d="M 362.480469 202.742188 L 400.09375 202.742188 L 400.09375 240.316406 L 362.480469 240.316406 Z M 362.480469 202.742188 "/></clipPath><clipPath id="df2eb446ba"><path d="M 381.289062 202.742188 C 370.898438 202.742188 362.480469 211.152344 362.480469 221.53125 C 362.480469 231.90625 370.898438 240.316406 381.289062 240.316406 C 391.671875 240.316406 400.09375 231.90625 400.09375 221.53125 C 400.09375 211.152344 391.671875 202.742188 381.289062 202.742188 Z M 381.289062 202.742188 "/></clipPath></defs><g id="ca960d802b"><path style=" stroke:none;fill-rule:nonzero;fill:#4e1053;fill-opacity:1;" d="M 510.90625 476.6875 C 506.007812 476.6875 502.589844 475.726562 500.65625 473.804688 C 498.730469 471.867188 497.769531 468.449219 497.769531 463.550781 L 497.769531 215.691406 C 497.769531 210.796875 498.730469 207.386719 500.65625 205.464844 C 502.589844 203.527344 506.007812 202.554688 510.90625 202.554688 L 532.910156 202.554688 C 538.046875 202.554688 541.519531 203.527344 543.320312 205.464844 C 545.136719 207.386719 546.046875 210.796875 546.046875 215.691406 L 546.046875 463.550781 C 546.046875 468.449219 545.136719 471.867188 543.320312 473.804688 C 541.519531 475.726562 538.046875 476.6875 532.910156 476.6875 Z M 510.90625 476.6875 "/><path style=" stroke:none;fill-rule:nonzero;fill:#4e1053;fill-opacity:1;" d="M 602.40625 476.6875 C 598.027344 476.6875 594.996094 475.792969 593.328125 473.988281 C 591.652344 472.195312 590.820312 469.105469 590.820312 464.726562 L 590.820312 306.042969 C 590.820312 299.871094 591.78125 295.304688 593.703125 292.347656 C 595.636719 289.375 599.578125 286.601562 605.503906 284.015625 C 613.472656 280.9375 623.507812 277.980469 635.59375 275.152344 C 647.695312 272.320312 663.023438 270.90625 681.574219 270.90625 C 709.109375 270.90625 729.375 277.734375 742.371094 291.386719 C 755.359375 305.023438 761.863281 324.058594 761.863281 348.5 L 761.863281 464.726562 C 761.863281 469.105469 760.960938 472.195312 759.164062 473.988281 C 757.363281 475.792969 754.277344 476.6875 749.898438 476.6875 L 729.046875 476.6875 C 724.667969 476.6875 721.578125 475.792969 719.78125 473.988281 C 717.980469 472.195312 717.085938 469.105469 717.085938 464.726562 L 717.085938 349.671875 C 717.085938 324.453125 703.054688 311.839844 675.003906 311.839844 C 667.796875 311.839844 661.101562 312.359375 654.925781 313.386719 C 648.746094 314.402344 643.085938 315.5625 637.945312 316.859375 C 636.394531 317.625 635.621094 318.90625 635.621094 320.703125 L 635.621094 464.726562 C 635.621094 469.105469 634.714844 472.195312 632.898438 473.988281 C 631.097656 475.792969 628.019531 476.6875 623.660156 476.6875 Z M 602.40625 476.6875 "/><path style=" stroke:none;fill-rule:nonzero;fill:#4e1053;fill-opacity:1;" d="M 877.683594 482.480469 C 855.042969 482.480469 836.570312 478.429688 822.28125 470.332031 C 808.003906 462.214844 797.902344 450.695312 791.976562 435.753906 C 788.890625 427.785156 791.476562 422.378906 799.71875 419.546875 L 817.074219 414.128906 C 821.199219 412.847656 824.421875 412.660156 826.738281 413.566406 C 829.050781 414.460938 831.105469 417.089844 832.90625 421.46875 C 836.003906 428.945312 841.085938 434.359375 848.152344 437.703125 C 855.234375 441.054688 864.695312 442.722656 876.535156 442.722656 C 904.070312 442.722656 917.839844 435.128906 917.839844 419.921875 C 917.839844 410.917969 913.976562 404.9375 906.253906 401.980469 C 898.542969 399.027344 886.960938 396.773438 871.515625 395.222656 C 861.992188 394.195312 852.59375 392.714844 843.320312 390.792969 C 834.0625 388.855469 825.632812 385.765625 818.035156 381.527344 C 810.453125 377.273438 804.40625 371.285156 799.90625 363.558594 C 795.398438 355.835938 793.152344 345.667969 793.152344 333.066406 C 793.152344 314.789062 799.839844 299.863281 813.230469 288.289062 C 826.613281 276.699219 846.558594 270.90625 873.066406 270.90625 C 895.1875 270.90625 912.882812 274.636719 926.144531 282.09375 C 939.402344 289.558594 949.25 299.597656 955.675781 312.210938 C 958.003906 316.589844 958.585938 320.074219 957.410156 322.652344 C 956.25 325.214844 953.492188 327.53125 949.132812 329.59375 L 932.125 336.535156 C 927.746094 338.339844 924.523438 338.914062 922.460938 338.273438 C 920.410156 337.632812 918.109375 335.253906 915.546875 331.144531 C 912.195312 325.214844 907.496094 320.324219 901.449219 316.457031 C 895.394531 312.597656 886.1875 310.664062 873.839844 310.664062 C 861.214844 310.664062 852.011719 312.472656 846.230469 316.082031 C 840.445312 319.679688 837.554688 324.949219 837.554688 331.890625 C 837.554688 340.914062 841.34375 346.84375 848.929688 349.671875 C 856.523438 352.503906 867.785156 354.558594 882.703125 355.839844 C 898.148438 357.390625 911.792969 360.03125 923.636719 363.769531 C 935.46875 367.496094 944.734375 373.535156 951.429688 381.898438 C 958.121094 390.269531 961.46875 402.300781 961.46875 418 C 961.46875 436.796875 954.394531 452.25 940.242188 464.351562 C 926.09375 476.441406 905.238281 482.480469 877.683594 482.480469 Z M 877.683594 482.480469 "/><path style=" stroke:none;fill-rule:nonzero;fill:#4e1053;fill-opacity:1;" d="M 1012.0625 242.335938 C 1003.304688 242.335938 997.3125 240.800781 994.09375 237.71875 C 990.890625 234.621094 989.289062 228.691406 989.289062 219.933594 L 989.289062 216.464844 C 989.289062 207.460938 990.890625 201.539062 994.09375 198.707031 C 997.3125 195.878906 1003.304688 194.464844 1012.0625 194.464844 L 1015.132812 194.464844 C 1024.160156 194.464844 1030.207031 195.878906 1033.289062 198.707031 C 1036.386719 201.539062 1037.9375 207.460938 1037.9375 216.464844 L 1037.9375 219.933594 C 1037.9375 228.691406 1036.386719 234.621094 1033.289062 237.71875 C 1030.207031 240.800781 1024.160156 242.335938 1015.132812 242.335938 Z M 1003.171875 476.6875 C 998.792969 476.6875 995.703125 475.792969 993.90625 473.988281 C 992.105469 472.195312 991.210938 469.105469 991.210938 464.726562 L 991.210938 288.289062 C 991.210938 283.910156 992.105469 280.886719 993.90625 279.210938 C 995.703125 277.542969 998.792969 276.699219 1003.171875 276.699219 L 1024.023438 276.699219 C 1028.402344 276.699219 1031.488281 277.542969 1033.289062 279.210938 C 1035.085938 280.886719 1035.988281 283.910156 1035.988281 288.289062 L 1035.988281 464.726562 C 1035.988281 469.105469 1035.085938 472.195312 1033.289062 473.988281 C 1031.488281 475.792969 1028.402344 476.6875 1024.023438 476.6875 Z M 1003.171875 476.6875 "/><path style=" stroke:none;fill-rule:nonzero;fill:#4e1053;fill-opacity:1;" d="M 1156.449219 567.414062 C 1135.605469 567.414062 1118.75 564.0625 1105.878906 557.375 C 1093.011719 550.679688 1083.226562 541.675781 1076.535156 530.355469 C 1070.875 522.109375 1072.410156 515.675781 1081.15625 511.050781 L 1095.839844 502.933594 C 1100.464844 500.617188 1104.132812 499.78125 1106.839844 500.421875 C 1109.542969 501.0625 1112.316406 503.449219 1115.144531 507.578125 C 1119.257812 514 1124.398438 518.886719 1130.578125 522.238281 C 1136.753906 525.582031 1145.117188 527.257812 1155.675781 527.257812 C 1182.964844 527.257812 1196.609375 513.359375 1196.609375 485.578125 L 1196.609375 466.273438 C 1190.949219 467.808594 1184.121094 469.34375 1176.128906 470.894531 C 1168.152344 472.441406 1159.535156 473.214844 1150.28125 473.214844 C 1122.996094 473.214844 1102.851562 466.339844 1089.859375 452.578125 C 1076.863281 438.800781 1070.367188 419.808594 1070.367188 395.597656 L 1070.367188 351.96875 C 1070.367188 325.714844 1077.503906 305.644531 1091.78125 291.757812 C 1106.074219 277.863281 1127.886719 270.90625 1157.226562 270.90625 C 1172.925781 270.90625 1186.816406 272.136719 1198.90625 274.589844 C 1211.007812 277.035156 1220.40625 279.792969 1227.101562 282.867188 C 1233.273438 285.699219 1237.199219 288.410156 1238.875 290.984375 C 1240.542969 293.546875 1241.386719 297.921875 1241.386719 304.09375 L 1241.386719 483.253906 C 1241.386719 508.472656 1234.816406 528.804688 1221.679688 544.238281 C 1208.558594 559.683594 1186.816406 567.414062 1156.449219 567.414062 Z M 1156.851562 432.285156 C 1165.074219 432.285156 1172.53125 431.644531 1179.226562 430.363281 C 1185.914062 429.066406 1191.707031 427.90625 1196.609375 426.890625 L 1196.609375 320.703125 C 1196.609375 318.394531 1195.574219 316.851562 1193.511719 316.082031 C 1189.132812 314.789062 1184.113281 313.753906 1178.453125 312.988281 C 1172.792969 312.226562 1166.871094 311.839844 1160.695312 311.839844 C 1144.996094 311.839844 1133.476562 315.1875 1126.144531 321.878906 C 1118.808594 328.554688 1115.144531 339.097656 1115.144531 353.519531 L 1115.144531 394.449219 C 1115.144531 406.558594 1118.675781 415.890625 1125.746094 422.457031 C 1132.828125 429.011719 1143.195312 432.285156 1156.851562 432.285156 Z M 1156.851562 432.285156 "/><path style=" stroke:none;fill-rule:nonzero;fill:#4e1053;fill-opacity:1;" d="M 1293.511719 476.6875 C 1289.132812 476.6875 1286.105469 475.792969 1284.433594 473.988281 C 1282.757812 472.195312 1281.925781 469.105469 1281.925781 464.726562 L 1281.925781 202.953125 C 1281.925781 198.574219 1282.757812 195.492188 1284.433594 193.6875 C 1286.105469 191.894531 1289.132812 190.992188 1293.511719 190.992188 L 1314.738281 190.992188 C 1319.117188 190.992188 1322.203125 191.894531 1324.003906 193.6875 C 1325.820312 195.492188 1326.726562 198.574219 1326.726562 202.953125 L 1326.726562 276.300781 C 1328.523438 275.273438 1333.789062 274.109375 1342.535156 272.828125 C 1351.292969 271.546875 1361.332031 270.90625 1372.652344 270.90625 C 1400.207031 270.90625 1420.480469 277.734375 1433.476562 291.386719 C 1446.464844 305.023438 1452.96875 324.058594 1452.96875 348.5 L 1452.96875 464.726562 C 1452.96875 469.105469 1452.128906 472.195312 1450.457031 473.988281 C 1448.78125 475.792969 1445.632812 476.6875 1441.007812 476.6875 L 1420.152344 476.6875 C 1415.773438 476.6875 1412.683594 475.792969 1410.886719 473.988281 C 1409.085938 472.195312 1408.191406 469.105469 1408.191406 464.726562 L 1408.191406 349.671875 C 1408.191406 324.453125 1394.160156 311.839844 1366.113281 311.839844 C 1356.585938 311.839844 1348.089844 312.550781 1340.613281 313.972656 C 1333.148438 315.382812 1328.523438 316.589844 1326.726562 317.605469 L 1326.726562 464.726562 C 1326.726562 469.105469 1325.820312 472.195312 1324.003906 473.988281 C 1322.203125 475.792969 1319.117188 476.6875 1314.738281 476.6875 Z M 1293.511719 476.6875 "/><path style=" stroke:none;fill-rule:nonzero;fill:#4e1053;fill-opacity:1;" d="M 1600.082031 476.6875 C 1578.453125 476.6875 1561.140625 474.25 1548.148438 469.371094 C 1535.152344 464.476562 1525.753906 455.792969 1519.953125 443.3125 C 1514.167969 430.816406 1511.277344 413.5 1511.277344 391.351562 L 1511.277344 318.007812 L 1485.027344 318.007812 C 1480.648438 318.007812 1477.554688 317.113281 1475.738281 315.308594 C 1473.933594 313.492188 1473.039062 310.410156 1473.039062 306.042969 L 1473.039062 288.289062 C 1473.039062 283.910156 1473.933594 280.886719 1475.738281 279.210938 C 1477.554688 277.542969 1480.648438 276.699219 1485.027344 276.699219 L 1511.277344 276.699219 L 1511.277344 241.9375 C 1511.277344 237.558594 1512.171875 234.539062 1513.972656 232.886719 C 1515.769531 231.214844 1518.859375 230.375 1523.238281 230.375 L 1544.464844 230.375 C 1548.84375 230.375 1551.867188 231.214844 1553.542969 232.886719 C 1555.210938 234.539062 1556.050781 237.558594 1556.050781 241.9375 L 1556.050781 276.699219 L 1600.457031 276.699219 C 1604.835938 276.699219 1607.859375 277.542969 1609.535156 279.210938 C 1611.203125 280.886719 1612.042969 283.910156 1612.042969 288.289062 L 1612.042969 306.042969 C 1612.042969 310.410156 1611.203125 313.492188 1609.535156 315.308594 C 1607.859375 317.113281 1604.835938 318.007812 1600.457031 318.007812 L 1556.050781 318.007812 L 1556.050781 389.804688 C 1556.050781 402.425781 1557.46875 411.898438 1560.296875 418.214844 C 1563.128906 424.515625 1567.753906 428.757812 1574.183594 430.949219 C 1580.625 433.125 1589.253906 434.207031 1600.082031 434.207031 C 1604.460938 434.207031 1607.542969 435.113281 1609.347656 436.929688 C 1611.140625 438.730469 1612.042969 441.816406 1612.042969 446.195312 L 1612.042969 464.324219 C 1612.042969 468.703125 1611.140625 471.867188 1609.347656 473.804688 C 1607.542969 475.726562 1604.460938 476.6875 1600.082031 476.6875 Z M 1600.082031 476.6875 "/><path style=" stroke:none;fill-rule:nonzero;fill:#4e1053;fill-opacity:1;" d="M 1714.730469 482.480469 C 1692.089844 482.480469 1673.617188 478.429688 1659.328125 470.332031 C 1645.050781 462.214844 1634.949219 450.695312 1629.023438 435.753906 C 1625.9375 427.785156 1628.523438 422.378906 1636.765625 419.546875 L 1654.121094 414.128906 C 1658.246094 412.847656 1661.46875 412.660156 1663.785156 413.566406 C 1666.097656 414.460938 1668.152344 417.089844 1669.953125 421.46875 C 1673.050781 428.945312 1678.132812 434.359375 1685.199219 437.703125 C 1692.28125 441.054688 1701.742188 442.722656 1713.582031 442.722656 C 1741.117188 442.722656 1754.886719 435.128906 1754.886719 419.921875 C 1754.886719 410.917969 1751.023438 404.9375 1743.300781 401.980469 C 1735.589844 399.027344 1724.007812 396.773438 1708.5625 395.222656 C 1699.039062 394.195312 1689.640625 392.714844 1680.367188 390.792969 C 1671.109375 388.855469 1662.679688 385.765625 1655.082031 381.527344 C 1647.5 377.273438 1641.453125 371.285156 1636.953125 363.558594 C 1632.445312 355.835938 1630.199219 345.667969 1630.199219 333.066406 C 1630.199219 314.789062 1636.886719 299.863281 1650.277344 288.289062 C 1663.660156 276.699219 1683.605469 270.90625 1710.113281 270.90625 C 1732.234375 270.90625 1749.929688 274.636719 1763.191406 282.09375 C 1776.449219 289.558594 1786.296875 299.597656 1792.722656 312.210938 C 1795.050781 316.589844 1795.632812 320.074219 1794.457031 322.652344 C 1793.296875 325.214844 1790.539062 327.53125 1786.179688 329.59375 L 1769.171875 336.535156 C 1764.792969 338.339844 1761.570312 338.914062 1759.507812 338.273438 C 1757.457031 337.632812 1755.15625 335.253906 1752.59375 331.144531 C 1749.242188 325.214844 1744.542969 320.324219 1738.496094 316.457031 C 1732.441406 312.597656 1723.234375 310.664062 1710.886719 310.664062 C 1698.261719 310.664062 1689.058594 312.472656 1683.277344 316.082031 C 1677.492188 319.679688 1674.601562 324.949219 1674.601562 331.890625 C 1674.601562 340.914062 1678.390625 346.84375 1685.976562 349.671875 C 1693.570312 352.503906 1704.832031 354.558594 1719.75 355.839844 C 1735.195312 357.390625 1748.839844 360.03125 1760.683594 363.769531 C 1772.515625 367.496094 1781.78125 373.535156 1788.476562 381.898438 C 1795.167969 390.269531 1798.515625 402.300781 1798.515625 418 C 1798.515625 436.796875 1791.441406 452.25 1777.289062 464.351562 C 1763.140625 476.441406 1742.285156 482.480469 1714.730469 482.480469 Z M 1714.730469 482.480469 "/><g clip-rule="nonzero" clip-path="url(#9fc2dd3014)"><g clip-rule="nonzero" clip-path="url(#d6a299b452)"><path style=" stroke:none;fill-rule:nonzero;fill:#dc9542;fill-opacity:1;" d="M 61.476562 281.972656 L 132.117188 281.972656 L 132.117188 476.851562 L 61.476562 476.851562 Z M 61.476562 281.972656 "/></g></g><g clip-rule="nonzero" clip-path="url(#1863a5ff30)"><g clip-rule="nonzero" clip-path="url(#1a56a334d8)"><path style=" stroke:none;fill-rule:nonzero;fill:#dc9542;fill-opacity:1;" d="M 156.242188 135.882812 L 226.882812 135.882812 L 226.882812 476.855469 L 156.242188 476.855469 Z M 156.242188 135.882812 "/></g></g><g clip-rule="nonzero" clip-path="url(#fa5c76345b)"><g clip-rule="nonzero" clip-path="url(#400a284846)"><path style=" stroke:none;fill-rule:nonzero;fill:#dc9542;fill-opacity:1;" d="M 251.105469 202.742188 L 321.746094 202.742188 L 321.746094 477.007812 L 251.105469 477.007812 Z M 251.105469 202.742188 "/></g></g><g clip-rule="nonzero" clip-path="url(#22ca8a87c5)"><g clip-rule="nonzero" clip-path="url(#4b1cfa669f)"><path style=" stroke:none;fill-rule:nonzero;fill:#dc9542;fill-opacity:1;" d="M 345.964844 86.96875 L 416.609375 86.96875 L 416.609375 477.003906 L 345.964844 477.003906 Z M 345.964844 86.96875 "/></g></g><path style="fill:none;stroke-width:59;stroke-linecap:butt;stroke-linejoin:miter;stroke:#4e0f53;stroke-opacity:1;stroke-miterlimit:4;" d="M 0.00380255 29.501235 L 420.180213 29.500804 " transform="matrix(0.226468,-0.169209,0.169395,0.226218,91.122859,329.225368)"/><path style="fill:none;stroke-width:59;stroke-linecap:butt;stroke-linejoin:miter;stroke:#4e0f53;stroke-opacity:1;stroke-miterlimit:4;" d="M -0.00449285 29.502129 L 464.916801 29.498247 " transform="matrix(-0.204956,-0.194658,0.194873,-0.20473,281.011631,361.347691)"/><path style="fill:none;stroke-width:59;stroke-linecap:butt;stroke-linejoin:miter;stroke:#4e0f53;stroke-opacity:1;stroke-miterlimit:4;" d="M -0.000886096 29.493098 L 578.059874 29.497354 " transform="matrix(0.164402,-0.229865,0.230118,0.164221,279.549188,350.113452)"/><g clip-rule="nonzero" clip-path="url(#2e2aacd868)"><g clip-rule="nonzero" clip-path="url(#3c21e220cf)"><path style=" stroke:none;fill-rule:nonzero;fill:#4e0f53;fill-opacity:1;" d="M 77.3125 316.933594 L 114.925781 316.933594 L 114.925781 354.507812 L 77.3125 354.507812 Z M 77.3125 316.933594 "/></g></g><g clip-rule="nonzero" clip-path="url(#82b7d6769e)"><g clip-rule="nonzero" clip-path="url(#a33568aef6)"><path style=" stroke:none;fill-rule:nonzero;fill:#4e0f53;fill-opacity:1;" d="M 172.472656 246.195312 L 210.085938 246.195312 L 210.085938 283.769531 L 172.472656 283.769531 Z M 172.472656 246.195312 "/></g></g><g clip-rule="nonzero" clip-path="url(#570fa09918)"><g clip-rule="nonzero" clip-path="url(#7170f9c584)"><path style=" stroke:none;fill-rule:nonzero;fill:#4e0f53;fill-opacity:1;" d="M 267.53125 336.386719 L 305.144531 336.386719 L 305.144531 373.960938 L 267.53125 373.960938 Z M 267.53125 336.386719 "/></g></g><g clip-rule="nonzero" clip-path="url(#5ce3b0d17c)"><g clip-rule="nonzero" clip-path="url(#df2eb446ba)"><path style=" stroke:none;fill-rule:nonzero;fill:#4e0f53;fill-opacity:1;" d="M 362.480469 202.742188 L 400.09375 202.742188 L 400.09375 240.316406 L 362.480469 240.316406 Z M 362.480469 202.742188 "/></g></g></g></svg>