<svg xmlns="http://www.w3.org/2000/svg" xmlns:xlink="http://www.w3.org/1999/xlink" width="2680" zoomAndPan="magnify" viewBox="0 0 2010 599.999999" height="800" preserveAspectRatio="xMidYMid meet" version="1.2"><defs><clipPath id="ca4744ff75"><path d="M 38.988281 281.972656 L 109.628906 281.972656 L 109.628906 477 L 38.988281 477 Z M 38.988281 281.972656 "/></clipPath><clipPath id="173850fa30"><path d="M 58.785156 281.972656 L 89.832031 281.972656 C 95.085938 281.972656 100.121094 284.054688 103.832031 287.761719 C 107.546875 291.472656 109.628906 296.5 109.628906 301.746094 L 109.628906 457.199219 C 109.628906 462.441406 107.546875 467.472656 103.832031 471.183594 C 100.121094 474.890625 95.085938 476.972656 89.832031 476.972656 L 58.785156 476.972656 C 53.535156 476.972656 48.5 474.890625 44.789062 471.183594 C 41.074219 467.472656 38.988281 462.441406 38.988281 457.199219 L 38.988281 301.746094 C 38.988281 296.5 41.074219 291.472656 44.789062 287.761719 C 48.5 284.054688 53.535156 281.972656 58.785156 281.972656 Z M 58.785156 281.972656 "/></clipPath><clipPath id="ec42357cb7"><path d="M 133.753906 135.882812 L 204.398438 135.882812 L 204.398438 477 L 133.753906 477 Z M 133.753906 135.882812 "/></clipPath><clipPath id="dbd0a843b8"><path d="M 153.550781 135.882812 L 184.601562 135.882812 C 189.851562 135.882812 194.886719 137.96875 198.597656 141.675781 C 202.3125 145.382812 204.398438 150.414062 204.398438 155.660156 L 204.398438 457.199219 C 204.398438 462.441406 202.3125 467.472656 198.597656 471.183594 C 194.886719 474.890625 189.851562 476.972656 184.601562 476.972656 L 153.550781 476.972656 C 148.300781 476.972656 143.265625 474.890625 139.554688 471.183594 C 135.839844 467.472656 133.753906 462.441406 133.753906 457.199219 L 133.753906 155.660156 C 133.753906 150.414062 135.839844 145.382812 139.554688 141.675781 C 143.265625 137.96875 148.300781 135.882812 153.550781 135.882812 Z M 153.550781 135.882812 "/></clipPath><clipPath id="77349561b9"><path d="M 228.617188 202.742188 L 299.261719 202.742188 L 299.261719 477 L 228.617188 477 Z M 228.617188 202.742188 "/></clipPath><clipPath id="37d38f57d3"><path d="M 248.414062 202.742188 L 279.464844 202.742188 C 284.714844 202.742188 289.75 204.828125 293.460938 208.535156 C 297.175781 212.242188 299.261719 217.273438 299.261719 222.519531 L 299.261719 457.199219 C 299.261719 462.441406 297.175781 467.472656 293.460938 471.183594 C 289.75 474.890625 284.714844 476.972656 279.464844 476.972656 L 248.414062 476.972656 C 243.164062 476.972656 238.128906 474.890625 234.414062 471.183594 C 230.703125 467.472656 228.617188 462.441406 228.617188 457.199219 L 228.617188 222.519531 C 228.617188 217.273438 230.703125 212.242188 234.414062 208.535156 C 238.128906 204.828125 243.164062 202.742188 248.414062 202.742188 Z M 248.414062 202.742188 "/></clipPath><clipPath id="72adc6cdb8"><path d="M 323.480469 86.96875 L 394.121094 86.96875 L 394.121094 477 L 323.480469 477 Z M 323.480469 86.96875 "/></clipPath><clipPath id="22768f822d"><path d="M 343.277344 86.96875 L 374.324219 86.96875 C 379.574219 86.96875 384.609375 89.054688 388.324219 92.761719 C 392.035156 96.46875 394.121094 101.5 394.121094 106.746094 L 394.121094 457.199219 C 394.121094 462.441406 392.035156 467.472656 388.324219 471.183594 C 384.609375 474.890625 379.574219 476.972656 374.324219 476.972656 L 343.277344 476.972656 C 338.027344 476.972656 332.988281 474.890625 329.277344 471.183594 C 325.566406 467.472656 323.480469 462.441406 323.480469 457.199219 L 323.480469 106.746094 C 323.480469 101.5 325.566406 96.46875 329.277344 92.761719 C 332.988281 89.054688 338.027344 86.96875 343.277344 86.96875 Z M 343.277344 86.96875 "/></clipPath><clipPath id="f6e9050c2d"><path d="M 54.828125 316.933594 L 92.441406 316.933594 L 92.441406 354.507812 L 54.828125 354.507812 Z M 54.828125 316.933594 "/></clipPath><clipPath id="d846d346b2"><path d="M 73.632812 316.933594 C 63.246094 316.933594 54.828125 325.34375 54.828125 335.71875 C 54.828125 346.09375 63.246094 354.507812 73.632812 354.507812 C 84.019531 354.507812 92.441406 346.09375 92.441406 335.71875 C 92.441406 325.34375 84.019531 316.933594 73.632812 316.933594 Z M 73.632812 316.933594 "/></clipPath><clipPath id="088d2e6810"><path d="M 149.984375 246.195312 L 187.601562 246.195312 L 187.601562 283.769531 L 149.984375 283.769531 Z M 149.984375 246.195312 "/></clipPath><clipPath id="1a12850141"><path d="M 168.792969 246.195312 C 158.40625 246.195312 149.984375 254.605469 149.984375 264.984375 C 149.984375 275.359375 158.40625 283.769531 168.792969 283.769531 C 179.179688 283.769531 187.601562 275.359375 187.601562 264.984375 C 187.601562 254.605469 179.179688 246.195312 168.792969 246.195312 Z M 168.792969 246.195312 "/></clipPath><clipPath id="7e772d49d3"><path d="M 245.042969 336.386719 L 282.660156 336.386719 L 282.660156 373.960938 L 245.042969 373.960938 Z M 245.042969 336.386719 "/></clipPath><clipPath id="ee44b48a47"><path d="M 263.851562 336.386719 C 253.464844 336.386719 245.042969 344.796875 245.042969 355.175781 C 245.042969 365.546875 253.464844 373.960938 263.851562 373.960938 C 274.238281 373.960938 282.660156 365.546875 282.660156 355.175781 C 282.660156 344.796875 274.238281 336.386719 263.851562 336.386719 Z M 263.851562 336.386719 "/></clipPath><clipPath id="5e4f1b0d00"><path d="M 339.992188 202.742188 L 377.609375 202.742188 L 377.609375 240.316406 L 339.992188 240.316406 Z M 339.992188 202.742188 "/></clipPath><clipPath id="7994a2ccc6"><path d="M 358.800781 202.742188 C 348.414062 202.742188 339.992188 211.152344 339.992188 221.53125 C 339.992188 231.90625 348.414062 240.316406 358.800781 240.316406 C 369.1875 240.316406 377.609375 231.90625 377.609375 221.53125 C 377.609375 211.152344 369.1875 202.742188 358.800781 202.742188 Z M 358.800781 202.742188 "/></clipPath><clipPath id="048279a5d2"><path d="M 1807.496094 230.300781 L 1977 230.300781 L 1977 343.359375 L 1807.496094 343.359375 Z M 1807.496094 230.300781 "/></clipPath><clipPath id="42045d824b"><path d="M 1831.007812 230.300781 L 1953.515625 230.300781 C 1966.503906 230.300781 1977.027344 240.832031 1977.027344 253.832031 L 1977.027344 319.824219 C 1977.027344 332.820312 1966.503906 343.359375 1953.515625 343.359375 L 1831.007812 343.359375 C 1818.023438 343.359375 1807.496094 332.820312 1807.496094 319.824219 L 1807.496094 253.832031 C 1807.496094 240.832031 1818.023438 230.300781 1831.007812 230.300781 Z M 1831.007812 230.300781 "/></clipPath></defs><g id="6d7e4a5c50"><path style=" stroke:none;fill-rule:nonzero;fill:#4e1053;fill-opacity:1;" d="M 488.40625 476.6875 C 483.507812 476.6875 480.089844 475.726562 478.15625 473.804688 C 476.230469 471.867188 475.269531 468.449219 475.269531 463.550781 L 475.269531 215.691406 C 475.269531 210.796875 476.230469 207.386719 478.15625 205.464844 C 480.089844 203.527344 483.507812 202.554688 488.40625 202.554688 L 510.410156 202.554688 C 515.546875 202.554688 519.019531 203.527344 520.820312 205.464844 C 522.636719 207.386719 523.546875 210.796875 523.546875 215.691406 L 523.546875 463.550781 C 523.546875 468.449219 522.636719 471.867188 520.820312 473.804688 C 519.019531 475.726562 515.546875 476.6875 510.410156 476.6875 Z M 488.40625 476.6875 "/><path style=" stroke:none;fill-rule:nonzero;fill:#4e1053;fill-opacity:1;" d="M 579.90625 476.6875 C 575.527344 476.6875 572.496094 475.792969 570.828125 473.988281 C 569.152344 472.195312 568.320312 469.105469 568.320312 464.726562 L 568.320312 306.042969 C 568.320312 299.871094 569.28125 295.304688 571.203125 292.347656 C 573.136719 289.375 577.078125 286.601562 583.003906 284.015625 C 590.972656 280.9375 601.007812 277.980469 613.09375 275.152344 C 625.195312 272.320312 640.523438 270.90625 659.074219 270.90625 C 686.609375 270.90625 706.875 277.734375 719.871094 291.386719 C 732.859375 305.023438 739.363281 324.058594 739.363281 348.5 L 739.363281 464.726562 C 739.363281 469.105469 738.460938 472.195312 736.664062 473.988281 C 734.863281 475.792969 731.777344 476.6875 727.398438 476.6875 L 706.546875 476.6875 C 702.167969 476.6875 699.078125 475.792969 697.28125 473.988281 C 695.480469 472.195312 694.585938 469.105469 694.585938 464.726562 L 694.585938 349.671875 C 694.585938 324.453125 680.554688 311.839844 652.503906 311.839844 C 645.296875 311.839844 638.601562 312.359375 632.425781 313.386719 C 626.246094 314.402344 620.585938 315.5625 615.445312 316.859375 C 613.894531 317.625 613.121094 318.90625 613.121094 320.703125 L 613.121094 464.726562 C 613.121094 469.105469 612.214844 472.195312 610.398438 473.988281 C 608.597656 475.792969 605.519531 476.6875 601.160156 476.6875 Z M 579.90625 476.6875 "/><path style=" stroke:none;fill-rule:nonzero;fill:#4e1053;fill-opacity:1;" d="M 855.183594 482.480469 C 832.542969 482.480469 814.070312 478.429688 799.78125 470.332031 C 785.503906 462.214844 775.402344 450.695312 769.476562 435.753906 C 766.390625 427.785156 768.976562 422.378906 777.21875 419.546875 L 794.574219 414.128906 C 798.699219 412.847656 801.921875 412.660156 804.238281 413.566406 C 806.550781 414.460938 808.605469 417.089844 810.40625 421.46875 C 813.503906 428.945312 818.585938 434.359375 825.652344 437.703125 C 832.734375 441.054688 842.195312 442.722656 854.035156 442.722656 C 881.570312 442.722656 895.339844 435.128906 895.339844 419.921875 C 895.339844 410.917969 891.476562 404.9375 883.753906 401.980469 C 876.042969 399.027344 864.460938 396.773438 849.015625 395.222656 C 839.492188 394.195312 830.09375 392.714844 820.820312 390.792969 C 811.5625 388.855469 803.132812 385.765625 795.535156 381.527344 C 787.953125 377.273438 781.90625 371.285156 777.40625 363.558594 C 772.898438 355.835938 770.652344 345.667969 770.652344 333.066406 C 770.652344 314.789062 777.339844 299.863281 790.730469 288.289062 C 804.113281 276.699219 824.058594 270.90625 850.566406 270.90625 C 872.6875 270.90625 890.382812 274.636719 903.644531 282.09375 C 916.902344 289.558594 926.75 299.597656 933.175781 312.210938 C 935.503906 316.589844 936.085938 320.074219 934.910156 322.652344 C 933.75 325.214844 930.992188 327.53125 926.632812 329.59375 L 909.625 336.535156 C 905.246094 338.339844 902.023438 338.914062 899.960938 338.273438 C 897.910156 337.632812 895.609375 335.253906 893.046875 331.144531 C 889.695312 325.214844 884.996094 320.324219 878.949219 316.457031 C 872.894531 312.597656 863.6875 310.664062 851.339844 310.664062 C 838.714844 310.664062 829.511719 312.472656 823.730469 316.082031 C 817.945312 319.679688 815.054688 324.949219 815.054688 331.890625 C 815.054688 340.914062 818.84375 346.84375 826.429688 349.671875 C 834.023438 352.503906 845.285156 354.558594 860.203125 355.839844 C 875.648438 357.390625 889.292969 360.03125 901.136719 363.769531 C 912.96875 367.496094 922.234375 373.535156 928.929688 381.898438 C 935.621094 390.269531 938.96875 402.300781 938.96875 418 C 938.96875 436.796875 931.894531 452.25 917.742188 464.351562 C 903.59375 476.441406 882.738281 482.480469 855.183594 482.480469 Z M 855.183594 482.480469 "/><path style=" stroke:none;fill-rule:nonzero;fill:#4e1053;fill-opacity:1;" d="M 989.5625 242.335938 C 980.804688 242.335938 974.8125 240.800781 971.59375 237.71875 C 968.390625 234.621094 966.789062 228.691406 966.789062 219.933594 L 966.789062 216.464844 C 966.789062 207.460938 968.390625 201.539062 971.59375 198.707031 C 974.8125 195.878906 980.804688 194.464844 989.5625 194.464844 L 992.632812 194.464844 C 1001.660156 194.464844 1007.707031 195.878906 1010.789062 198.707031 C 1013.886719 201.539062 1015.4375 207.460938 1015.4375 216.464844 L 1015.4375 219.933594 C 1015.4375 228.691406 1013.886719 234.621094 1010.789062 237.71875 C 1007.707031 240.800781 1001.660156 242.335938 992.632812 242.335938 Z M 980.671875 476.6875 C 976.292969 476.6875 973.203125 475.792969 971.40625 473.988281 C 969.605469 472.195312 968.710938 469.105469 968.710938 464.726562 L 968.710938 288.289062 C 968.710938 283.910156 969.605469 280.886719 971.40625 279.210938 C 973.203125 277.542969 976.292969 276.699219 980.671875 276.699219 L 1001.523438 276.699219 C 1005.902344 276.699219 1008.988281 277.542969 1010.789062 279.210938 C 1012.585938 280.886719 1013.488281 283.910156 1013.488281 288.289062 L 1013.488281 464.726562 C 1013.488281 469.105469 1012.585938 472.195312 1010.789062 473.988281 C 1008.988281 475.792969 1005.902344 476.6875 1001.523438 476.6875 Z M 980.671875 476.6875 "/><path style=" stroke:none;fill-rule:nonzero;fill:#4e1053;fill-opacity:1;" d="M 1133.949219 567.414062 C 1113.105469 567.414062 1096.25 564.0625 1083.378906 557.375 C 1070.511719 550.679688 1060.726562 541.675781 1054.035156 530.355469 C 1048.375 522.109375 1049.910156 515.675781 1058.65625 511.050781 L 1073.339844 502.933594 C 1077.964844 500.617188 1081.632812 499.78125 1084.339844 500.421875 C 1087.042969 501.0625 1089.816406 503.449219 1092.644531 507.578125 C 1096.757812 514 1101.898438 518.886719 1108.078125 522.238281 C 1114.253906 525.582031 1122.617188 527.257812 1133.175781 527.257812 C 1160.464844 527.257812 1174.109375 513.359375 1174.109375 485.578125 L 1174.109375 466.273438 C 1168.449219 467.808594 1161.621094 469.34375 1153.628906 470.894531 C 1145.652344 472.441406 1137.035156 473.214844 1127.78125 473.214844 C 1100.496094 473.214844 1080.351562 466.339844 1067.359375 452.578125 C 1054.363281 438.800781 1047.867188 419.808594 1047.867188 395.597656 L 1047.867188 351.96875 C 1047.867188 325.714844 1055.003906 305.644531 1069.28125 291.757812 C 1083.574219 277.863281 1105.386719 270.90625 1134.726562 270.90625 C 1150.425781 270.90625 1164.316406 272.136719 1176.40625 274.589844 C 1188.507812 277.035156 1197.90625 279.792969 1204.601562 282.867188 C 1210.773438 285.699219 1214.699219 288.410156 1216.375 290.984375 C 1218.042969 293.546875 1218.886719 297.921875 1218.886719 304.09375 L 1218.886719 483.253906 C 1218.886719 508.472656 1212.316406 528.804688 1199.179688 544.238281 C 1186.058594 559.683594 1164.316406 567.414062 1133.949219 567.414062 Z M 1134.351562 432.285156 C 1142.574219 432.285156 1150.03125 431.644531 1156.726562 430.363281 C 1163.414062 429.066406 1169.207031 427.90625 1174.109375 426.890625 L 1174.109375 320.703125 C 1174.109375 318.394531 1173.074219 316.851562 1171.011719 316.082031 C 1166.632812 314.789062 1161.613281 313.753906 1155.953125 312.988281 C 1150.292969 312.226562 1144.371094 311.839844 1138.195312 311.839844 C 1122.496094 311.839844 1110.976562 315.1875 1103.644531 321.878906 C 1096.308594 328.554688 1092.644531 339.097656 1092.644531 353.519531 L 1092.644531 394.449219 C 1092.644531 406.558594 1096.175781 415.890625 1103.246094 422.457031 C 1110.328125 429.011719 1120.695312 432.285156 1134.351562 432.285156 Z M 1134.351562 432.285156 "/><path style=" stroke:none;fill-rule:nonzero;fill:#4e1053;fill-opacity:1;" d="M 1271.011719 476.6875 C 1266.632812 476.6875 1263.605469 475.792969 1261.933594 473.988281 C 1260.257812 472.195312 1259.425781 469.105469 1259.425781 464.726562 L 1259.425781 202.953125 C 1259.425781 198.574219 1260.257812 195.492188 1261.933594 193.6875 C 1263.605469 191.894531 1266.632812 190.992188 1271.011719 190.992188 L 1292.238281 190.992188 C 1296.617188 190.992188 1299.703125 191.894531 1301.503906 193.6875 C 1303.320312 195.492188 1304.226562 198.574219 1304.226562 202.953125 L 1304.226562 276.300781 C 1306.023438 275.273438 1311.289062 274.109375 1320.035156 272.828125 C 1328.792969 271.546875 1338.832031 270.90625 1350.152344 270.90625 C 1377.707031 270.90625 1397.980469 277.734375 1410.976562 291.386719 C 1423.964844 305.023438 1430.46875 324.058594 1430.46875 348.5 L 1430.46875 464.726562 C 1430.46875 469.105469 1429.628906 472.195312 1427.957031 473.988281 C 1426.28125 475.792969 1423.132812 476.6875 1418.507812 476.6875 L 1397.652344 476.6875 C 1393.273438 476.6875 1390.183594 475.792969 1388.386719 473.988281 C 1386.585938 472.195312 1385.691406 469.105469 1385.691406 464.726562 L 1385.691406 349.671875 C 1385.691406 324.453125 1371.660156 311.839844 1343.613281 311.839844 C 1334.085938 311.839844 1325.589844 312.550781 1318.113281 313.972656 C 1310.648438 315.382812 1306.023438 316.589844 1304.226562 317.605469 L 1304.226562 464.726562 C 1304.226562 469.105469 1303.320312 472.195312 1301.503906 473.988281 C 1299.703125 475.792969 1296.617188 476.6875 1292.238281 476.6875 Z M 1271.011719 476.6875 "/><path style=" stroke:none;fill-rule:nonzero;fill:#4e1053;fill-opacity:1;" d="M 1577.582031 476.6875 C 1555.953125 476.6875 1538.640625 474.25 1525.648438 469.371094 C 1512.652344 464.476562 1503.253906 455.792969 1497.453125 443.3125 C 1491.667969 430.816406 1488.777344 413.5 1488.777344 391.351562 L 1488.777344 318.007812 L 1462.527344 318.007812 C 1458.148438 318.007812 1455.054688 317.113281 1453.238281 315.308594 C 1451.433594 313.492188 1450.539062 310.410156 1450.539062 306.042969 L 1450.539062 288.289062 C 1450.539062 283.910156 1451.433594 280.886719 1453.238281 279.210938 C 1455.054688 277.542969 1458.148438 276.699219 1462.527344 276.699219 L 1488.777344 276.699219 L 1488.777344 241.9375 C 1488.777344 237.558594 1489.671875 234.539062 1491.472656 232.886719 C 1493.269531 231.214844 1496.359375 230.375 1500.738281 230.375 L 1521.964844 230.375 C 1526.34375 230.375 1529.367188 231.214844 1531.042969 232.886719 C 1532.710938 234.539062 1533.550781 237.558594 1533.550781 241.9375 L 1533.550781 276.699219 L 1577.957031 276.699219 C 1582.335938 276.699219 1585.359375 277.542969 1587.035156 279.210938 C 1588.703125 280.886719 1589.542969 283.910156 1589.542969 288.289062 L 1589.542969 306.042969 C 1589.542969 310.410156 1588.703125 313.492188 1587.035156 315.308594 C 1585.359375 317.113281 1582.335938 318.007812 1577.957031 318.007812 L 1533.550781 318.007812 L 1533.550781 389.804688 C 1533.550781 402.425781 1534.96875 411.898438 1537.796875 418.214844 C 1540.628906 424.515625 1545.253906 428.757812 1551.683594 430.949219 C 1558.125 433.125 1566.753906 434.207031 1577.582031 434.207031 C 1581.960938 434.207031 1585.042969 435.113281 1586.847656 436.929688 C 1588.640625 438.730469 1589.542969 441.816406 1589.542969 446.195312 L 1589.542969 464.324219 C 1589.542969 468.703125 1588.640625 471.867188 1586.847656 473.804688 C 1585.042969 475.726562 1581.960938 476.6875 1577.582031 476.6875 Z M 1577.582031 476.6875 "/><path style=" stroke:none;fill-rule:nonzero;fill:#4e1053;fill-opacity:1;" d="M 1692.230469 482.480469 C 1669.589844 482.480469 1651.117188 478.429688 1636.828125 470.332031 C 1622.550781 462.214844 1612.449219 450.695312 1606.523438 435.753906 C 1603.4375 427.785156 1606.023438 422.378906 1614.265625 419.546875 L 1631.621094 414.128906 C 1635.746094 412.847656 1638.96875 412.660156 1641.285156 413.566406 C 1643.597656 414.460938 1645.652344 417.089844 1647.453125 421.46875 C 1650.550781 428.945312 1655.632812 434.359375 1662.699219 437.703125 C 1669.78125 441.054688 1679.242188 442.722656 1691.082031 442.722656 C 1718.617188 442.722656 1732.386719 435.128906 1732.386719 419.921875 C 1732.386719 410.917969 1728.523438 404.9375 1720.800781 401.980469 C 1713.089844 399.027344 1701.507812 396.773438 1686.0625 395.222656 C 1676.539062 394.195312 1667.140625 392.714844 1657.867188 390.792969 C 1648.609375 388.855469 1640.179688 385.765625 1632.582031 381.527344 C 1625 377.273438 1618.953125 371.285156 1614.453125 363.558594 C 1609.945312 355.835938 1607.699219 345.667969 1607.699219 333.066406 C 1607.699219 314.789062 1614.386719 299.863281 1627.777344 288.289062 C 1641.160156 276.699219 1661.105469 270.90625 1687.613281 270.90625 C 1709.734375 270.90625 1727.429688 274.636719 1740.691406 282.09375 C 1753.949219 289.558594 1763.796875 299.597656 1770.222656 312.210938 C 1772.550781 316.589844 1773.132812 320.074219 1771.957031 322.652344 C 1770.796875 325.214844 1768.039062 327.53125 1763.679688 329.59375 L 1746.671875 336.535156 C 1742.292969 338.339844 1739.070312 338.914062 1737.007812 338.273438 C 1734.957031 337.632812 1732.65625 335.253906 1730.09375 331.144531 C 1726.742188 325.214844 1722.042969 320.324219 1715.996094 316.457031 C 1709.941406 312.597656 1700.734375 310.664062 1688.386719 310.664062 C 1675.761719 310.664062 1666.558594 312.472656 1660.777344 316.082031 C 1654.992188 319.679688 1652.101562 324.949219 1652.101562 331.890625 C 1652.101562 340.914062 1655.890625 346.84375 1663.476562 349.671875 C 1671.070312 352.503906 1682.332031 354.558594 1697.25 355.839844 C 1712.695312 357.390625 1726.339844 360.03125 1738.183594 363.769531 C 1750.015625 367.496094 1759.28125 373.535156 1765.976562 381.898438 C 1772.667969 390.269531 1776.015625 402.300781 1776.015625 418 C 1776.015625 436.796875 1768.941406 452.25 1754.789062 464.351562 C 1740.640625 476.441406 1719.785156 482.480469 1692.230469 482.480469 Z M 1692.230469 482.480469 "/><g clip-rule="nonzero" clip-path="url(#ca4744ff75)"><g clip-rule="nonzero" clip-path="url(#173850fa30)"><path style=" stroke:none;fill-rule:nonzero;fill:#dc9542;fill-opacity:1;" d="M 38.988281 281.972656 L 109.628906 281.972656 L 109.628906 476.851562 L 38.988281 476.851562 Z M 38.988281 281.972656 "/></g></g><g clip-rule="nonzero" clip-path="url(#ec42357cb7)"><g clip-rule="nonzero" clip-path="url(#dbd0a843b8)"><path style=" stroke:none;fill-rule:nonzero;fill:#dc9542;fill-opacity:1;" d="M 133.753906 135.882812 L 204.398438 135.882812 L 204.398438 476.855469 L 133.753906 476.855469 Z M 133.753906 135.882812 "/></g></g><g clip-rule="nonzero" clip-path="url(#77349561b9)"><g clip-rule="nonzero" clip-path="url(#37d38f57d3)"><path style=" stroke:none;fill-rule:nonzero;fill:#dc9542;fill-opacity:1;" d="M 228.617188 202.742188 L 299.261719 202.742188 L 299.261719 477.007812 L 228.617188 477.007812 Z M 228.617188 202.742188 "/></g></g><g clip-rule="nonzero" clip-path="url(#72adc6cdb8)"><g clip-rule="nonzero" clip-path="url(#22768f822d)"><path style=" stroke:none;fill-rule:nonzero;fill:#dc9542;fill-opacity:1;" d="M 323.480469 86.96875 L 394.121094 86.96875 L 394.121094 477.003906 L 323.480469 477.003906 Z M 323.480469 86.96875 "/></g></g><path style="fill:none;stroke-width:59;stroke-linecap:butt;stroke-linejoin:miter;stroke:#4e0f53;stroke-opacity:1;stroke-miterlimit:4;" d="M -0.00154952 29.497232 L 420.185921 29.505074 " transform="matrix(0.226468,-0.169209,0.169395,0.226218,68.636468,329.225368)"/><path style="fill:none;stroke-width:59;stroke-linecap:butt;stroke-linejoin:miter;stroke:#4e0f53;stroke-opacity:1;stroke-miterlimit:4;" d="M 0.000313934 29.497559 L 464.911598 29.503194 " transform="matrix(-0.204956,-0.194658,0.194873,-0.20473,258.525225,361.347691)"/><path style="fill:none;stroke-width:59;stroke-linecap:butt;stroke-linejoin:miter;stroke:#4e0f53;stroke-opacity:1;stroke-miterlimit:4;" d="M 0.00328743 29.49894 L 578.064048 29.503196 " transform="matrix(0.164402,-0.229865,0.230118,0.164221,257.062783,350.113452)"/><g clip-rule="nonzero" clip-path="url(#f6e9050c2d)"><g clip-rule="nonzero" clip-path="url(#d846d346b2)"><path style=" stroke:none;fill-rule:nonzero;fill:#4e0f53;fill-opacity:1;" d="M 54.828125 316.933594 L 92.441406 316.933594 L 92.441406 354.507812 L 54.828125 354.507812 Z M 54.828125 316.933594 "/></g></g><g clip-rule="nonzero" clip-path="url(#088d2e6810)"><g clip-rule="nonzero" clip-path="url(#1a12850141)"><path style=" stroke:none;fill-rule:nonzero;fill:#4e0f53;fill-opacity:1;" d="M 149.984375 246.195312 L 187.601562 246.195312 L 187.601562 283.769531 L 149.984375 283.769531 Z M 149.984375 246.195312 "/></g></g><g clip-rule="nonzero" clip-path="url(#7e772d49d3)"><g clip-rule="nonzero" clip-path="url(#ee44b48a47)"><path style=" stroke:none;fill-rule:nonzero;fill:#4e0f53;fill-opacity:1;" d="M 245.042969 336.386719 L 282.660156 336.386719 L 282.660156 373.960938 L 245.042969 373.960938 Z M 245.042969 336.386719 "/></g></g><g clip-rule="nonzero" clip-path="url(#5e4f1b0d00)"><g clip-rule="nonzero" clip-path="url(#7994a2ccc6)"><path style=" stroke:none;fill-rule:nonzero;fill:#4e0f53;fill-opacity:1;" d="M 339.992188 202.742188 L 377.609375 202.742188 L 377.609375 240.316406 L 339.992188 240.316406 Z M 339.992188 202.742188 "/></g></g><g clip-rule="nonzero" clip-path="url(#048279a5d2)"><g clip-rule="nonzero" clip-path="url(#42045d824b)"><path style=" stroke:none;fill-rule:nonzero;fill:#0456c4;fill-opacity:1;" d="M 1807.496094 230.300781 L 1976.941406 230.300781 L 1976.941406 343.359375 L 1807.496094 343.359375 Z M 1807.496094 230.300781 "/></g></g><path style=" stroke:none;fill-rule:nonzero;fill:#ffffff;fill-opacity:1;" d="M 1846.363281 315.335938 C 1839.421875 315.335938 1834.058594 313.5625 1830.277344 310.003906 C 1826.496094 306.453125 1824.605469 301.609375 1824.605469 295.46875 L 1824.605469 278.785156 C 1824.605469 272.703125 1826.484375 267.886719 1830.242188 264.34375 C 1833.996094 260.789062 1839.371094 259.011719 1846.363281 259.011719 C 1851.9375 259.011719 1856.421875 260.105469 1859.816406 262.285156 C 1863.21875 264.460938 1865.632812 267.597656 1867.050781 271.710938 C 1867.398438 272.632812 1867.449219 273.339844 1867.195312 273.820312 C 1866.941406 274.292969 1866.359375 274.707031 1865.449219 275.058594 L 1861.34375 276.511719 C 1860.382812 276.769531 1859.675781 276.8125 1859.214844 276.640625 C 1858.753906 276.457031 1858.347656 275.886719 1858 274.914062 C 1857.183594 272.582031 1855.839844 270.835938 1853.964844 269.671875 C 1852.09375 268.5 1849.5625 267.910156 1846.363281 267.910156 C 1842.460938 267.910156 1839.457031 268.835938 1837.347656 270.691406 C 1835.242188 272.546875 1834.1875 275.222656 1834.1875 278.714844 L 1834.1875 295.542969 C 1834.1875 299.046875 1835.242188 301.742188 1837.347656 303.617188 C 1839.457031 305.488281 1842.460938 306.421875 1846.363281 306.421875 C 1849.5625 306.421875 1852.09375 305.828125 1853.964844 304.636719 C 1855.839844 303.449219 1857.207031 301.6875 1858.070312 299.34375 C 1858.433594 298.390625 1858.839844 297.792969 1859.289062 297.5625 C 1859.746094 297.332031 1860.433594 297.394531 1861.34375 297.742188 L 1865.449219 299.199219 C 1866.359375 299.554688 1866.941406 299.972656 1867.195312 300.453125 C 1867.449219 300.941406 1867.421875 301.636719 1867.125 302.546875 C 1865.707031 306.65625 1863.292969 309.816406 1859.886719 312.023438 C 1856.492188 314.230469 1851.984375 315.335938 1846.363281 315.335938 Z M 1846.363281 315.335938 "/><path style=" stroke:none;fill-rule:nonzero;fill:#ffffff;fill-opacity:1;" d="M 1890.085938 314.1875 C 1889.125 314.1875 1888.453125 314.003906 1888.066406 313.625 C 1887.691406 313.238281 1887.503906 312.566406 1887.503906 311.605469 L 1887.503906 269.054688 L 1874.269531 269.054688 C 1873.3125 269.054688 1872.640625 268.867188 1872.253906 268.492188 C 1871.875 268.105469 1871.6875 267.429688 1871.6875 266.472656 L 1871.6875 262.742188 C 1871.6875 261.773438 1871.875 261.101562 1872.253906 260.722656 C 1872.640625 260.335938 1873.3125 260.140625 1874.269531 260.140625 L 1910.242188 260.140625 C 1911.261719 260.140625 1911.941406 260.335938 1912.296875 260.722656 C 1912.648438 261.101562 1912.824219 261.773438 1912.824219 262.742188 L 1912.824219 266.472656 C 1912.824219 267.429688 1912.648438 268.105469 1912.296875 268.492188 C 1911.941406 268.867188 1911.261719 269.054688 1910.242188 269.054688 L 1897.011719 269.054688 L 1897.011719 311.605469 C 1897.011719 312.566406 1896.832031 313.238281 1896.484375 313.625 C 1896.128906 314.003906 1895.445312 314.1875 1894.429688 314.1875 Z M 1890.085938 314.1875 "/><path style=" stroke:none;fill-rule:nonzero;fill:#ffffff;fill-opacity:1;" d="M 1940.4375 315.335938 C 1933.492188 315.335938 1928.132812 313.5625 1924.351562 310.003906 C 1920.570312 306.453125 1918.679688 301.609375 1918.679688 295.46875 L 1918.679688 278.785156 C 1918.679688 272.703125 1920.554688 267.886719 1924.316406 264.34375 C 1928.066406 260.789062 1933.445312 259.011719 1940.4375 259.011719 C 1946.007812 259.011719 1950.492188 260.105469 1953.886719 262.285156 C 1957.292969 264.460938 1959.707031 267.597656 1961.125 271.710938 C 1961.472656 272.632812 1961.523438 273.339844 1961.269531 273.820312 C 1961.015625 274.292969 1960.433594 274.707031 1959.523438 275.058594 L 1955.414062 276.511719 C 1954.457031 276.769531 1953.746094 276.8125 1953.289062 276.640625 C 1952.824219 276.457031 1952.421875 275.886719 1952.070312 274.914062 C 1951.257812 272.582031 1949.914062 270.835938 1948.035156 269.671875 C 1946.167969 268.5 1943.636719 267.910156 1940.4375 267.910156 C 1936.535156 267.910156 1933.53125 268.835938 1931.421875 270.691406 C 1929.3125 272.546875 1928.257812 275.222656 1928.257812 278.714844 L 1928.257812 295.542969 C 1928.257812 299.046875 1929.3125 301.742188 1931.421875 303.617188 C 1933.53125 305.488281 1936.535156 306.421875 1940.4375 306.421875 C 1943.636719 306.421875 1946.167969 305.828125 1948.035156 304.636719 C 1949.914062 303.449219 1951.28125 301.6875 1952.144531 299.34375 C 1952.507812 298.390625 1952.910156 297.792969 1953.363281 297.5625 C 1953.820312 297.332031 1954.507812 297.394531 1955.414062 297.742188 L 1959.523438 299.199219 C 1960.433594 299.554688 1961.015625 299.972656 1961.269531 300.453125 C 1961.523438 300.941406 1961.496094 301.636719 1961.195312 302.546875 C 1959.777344 306.65625 1957.363281 309.816406 1953.960938 312.023438 C 1950.566406 314.230469 1946.058594 315.335938 1940.4375 315.335938 Z M 1940.4375 315.335938 "/></g></svg>