<svg xmlns="http://www.w3.org/2000/svg" xmlns:xlink="http://www.w3.org/1999/xlink" width="2680" zoomAndPan="magnify" viewBox="0 0 2010 599.999999" height="800" preserveAspectRatio="xMidYMid meet" version="1.2"><defs><clipPath id="bb1dd954f0"><path d="M 55.480469 281.972656 L 126.121094 281.972656 L 126.121094 477 L 55.480469 477 Z M 55.480469 281.972656 "/></clipPath><clipPath id="0a93dea546"><path d="M 75.277344 281.972656 L 106.324219 281.972656 C 111.574219 281.972656 116.609375 284.054688 120.324219 287.761719 C 124.035156 291.472656 126.121094 296.5 126.121094 301.746094 L 126.121094 457.199219 C 126.121094 462.441406 124.035156 467.472656 120.324219 471.183594 C 116.609375 474.890625 111.574219 476.972656 106.324219 476.972656 L 75.277344 476.972656 C 70.023438 476.972656 64.992188 474.890625 61.277344 471.183594 C 57.566406 467.472656 55.480469 462.441406 55.480469 457.199219 L 55.480469 301.746094 C 55.480469 296.5 57.566406 291.472656 61.277344 287.761719 C 64.992188 284.054688 70.023438 281.972656 75.277344 281.972656 Z M 75.277344 281.972656 "/></clipPath><clipPath id="5b2ec2a8a9"><path d="M 150.246094 135.882812 L 220.886719 135.882812 L 220.886719 477 L 150.246094 477 Z M 150.246094 135.882812 "/></clipPath><clipPath id="7eec5dbf3f"><path d="M 170.042969 135.882812 L 201.089844 135.882812 C 206.339844 135.882812 211.375 137.96875 215.089844 141.675781 C 218.800781 145.382812 220.886719 150.414062 220.886719 155.660156 L 220.886719 457.199219 C 220.886719 462.441406 218.800781 467.472656 215.089844 471.183594 C 211.375 474.890625 206.339844 476.972656 201.089844 476.972656 L 170.042969 476.972656 C 164.792969 476.972656 159.757812 474.890625 156.042969 471.183594 C 152.332031 467.472656 150.246094 462.441406 150.246094 457.199219 L 150.246094 155.660156 C 150.246094 150.414062 152.332031 145.382812 156.042969 141.675781 C 159.757812 137.96875 164.792969 135.882812 170.042969 135.882812 Z M 170.042969 135.882812 "/></clipPath><clipPath id="635392054e"><path d="M 245.109375 202.742188 L 315.75 202.742188 L 315.75 477 L 245.109375 477 Z M 245.109375 202.742188 "/></clipPath><clipPath id="eb4a169190"><path d="M 264.90625 202.742188 L 295.953125 202.742188 C 301.203125 202.742188 306.238281 204.828125 309.949219 208.535156 C 313.664062 212.242188 315.75 217.273438 315.75 222.519531 L 315.75 457.199219 C 315.75 462.441406 313.664062 467.472656 309.949219 471.183594 C 306.238281 474.890625 301.203125 476.972656 295.953125 476.972656 L 264.90625 476.972656 C 259.652344 476.972656 254.617188 474.890625 250.90625 471.183594 C 247.195312 467.472656 245.109375 462.441406 245.109375 457.199219 L 245.109375 222.519531 C 245.109375 217.273438 247.195312 212.242188 250.90625 208.535156 C 254.617188 204.828125 259.652344 202.742188 264.90625 202.742188 Z M 264.90625 202.742188 "/></clipPath><clipPath id="62af888dc3"><path d="M 339.96875 86.96875 L 410.613281 86.96875 L 410.613281 477 L 339.96875 477 Z M 339.96875 86.96875 "/></clipPath><clipPath id="fa7f5b60d5"><path d="M 359.765625 86.96875 L 390.816406 86.96875 C 396.066406 86.96875 401.101562 89.054688 404.8125 92.761719 C 408.527344 96.46875 410.613281 101.5 410.613281 106.746094 L 410.613281 457.199219 C 410.613281 462.441406 408.527344 467.472656 404.8125 471.183594 C 401.101562 474.890625 396.066406 476.972656 390.816406 476.972656 L 359.765625 476.972656 C 354.515625 476.972656 349.480469 474.890625 345.769531 471.183594 C 342.054688 467.472656 339.96875 462.441406 339.96875 457.199219 L 339.96875 106.746094 C 339.96875 101.5 342.054688 96.46875 345.769531 92.761719 C 349.480469 89.054688 354.515625 86.96875 359.765625 86.96875 Z M 359.765625 86.96875 "/></clipPath><clipPath id="0502e81d0b"><path d="M 71.316406 316.933594 L 108.929688 316.933594 L 108.929688 354.507812 L 71.316406 354.507812 Z M 71.316406 316.933594 "/></clipPath><clipPath id="59160c2a24"><path d="M 90.125 316.933594 C 79.738281 316.933594 71.316406 325.34375 71.316406 335.71875 C 71.316406 346.09375 79.738281 354.507812 90.125 354.507812 C 100.511719 354.507812 108.929688 346.09375 108.929688 335.71875 C 108.929688 325.34375 100.511719 316.933594 90.125 316.933594 Z M 90.125 316.933594 "/></clipPath><clipPath id="db935f56b6"><path d="M 166.476562 246.195312 L 204.089844 246.195312 L 204.089844 283.769531 L 166.476562 283.769531 Z M 166.476562 246.195312 "/></clipPath><clipPath id="b9421bf3f8"><path d="M 185.28125 246.195312 C 174.898438 246.195312 166.476562 254.605469 166.476562 264.984375 C 166.476562 275.359375 174.898438 283.769531 185.28125 283.769531 C 195.671875 283.769531 204.089844 275.359375 204.089844 264.984375 C 204.089844 254.605469 195.671875 246.195312 185.28125 246.195312 Z M 185.28125 246.195312 "/></clipPath><clipPath id="8787fb2f4a"><path d="M 261.535156 336.386719 L 299.148438 336.386719 L 299.148438 373.960938 L 261.535156 373.960938 Z M 261.535156 336.386719 "/></clipPath><clipPath id="2a62e88d92"><path d="M 280.339844 336.386719 C 269.953125 336.386719 261.535156 344.796875 261.535156 355.175781 C 261.535156 365.546875 269.953125 373.960938 280.339844 373.960938 C 290.730469 373.960938 299.148438 365.546875 299.148438 355.175781 C 299.148438 344.796875 290.730469 336.386719 280.339844 336.386719 Z M 280.339844 336.386719 "/></clipPath><clipPath id="f188fdff10"><path d="M 356.484375 202.742188 L 394.097656 202.742188 L 394.097656 240.316406 L 356.484375 240.316406 Z M 356.484375 202.742188 "/></clipPath><clipPath id="abacd882b7"><path d="M 375.289062 202.742188 C 364.902344 202.742188 356.484375 211.152344 356.484375 221.53125 C 356.484375 231.90625 364.902344 240.316406 375.289062 240.316406 C 385.675781 240.316406 394.097656 231.90625 394.097656 221.53125 C 394.097656 211.152344 385.675781 202.742188 375.289062 202.742188 Z M 375.289062 202.742188 "/></clipPath></defs><g id="01d8e818ef"><g clip-rule="nonzero" clip-path="url(#bb1dd954f0)"><g clip-rule="nonzero" clip-path="url(#0a93dea546)"><path style=" stroke:none;fill-rule:nonzero;fill:#dc9542;fill-opacity:1;" d="M 55.480469 281.972656 L 126.121094 281.972656 L 126.121094 476.851562 L 55.480469 476.851562 Z M 55.480469 281.972656 "/></g></g><g clip-rule="nonzero" clip-path="url(#5b2ec2a8a9)"><g clip-rule="nonzero" clip-path="url(#7eec5dbf3f)"><path style=" stroke:none;fill-rule:nonzero;fill:#dc9542;fill-opacity:1;" d="M 150.246094 135.882812 L 220.886719 135.882812 L 220.886719 476.855469 L 150.246094 476.855469 Z M 150.246094 135.882812 "/></g></g><g clip-rule="nonzero" clip-path="url(#635392054e)"><g clip-rule="nonzero" clip-path="url(#eb4a169190)"><path style=" stroke:none;fill-rule:nonzero;fill:#dc9542;fill-opacity:1;" d="M 245.109375 202.742188 L 315.75 202.742188 L 315.75 477.007812 L 245.109375 477.007812 Z M 245.109375 202.742188 "/></g></g><g clip-rule="nonzero" clip-path="url(#62af888dc3)"><g clip-rule="nonzero" clip-path="url(#fa7f5b60d5)"><path style=" stroke:none;fill-rule:nonzero;fill:#dc9542;fill-opacity:1;" d="M 339.96875 86.96875 L 410.613281 86.96875 L 410.613281 477.003906 L 339.96875 477.003906 Z M 339.96875 86.96875 "/></g></g><path style="fill:none;stroke-width:59;stroke-linecap:butt;stroke-linejoin:miter;stroke:#4e0f53;stroke-opacity:1;stroke-miterlimit:4;" d="M 0.00457383 29.501812 L 420.180984 29.501381 " transform="matrix(0.226468,-0.169209,0.169395,0.226218,85.126493,329.225368)"/><path style="fill:none;stroke-width:59;stroke-linecap:butt;stroke-linejoin:miter;stroke:#4e0f53;stroke-opacity:1;stroke-miterlimit:4;" d="M -0.00519702 29.502799 L 464.916096 29.498917 " transform="matrix(-0.204956,-0.194658,0.194873,-0.20473,275.015262,361.347691)"/><path style="fill:none;stroke-width:59;stroke-linecap:butt;stroke-linejoin:miter;stroke:#4e0f53;stroke-opacity:1;stroke-miterlimit:4;" d="M -0.000326196 29.493882 L 578.060434 29.498137 " transform="matrix(0.164402,-0.229865,0.230118,0.164221,273.552822,350.113452)"/><g clip-rule="nonzero" clip-path="url(#0502e81d0b)"><g clip-rule="nonzero" clip-path="url(#59160c2a24)"><path style=" stroke:none;fill-rule:nonzero;fill:#4e0f53;fill-opacity:1;" d="M 71.316406 316.933594 L 108.929688 316.933594 L 108.929688 354.507812 L 71.316406 354.507812 Z M 71.316406 316.933594 "/></g></g><g clip-rule="nonzero" clip-path="url(#db935f56b6)"><g clip-rule="nonzero" clip-path="url(#b9421bf3f8)"><path style=" stroke:none;fill-rule:nonzero;fill:#4e0f53;fill-opacity:1;" d="M 166.476562 246.195312 L 204.089844 246.195312 L 204.089844 283.769531 L 166.476562 283.769531 Z M 166.476562 246.195312 "/></g></g><g clip-rule="nonzero" clip-path="url(#8787fb2f4a)"><g clip-rule="nonzero" clip-path="url(#2a62e88d92)"><path style=" stroke:none;fill-rule:nonzero;fill:#4e0f53;fill-opacity:1;" d="M 261.535156 336.386719 L 299.148438 336.386719 L 299.148438 373.960938 L 261.535156 373.960938 Z M 261.535156 336.386719 "/></g></g><g clip-rule="nonzero" clip-path="url(#f188fdff10)"><g clip-rule="nonzero" clip-path="url(#abacd882b7)"><path style=" stroke:none;fill-rule:nonzero;fill:#4e0f53;fill-opacity:1;" d="M 356.484375 202.742188 L 394.097656 202.742188 L 394.097656 240.316406 L 356.484375 240.316406 Z M 356.484375 202.742188 "/></g></g><path style=" stroke:none;fill-rule:nonzero;fill:#4e0f53;fill-opacity:1;" d="M 479.628906 477.125 C 471.082031 477.125 468.402344 473.105469 471.574219 465.0625 L 562.632812 227.304688 C 564.34375 223.175781 566.296875 220.441406 568.5 219.101562 C 570.691406 217.75 573.863281 217.066406 578.015625 217.066406 L 597.382812 217.066406 C 601.53125 217.066406 604.820312 217.679688 607.261719 218.894531 C 609.695312 220.113281 611.519531 222.800781 612.738281 226.945312 L 704.183594 465.0625 C 705.660156 468.953125 705.847656 471.9375 704.753906 474.011719 C 703.652344 476.09375 700.78125 477.125 696.132812 477.125 L 677.125 477.125 C 669.320312 477.125 663.894531 476.398438 660.839844 474.941406 C 657.804688 473.464844 655.671875 470.53125 654.4375 466.140625 L 637.253906 418.964844 L 536.679688 418.964844 L 519.109375 466.140625 C 517.648438 470.53125 515.457031 473.464844 512.523438 474.941406 C 509.605469 476.398438 504.246094 477.125 496.449219 477.125 Z M 549.492188 381.308594 L 624.441406 381.308594 L 596.664062 304.113281 C 594.226562 296.570312 592.390625 289.445312 591.15625 282.742188 C 589.9375 276.035156 589.152344 270.492188 588.792969 266.097656 C 588.433594 261.710938 588.253906 259.511719 588.253906 259.511719 L 585.320312 259.511719 C 585.320312 259.511719 585.199219 261.652344 584.960938 265.917969 C 584.722656 270.167969 584.109375 275.648438 583.136719 282.351562 C 582.15625 289.054688 580.320312 296.195312 577.628906 303.753906 Z M 549.492188 381.308594 "/><path style=" stroke:none;fill-rule:nonzero;fill:#4e0f53;fill-opacity:1;" d="M 800.746094 482.601562 C 772.707031 482.601562 752.164062 475.898438 739.113281 462.488281 C 726.078125 449.078125 719.566406 430.789062 719.566406 407.621094 L 719.566406 357.152344 C 719.566406 333.984375 726.390625 315.695312 740.039062 302.285156 C 753.691406 288.878906 774.898438 282.171875 803.679688 282.171875 C 825.363281 282.171875 842.605469 286.75 855.402344 295.910156 C 868.214844 305.054688 876.9375 316.445312 881.59375 330.09375 C 883.285156 334.726562 883.464844 338.265625 882.132812 340.722656 C 880.792969 343.160156 878.046875 345.105469 873.902344 346.558594 L 857.796875 351.675781 C 853.164062 353.375 849.753906 353.613281 847.558594 352.394531 C 845.359375 351.183594 843.414062 348.375 841.722656 343.984375 C 838.789062 336.1875 834.148438 330.15625 827.804688 325.902344 C 821.472656 321.636719 812.941406 319.5 802.210938 319.5 C 788.800781 319.5 778.746094 322.613281 772.039062 328.835938 C 765.335938 335.046875 761.980469 343.878906 761.980469 355.328125 L 761.980469 409.445312 C 761.980469 420.6875 765.335938 429.472656 772.039062 435.816406 C 778.746094 442.148438 788.800781 445.304688 802.210938 445.304688 C 812.941406 445.304688 821.472656 443.054688 827.804688 438.542969 C 834.148438 434.035156 838.789062 427.878906 841.722656 420.074219 C 843.652344 415.6875 845.71875 413 847.917969 412.019531 C 850.113281 411.046875 853.53125 411.289062 858.1875 412.738281 L 874.261719 417.5 C 878.40625 419.21875 881.273438 421.234375 882.851562 423.546875 C 884.445312 425.863281 884.265625 429.335938 882.3125 433.960938 C 876.207031 449.570312 866.566406 461.582031 853.398438 470 C 840.242188 478.398438 822.691406 482.601562 800.746094 482.601562 Z M 800.746094 482.601562 "/><path style=" stroke:none;fill-rule:nonzero;fill:#4e0f53;fill-opacity:1;" d="M 982.886719 482.601562 C 961.433594 482.601562 944.789062 480.285156 932.960938 475.660156 C 921.144531 471.035156 912.980469 464.328125 908.472656 455.542969 C 903.960938 446.765625 901.710938 436.042969 901.710938 423.367188 C 901.710938 401.417969 908.160156 386.242188 921.074219 377.835938 C 934.007812 369.417969 955.09375 365.207031 984.355469 365.207031 C 991.417969 365.207031 998.242188 365.402344 1004.828125 365.773438 C 1011.414062 366.132812 1016.292969 366.554688 1019.464844 367.03125 L 1019.464844 356.078125 C 1019.464844 344.605469 1016.839844 335.648438 1011.59375 329.195312 C 1006.363281 322.730469 996.792969 319.5 982.886719 319.5 C 965.324219 319.5 952.519531 325.351562 944.484375 337.039062 C 942.042969 340.953125 939.910156 343.28125 938.078125 344.011719 C 936.257812 344.730469 933.273438 344.238281 929.128906 342.515625 L 914.132812 336.679688 C 910.21875 334.726562 907.652344 332.535156 906.4375 330.09375 C 905.21875 327.664062 905.707031 324.371094 907.90625 320.21875 C 914.25 308.265625 923.695312 298.933594 936.25 292.230469 C 948.824219 285.523438 964.734375 282.171875 983.996094 282.171875 C 1003.988281 282.171875 1019.652344 285.464844 1030.988281 292.050781 C 1042.320312 298.636719 1050.304688 307.601562 1054.9375 318.929688 C 1059.5625 330.265625 1061.878906 343.128906 1061.878906 357.511719 L 1061.878906 452.25 C 1061.878906 458.597656 1060.960938 463.117188 1059.125 465.8125 C 1057.308594 468.488281 1053.84375 470.921875 1048.738281 473.113281 C 1041.894531 476.03125 1032.980469 478.332031 1022.007812 480.027344 C 1011.054688 481.742188 998.011719 482.601562 982.886719 482.601562 Z M 978.875 447.492188 C 988.132812 447.492188 995.742188 447.191406 1001.714844 446.59375 C 1007.703125 445.980469 1012.28125 445.304688 1015.453125 444.589844 C 1016.90625 444.09375 1017.9375 443.539062 1018.539062 442.941406 C 1019.152344 442.328125 1019.464844 441.160156 1019.464844 439.441406 L 1019.464844 400.316406 C 1015.8125 400.078125 1010.023438 399.71875 1002.105469 399.238281 C 994.179688 398.746094 986.675781 398.492188 979.59375 398.492188 C 965.707031 398.492188 956.375 400.632812 951.605469 404.898438 C 946.855469 409.171875 944.484375 415.210938 944.484375 423.007812 C 944.484375 430.308594 946.675781 436.222656 951.070312 440.726562 C 955.453125 445.238281 964.726562 447.492188 978.875 447.492188 Z M 978.875 447.492188 "/><path style=" stroke:none;fill-rule:nonzero;fill:#4e0f53;fill-opacity:1;" d="M 1170.878906 482.601562 C 1143.820312 482.601562 1123.824219 476.152344 1110.894531 463.238281 C 1097.976562 450.304688 1091.527344 432.136719 1091.527344 408.730469 L 1091.527344 358.621094 C 1091.527344 334 1097.976562 315.097656 1110.894531 301.929688 C 1123.824219 288.757812 1142.847656 282.171875 1167.976562 282.171875 C 1177.234375 282.171875 1185.578125 282.726562 1193 283.816406 C 1200.4375 284.917969 1206.605469 285.957031 1211.5 286.929688 L 1211.5 217.816406 C 1211.5 213.671875 1212.34375 210.746094 1214.042969 209.046875 C 1215.757812 207.332031 1218.683594 206.472656 1222.8125 206.472656 L 1242.570312 206.472656 C 1246.714844 206.472656 1249.640625 207.332031 1251.339844 209.046875 C 1253.054688 210.746094 1253.914062 213.671875 1253.914062 217.816406 L 1253.914062 450.785156 C 1253.914062 456.890625 1252.992188 461.164062 1251.160156 463.59375 C 1249.339844 466.035156 1245.503906 468.46875 1239.636719 470.898438 C 1232.332031 473.59375 1223.1875 476.21875 1212.21875 478.773438 C 1201.238281 481.324219 1187.460938 482.601562 1170.878906 482.601562 Z M 1174.921875 443.839844 C 1187.828125 443.839844 1199.046875 442.507812 1208.566406 439.828125 C 1210.519531 439.09375 1211.5 437.75 1211.5 435.789062 L 1211.5 325.695312 C 1207.34375 324.722656 1202.21875 323.679688 1196.113281 322.582031 C 1190.023438 321.488281 1183.453125 320.933594 1176.386719 320.933594 C 1148.085938 320.933594 1133.941406 333.867188 1133.941406 359.726562 L 1133.941406 407.261719 C 1133.941406 419.21875 1137.476562 428.304688 1144.539062 434.53125 C 1151.617188 440.742188 1161.75 443.839844 1174.921875 443.839844 Z M 1174.921875 443.839844 "/><path style=" stroke:none;fill-rule:nonzero;fill:#4e0f53;fill-opacity:1;" d="M 1369.132812 482.601562 C 1349.136719 482.601562 1332.980469 479.191406 1320.671875 472.367188 C 1308.355469 465.542969 1299.332031 456.226562 1293.582031 444.410156 C 1287.851562 432.578125 1284.992188 419.21875 1284.992188 404.328125 L 1284.992188 361.195312 C 1284.992188 335.835938 1292.242188 316.324219 1306.753906 302.675781 C 1321.257812 289.011719 1342.292969 282.171875 1369.851562 282.171875 C 1389.367188 282.171875 1405.335938 285.597656 1417.773438 292.4375 C 1430.203125 299.265625 1439.460938 308.347656 1445.550781 319.679688 C 1451.660156 331.015625 1454.710938 343.757812 1454.710938 357.902344 L 1454.710938 380.203125 C 1454.710938 384.835938 1453.550781 388.613281 1451.238281 391.546875 C 1448.921875 394.464844 1444.59375 395.917969 1438.25 395.917969 L 1327.4375 395.917969 L 1327.4375 409.445312 C 1327.4375 421.40625 1331.089844 430.488281 1338.394531 436.714844 C 1345.710938 442.925781 1356.082031 446.023438 1369.492188 446.023438 C 1380.222656 446.023438 1389.128906 444.320312 1396.191406 440.90625 C 1403.257812 437.492188 1408.742188 432.75 1412.65625 426.660156 C 1415.328125 422.511719 1417.9375 420.132812 1420.5 419.535156 C 1423.074219 418.921875 1426.550781 419.828125 1430.945312 422.257812 L 1443.726562 429.203125 C 1452.027344 433.117188 1453.492188 439.214844 1448.125 447.492188 C 1441.542969 458.230469 1431.964844 466.769531 1419.390625 473.113281 C 1406.835938 479.4375 1390.085938 482.601562 1369.132812 482.601562 Z M 1327.4375 363.378906 L 1412.296875 363.378906 L 1412.296875 355.328125 C 1412.296875 343.378906 1408.691406 334.179688 1401.492188 327.730469 C 1394.308594 321.265625 1383.757812 318.03125 1369.851562 318.03125 C 1356.203125 318.03125 1345.710938 321.265625 1338.394531 327.730469 C 1331.089844 334.179688 1327.4375 343.378906 1327.4375 355.328125 Z M 1327.4375 363.378906 "/><path style=" stroke:none;fill-rule:nonzero;fill:#4e0f53;fill-opacity:1;" d="M 1494.953125 477.125 C 1490.800781 477.125 1487.925781 476.28125 1486.332031 474.582031 C 1484.753906 472.867188 1483.96875 469.933594 1483.96875 465.78125 L 1483.96875 315.457031 C 1483.96875 309.613281 1484.875 305.296875 1486.691406 302.496094 C 1488.527344 299.683594 1492.246094 297.0625 1497.855469 294.625 C 1505.175781 291.691406 1514.082031 288.890625 1524.558594 286.214844 C 1535.050781 283.519531 1548.457031 282.171875 1564.789062 282.171875 C 1584.0625 282.171875 1599.308594 286.207031 1610.523438 294.265625 C 1616.847656 291.570312 1625.25 288.890625 1635.726562 286.214844 C 1646.21875 283.519531 1659.40625 282.171875 1675.269531 282.171875 C 1700.367188 282.171875 1718.648438 288.519531 1730.105469 301.210938 C 1741.578125 313.886719 1747.320312 331.800781 1747.320312 354.96875 L 1747.320312 465.78125 C 1747.320312 469.933594 1746.457031 472.867188 1744.746094 474.582031 C 1743.046875 476.28125 1740.121094 477.125 1735.972656 477.125 L 1716.21875 477.125 C 1712.066406 477.125 1709.132812 476.28125 1707.417969 474.582031 C 1705.71875 472.867188 1704.875 469.933594 1704.875 465.78125 L 1704.875 356.4375 C 1704.875 332.773438 1692.929688 320.933594 1669.042969 320.933594 C 1661.476562 320.933594 1654.644531 321.675781 1648.539062 323.148438 C 1642.449219 324.609375 1637.328125 326.070312 1633.183594 327.519531 C 1634.660156 331.433594 1635.699219 335.707031 1636.296875 340.332031 C 1636.910156 344.964844 1637.226562 349.84375 1637.226562 354.96875 L 1637.226562 465.78125 C 1637.226562 469.933594 1636.363281 472.867188 1634.652344 474.582031 C 1632.953125 476.28125 1630.027344 477.125 1625.878906 477.125 L 1606.125 477.125 C 1601.972656 477.125 1599.039062 476.28125 1597.324219 474.582031 C 1595.625 472.867188 1594.78125 469.933594 1594.78125 465.78125 L 1594.78125 356.4375 C 1594.78125 332.773438 1582.71875 320.933594 1558.589844 320.933594 C 1552.722656 320.933594 1547.472656 321.308594 1542.847656 322.042969 C 1538.214844 322.785156 1533.582031 323.882812 1528.957031 325.335938 C 1527.238281 326.078125 1526.382812 327.542969 1526.382812 329.734375 L 1526.382812 465.78125 C 1526.382812 469.933594 1525.523438 472.867188 1523.808594 474.582031 C 1522.109375 476.28125 1519.199219 477.125 1515.070312 477.125 Z M 1494.953125 477.125 "/><path style=" stroke:none;fill-rule:nonzero;fill:#4e0f53;fill-opacity:1;" d="M 1864.34375 563.453125 C 1844.585938 563.453125 1828.609375 560.21875 1816.421875 553.753906 C 1804.246094 547.289062 1794.988281 538.683594 1788.640625 527.953125 C 1783.269531 520.144531 1784.730469 514.046875 1793.011719 509.664062 L 1806.929688 502 C 1811.316406 499.800781 1814.789062 499.007812 1817.347656 499.605469 C 1819.898438 500.21875 1822.527344 502.484375 1825.21875 506.398438 C 1829.113281 512.484375 1834.035156 517.175781 1840.007812 520.46875 C 1845.992188 523.761719 1853.867188 525.40625 1863.625 525.40625 C 1889.464844 525.40625 1902.386719 512.117188 1902.386719 485.535156 L 1902.386719 468.355469 C 1897.015625 469.574219 1890.730469 470.734375 1883.53125 471.828125 C 1876.347656 472.925781 1868.121094 473.472656 1858.863281 473.472656 C 1832.761719 473.472656 1813.554688 466.949219 1801.246094 453.898438 C 1788.925781 440.847656 1782.777344 422.871094 1782.777344 399.957031 L 1782.777344 298.636719 C 1782.777344 294.488281 1783.5625 291.625 1785.140625 290.042969 C 1786.734375 288.472656 1789.609375 287.679688 1793.761719 287.679688 L 1813.875 287.679688 C 1818.023438 287.679688 1820.949219 288.472656 1822.644531 290.042969 C 1824.359375 291.625 1825.21875 294.488281 1825.21875 298.636719 L 1825.21875 398.492188 C 1825.21875 422.640625 1838.511719 434.710938 1865.089844 434.710938 C 1872.632812 434.710938 1879.519531 434.164062 1885.746094 433.0625 C 1891.972656 431.972656 1897.515625 430.8125 1902.386719 429.59375 L 1902.386719 298.636719 C 1902.386719 294.488281 1903.234375 291.625 1904.933594 290.042969 C 1906.644531 288.472656 1909.578125 287.679688 1913.730469 287.679688 L 1933.488281 287.679688 C 1937.875 287.679688 1940.859375 288.472656 1942.4375 290.042969 C 1944.007812 291.625 1944.800781 294.488281 1944.800781 298.636719 L 1944.800781 483.351562 C 1944.800781 499.195312 1942.054688 513.148438 1936.570312 525.226562 C 1931.101562 537.296875 1922.511719 546.691406 1910.796875 553.394531 C 1899.078125 560.097656 1883.597656 563.453125 1864.34375 563.453125 Z M 1864.34375 563.453125 "/></g></svg>