<svg xmlns="http://www.w3.org/2000/svg" xmlns:xlink="http://www.w3.org/1999/xlink" width="2680" zoomAndPan="magnify" viewBox="0 0 2010 599.999999" height="800" preserveAspectRatio="xMidYMid meet" version="1.2"><defs><clipPath id="1db93e9bd6"><path d="M 38.988281 281.972656 L 109.628906 281.972656 L 109.628906 477 L 38.988281 477 Z M 38.988281 281.972656 "/></clipPath><clipPath id="8fb73806cc"><path d="M 58.785156 281.972656 L 89.832031 281.972656 C 95.085938 281.972656 100.121094 284.054688 103.832031 287.761719 C 107.546875 291.472656 109.628906 296.5 109.628906 301.746094 L 109.628906 457.199219 C 109.628906 462.441406 107.546875 467.472656 103.832031 471.183594 C 100.121094 474.890625 95.085938 476.972656 89.832031 476.972656 L 58.785156 476.972656 C 53.535156 476.972656 48.5 474.890625 44.789062 471.183594 C 41.074219 467.472656 38.988281 462.441406 38.988281 457.199219 L 38.988281 301.746094 C 38.988281 296.5 41.074219 291.472656 44.789062 287.761719 C 48.5 284.054688 53.535156 281.972656 58.785156 281.972656 Z M 58.785156 281.972656 "/></clipPath><clipPath id="83281e6b9e"><path d="M 133.753906 135.882812 L 204.398438 135.882812 L 204.398438 477 L 133.753906 477 Z M 133.753906 135.882812 "/></clipPath><clipPath id="f8fe62d4b8"><path d="M 153.550781 135.882812 L 184.601562 135.882812 C 189.851562 135.882812 194.886719 137.96875 198.597656 141.675781 C 202.3125 145.382812 204.398438 150.414062 204.398438 155.660156 L 204.398438 457.199219 C 204.398438 462.441406 202.3125 467.472656 198.597656 471.183594 C 194.886719 474.890625 189.851562 476.972656 184.601562 476.972656 L 153.550781 476.972656 C 148.300781 476.972656 143.265625 474.890625 139.554688 471.183594 C 135.839844 467.472656 133.753906 462.441406 133.753906 457.199219 L 133.753906 155.660156 C 133.753906 150.414062 135.839844 145.382812 139.554688 141.675781 C 143.265625 137.96875 148.300781 135.882812 153.550781 135.882812 Z M 153.550781 135.882812 "/></clipPath><clipPath id="7ab90b547d"><path d="M 228.617188 202.742188 L 299.261719 202.742188 L 299.261719 477 L 228.617188 477 Z M 228.617188 202.742188 "/></clipPath><clipPath id="8ee8355005"><path d="M 248.414062 202.742188 L 279.464844 202.742188 C 284.714844 202.742188 289.75 204.828125 293.460938 208.535156 C 297.175781 212.242188 299.261719 217.273438 299.261719 222.519531 L 299.261719 457.199219 C 299.261719 462.441406 297.175781 467.472656 293.460938 471.183594 C 289.75 474.890625 284.714844 476.972656 279.464844 476.972656 L 248.414062 476.972656 C 243.164062 476.972656 238.128906 474.890625 234.414062 471.183594 C 230.703125 467.472656 228.617188 462.441406 228.617188 457.199219 L 228.617188 222.519531 C 228.617188 217.273438 230.703125 212.242188 234.414062 208.535156 C 238.128906 204.828125 243.164062 202.742188 248.414062 202.742188 Z M 248.414062 202.742188 "/></clipPath><clipPath id="8552292c9a"><path d="M 323.480469 86.96875 L 394.121094 86.96875 L 394.121094 477 L 323.480469 477 Z M 323.480469 86.96875 "/></clipPath><clipPath id="154ef46d09"><path d="M 343.277344 86.96875 L 374.324219 86.96875 C 379.574219 86.96875 384.609375 89.054688 388.324219 92.761719 C 392.035156 96.46875 394.121094 101.5 394.121094 106.746094 L 394.121094 457.199219 C 394.121094 462.441406 392.035156 467.472656 388.324219 471.183594 C 384.609375 474.890625 379.574219 476.972656 374.324219 476.972656 L 343.277344 476.972656 C 338.027344 476.972656 332.988281 474.890625 329.277344 471.183594 C 325.566406 467.472656 323.480469 462.441406 323.480469 457.199219 L 323.480469 106.746094 C 323.480469 101.5 325.566406 96.46875 329.277344 92.761719 C 332.988281 89.054688 338.027344 86.96875 343.277344 86.96875 Z M 343.277344 86.96875 "/></clipPath><clipPath id="11e96f9670"><path d="M 54.828125 316.933594 L 92.441406 316.933594 L 92.441406 354.507812 L 54.828125 354.507812 Z M 54.828125 316.933594 "/></clipPath><clipPath id="703cb9712c"><path d="M 73.632812 316.933594 C 63.246094 316.933594 54.828125 325.34375 54.828125 335.71875 C 54.828125 346.09375 63.246094 354.507812 73.632812 354.507812 C 84.019531 354.507812 92.441406 346.09375 92.441406 335.71875 C 92.441406 325.34375 84.019531 316.933594 73.632812 316.933594 Z M 73.632812 316.933594 "/></clipPath><clipPath id="a8ddbb7c62"><path d="M 149.984375 246.195312 L 187.601562 246.195312 L 187.601562 283.769531 L 149.984375 283.769531 Z M 149.984375 246.195312 "/></clipPath><clipPath id="97453d4166"><path d="M 168.792969 246.195312 C 158.40625 246.195312 149.984375 254.605469 149.984375 264.984375 C 149.984375 275.359375 158.40625 283.769531 168.792969 283.769531 C 179.179688 283.769531 187.601562 275.359375 187.601562 264.984375 C 187.601562 254.605469 179.179688 246.195312 168.792969 246.195312 Z M 168.792969 246.195312 "/></clipPath><clipPath id="be092b2613"><path d="M 245.042969 336.386719 L 282.660156 336.386719 L 282.660156 373.960938 L 245.042969 373.960938 Z M 245.042969 336.386719 "/></clipPath><clipPath id="58f6ff7bc4"><path d="M 263.851562 336.386719 C 253.464844 336.386719 245.042969 344.796875 245.042969 355.175781 C 245.042969 365.546875 253.464844 373.960938 263.851562 373.960938 C 274.238281 373.960938 282.660156 365.546875 282.660156 355.175781 C 282.660156 344.796875 274.238281 336.386719 263.851562 336.386719 Z M 263.851562 336.386719 "/></clipPath><clipPath id="ed9f1af2a1"><path d="M 339.992188 202.742188 L 377.609375 202.742188 L 377.609375 240.316406 L 339.992188 240.316406 Z M 339.992188 202.742188 "/></clipPath><clipPath id="1bad0b5438"><path d="M 358.800781 202.742188 C 348.414062 202.742188 339.992188 211.152344 339.992188 221.53125 C 339.992188 231.90625 348.414062 240.316406 358.800781 240.316406 C 369.1875 240.316406 377.609375 231.90625 377.609375 221.53125 C 377.609375 211.152344 369.1875 202.742188 358.800781 202.742188 Z M 358.800781 202.742188 "/></clipPath><clipPath id="90f3b61719"><path d="M 1807.710938 230.09375 L 1977.347656 230.09375 L 1977.347656 343.152344 L 1807.710938 343.152344 Z M 1807.710938 230.09375 "/></clipPath><clipPath id="c6bf300043"><path d="M 1831.242188 230.09375 L 1953.835938 230.09375 C 1966.835938 230.09375 1977.367188 240.625 1977.367188 253.625 L 1977.367188 319.617188 C 1977.367188 332.613281 1966.835938 343.152344 1953.835938 343.152344 L 1831.242188 343.152344 C 1818.25 343.152344 1807.710938 332.613281 1807.710938 319.617188 L 1807.710938 253.625 C 1807.710938 240.625 1818.25 230.09375 1831.242188 230.09375 Z M 1831.242188 230.09375 "/></clipPath></defs><g id="a5b987aeef"><path style=" stroke:none;fill-rule:nonzero;fill:#4e1053;fill-opacity:1;" d="M 488.40625 476.6875 C 483.507812 476.6875 480.089844 475.726562 478.15625 473.804688 C 476.230469 471.867188 475.269531 468.449219 475.269531 463.550781 L 475.269531 215.691406 C 475.269531 210.796875 476.230469 207.386719 478.15625 205.464844 C 480.089844 203.527344 483.507812 202.554688 488.40625 202.554688 L 510.410156 202.554688 C 515.546875 202.554688 519.019531 203.527344 520.820312 205.464844 C 522.636719 207.386719 523.546875 210.796875 523.546875 215.691406 L 523.546875 463.550781 C 523.546875 468.449219 522.636719 471.867188 520.820312 473.804688 C 519.019531 475.726562 515.546875 476.6875 510.410156 476.6875 Z M 488.40625 476.6875 "/><path style=" stroke:none;fill-rule:nonzero;fill:#4e1053;fill-opacity:1;" d="M 579.90625 476.6875 C 575.527344 476.6875 572.496094 475.792969 570.828125 473.988281 C 569.152344 472.195312 568.320312 469.105469 568.320312 464.726562 L 568.320312 306.042969 C 568.320312 299.871094 569.28125 295.304688 571.203125 292.347656 C 573.136719 289.375 577.078125 286.601562 583.003906 284.015625 C 590.972656 280.9375 601.007812 277.980469 613.09375 275.152344 C 625.195312 272.320312 640.523438 270.90625 659.074219 270.90625 C 686.609375 270.90625 706.875 277.734375 719.871094 291.386719 C 732.859375 305.023438 739.363281 324.058594 739.363281 348.5 L 739.363281 464.726562 C 739.363281 469.105469 738.460938 472.195312 736.664062 473.988281 C 734.863281 475.792969 731.777344 476.6875 727.398438 476.6875 L 706.546875 476.6875 C 702.167969 476.6875 699.078125 475.792969 697.28125 473.988281 C 695.480469 472.195312 694.585938 469.105469 694.585938 464.726562 L 694.585938 349.671875 C 694.585938 324.453125 680.554688 311.839844 652.503906 311.839844 C 645.296875 311.839844 638.601562 312.359375 632.425781 313.386719 C 626.246094 314.402344 620.585938 315.5625 615.445312 316.859375 C 613.894531 317.625 613.121094 318.90625 613.121094 320.703125 L 613.121094 464.726562 C 613.121094 469.105469 612.214844 472.195312 610.398438 473.988281 C 608.597656 475.792969 605.519531 476.6875 601.160156 476.6875 Z M 579.90625 476.6875 "/><path style=" stroke:none;fill-rule:nonzero;fill:#4e1053;fill-opacity:1;" d="M 855.183594 482.480469 C 832.542969 482.480469 814.070312 478.429688 799.78125 470.332031 C 785.503906 462.214844 775.402344 450.695312 769.476562 435.753906 C 766.390625 427.785156 768.976562 422.378906 777.21875 419.546875 L 794.574219 414.128906 C 798.699219 412.847656 801.921875 412.660156 804.238281 413.566406 C 806.550781 414.460938 808.605469 417.089844 810.40625 421.46875 C 813.503906 428.945312 818.585938 434.359375 825.652344 437.703125 C 832.734375 441.054688 842.195312 442.722656 854.035156 442.722656 C 881.570312 442.722656 895.339844 435.128906 895.339844 419.921875 C 895.339844 410.917969 891.476562 404.9375 883.753906 401.980469 C 876.042969 399.027344 864.460938 396.773438 849.015625 395.222656 C 839.492188 394.195312 830.09375 392.714844 820.820312 390.792969 C 811.5625 388.855469 803.132812 385.765625 795.535156 381.527344 C 787.953125 377.273438 781.90625 371.285156 777.40625 363.558594 C 772.898438 355.835938 770.652344 345.667969 770.652344 333.066406 C 770.652344 314.789062 777.339844 299.863281 790.730469 288.289062 C 804.113281 276.699219 824.058594 270.90625 850.566406 270.90625 C 872.6875 270.90625 890.382812 274.636719 903.644531 282.09375 C 916.902344 289.558594 926.75 299.597656 933.175781 312.210938 C 935.503906 316.589844 936.085938 320.074219 934.910156 322.652344 C 933.75 325.214844 930.992188 327.53125 926.632812 329.59375 L 909.625 336.535156 C 905.246094 338.339844 902.023438 338.914062 899.960938 338.273438 C 897.910156 337.632812 895.609375 335.253906 893.046875 331.144531 C 889.695312 325.214844 884.996094 320.324219 878.949219 316.457031 C 872.894531 312.597656 863.6875 310.664062 851.339844 310.664062 C 838.714844 310.664062 829.511719 312.472656 823.730469 316.082031 C 817.945312 319.679688 815.054688 324.949219 815.054688 331.890625 C 815.054688 340.914062 818.84375 346.84375 826.429688 349.671875 C 834.023438 352.503906 845.285156 354.558594 860.203125 355.839844 C 875.648438 357.390625 889.292969 360.03125 901.136719 363.769531 C 912.96875 367.496094 922.234375 373.535156 928.929688 381.898438 C 935.621094 390.269531 938.96875 402.300781 938.96875 418 C 938.96875 436.796875 931.894531 452.25 917.742188 464.351562 C 903.59375 476.441406 882.738281 482.480469 855.183594 482.480469 Z M 855.183594 482.480469 "/><path style=" stroke:none;fill-rule:nonzero;fill:#4e1053;fill-opacity:1;" d="M 989.5625 242.335938 C 980.804688 242.335938 974.8125 240.800781 971.59375 237.71875 C 968.390625 234.621094 966.789062 228.691406 966.789062 219.933594 L 966.789062 216.464844 C 966.789062 207.460938 968.390625 201.539062 971.59375 198.707031 C 974.8125 195.878906 980.804688 194.464844 989.5625 194.464844 L 992.632812 194.464844 C 1001.660156 194.464844 1007.707031 195.878906 1010.789062 198.707031 C 1013.886719 201.539062 1015.4375 207.460938 1015.4375 216.464844 L 1015.4375 219.933594 C 1015.4375 228.691406 1013.886719 234.621094 1010.789062 237.71875 C 1007.707031 240.800781 1001.660156 242.335938 992.632812 242.335938 Z M 980.671875 476.6875 C 976.292969 476.6875 973.203125 475.792969 971.40625 473.988281 C 969.605469 472.195312 968.710938 469.105469 968.710938 464.726562 L 968.710938 288.289062 C 968.710938 283.910156 969.605469 280.886719 971.40625 279.210938 C 973.203125 277.542969 976.292969 276.699219 980.671875 276.699219 L 1001.523438 276.699219 C 1005.902344 276.699219 1008.988281 277.542969 1010.789062 279.210938 C 1012.585938 280.886719 1013.488281 283.910156 1013.488281 288.289062 L 1013.488281 464.726562 C 1013.488281 469.105469 1012.585938 472.195312 1010.789062 473.988281 C 1008.988281 475.792969 1005.902344 476.6875 1001.523438 476.6875 Z M 980.671875 476.6875 "/><path style=" stroke:none;fill-rule:nonzero;fill:#4e1053;fill-opacity:1;" d="M 1133.949219 567.414062 C 1113.105469 567.414062 1096.25 564.0625 1083.378906 557.375 C 1070.511719 550.679688 1060.726562 541.675781 1054.035156 530.355469 C 1048.375 522.109375 1049.910156 515.675781 1058.65625 511.050781 L 1073.339844 502.933594 C 1077.964844 500.617188 1081.632812 499.78125 1084.339844 500.421875 C 1087.042969 501.0625 1089.816406 503.449219 1092.644531 507.578125 C 1096.757812 514 1101.898438 518.886719 1108.078125 522.238281 C 1114.253906 525.582031 1122.617188 527.257812 1133.175781 527.257812 C 1160.464844 527.257812 1174.109375 513.359375 1174.109375 485.578125 L 1174.109375 466.273438 C 1168.449219 467.808594 1161.621094 469.34375 1153.628906 470.894531 C 1145.652344 472.441406 1137.035156 473.214844 1127.78125 473.214844 C 1100.496094 473.214844 1080.351562 466.339844 1067.359375 452.578125 C 1054.363281 438.800781 1047.867188 419.808594 1047.867188 395.597656 L 1047.867188 351.96875 C 1047.867188 325.714844 1055.003906 305.644531 1069.28125 291.757812 C 1083.574219 277.863281 1105.386719 270.90625 1134.726562 270.90625 C 1150.425781 270.90625 1164.316406 272.136719 1176.40625 274.589844 C 1188.507812 277.035156 1197.90625 279.792969 1204.601562 282.867188 C 1210.773438 285.699219 1214.699219 288.410156 1216.375 290.984375 C 1218.042969 293.546875 1218.886719 297.921875 1218.886719 304.09375 L 1218.886719 483.253906 C 1218.886719 508.472656 1212.316406 528.804688 1199.179688 544.238281 C 1186.058594 559.683594 1164.316406 567.414062 1133.949219 567.414062 Z M 1134.351562 432.285156 C 1142.574219 432.285156 1150.03125 431.644531 1156.726562 430.363281 C 1163.414062 429.066406 1169.207031 427.90625 1174.109375 426.890625 L 1174.109375 320.703125 C 1174.109375 318.394531 1173.074219 316.851562 1171.011719 316.082031 C 1166.632812 314.789062 1161.613281 313.753906 1155.953125 312.988281 C 1150.292969 312.226562 1144.371094 311.839844 1138.195312 311.839844 C 1122.496094 311.839844 1110.976562 315.1875 1103.644531 321.878906 C 1096.308594 328.554688 1092.644531 339.097656 1092.644531 353.519531 L 1092.644531 394.449219 C 1092.644531 406.558594 1096.175781 415.890625 1103.246094 422.457031 C 1110.328125 429.011719 1120.695312 432.285156 1134.351562 432.285156 Z M 1134.351562 432.285156 "/><path style=" stroke:none;fill-rule:nonzero;fill:#4e1053;fill-opacity:1;" d="M 1271.011719 476.6875 C 1266.632812 476.6875 1263.605469 475.792969 1261.933594 473.988281 C 1260.257812 472.195312 1259.425781 469.105469 1259.425781 464.726562 L 1259.425781 202.953125 C 1259.425781 198.574219 1260.257812 195.492188 1261.933594 193.6875 C 1263.605469 191.894531 1266.632812 190.992188 1271.011719 190.992188 L 1292.238281 190.992188 C 1296.617188 190.992188 1299.703125 191.894531 1301.503906 193.6875 C 1303.320312 195.492188 1304.226562 198.574219 1304.226562 202.953125 L 1304.226562 276.300781 C 1306.023438 275.273438 1311.289062 274.109375 1320.035156 272.828125 C 1328.792969 271.546875 1338.832031 270.90625 1350.152344 270.90625 C 1377.707031 270.90625 1397.980469 277.734375 1410.976562 291.386719 C 1423.964844 305.023438 1430.46875 324.058594 1430.46875 348.5 L 1430.46875 464.726562 C 1430.46875 469.105469 1429.628906 472.195312 1427.957031 473.988281 C 1426.28125 475.792969 1423.132812 476.6875 1418.507812 476.6875 L 1397.652344 476.6875 C 1393.273438 476.6875 1390.183594 475.792969 1388.386719 473.988281 C 1386.585938 472.195312 1385.691406 469.105469 1385.691406 464.726562 L 1385.691406 349.671875 C 1385.691406 324.453125 1371.660156 311.839844 1343.613281 311.839844 C 1334.085938 311.839844 1325.589844 312.550781 1318.113281 313.972656 C 1310.648438 315.382812 1306.023438 316.589844 1304.226562 317.605469 L 1304.226562 464.726562 C 1304.226562 469.105469 1303.320312 472.195312 1301.503906 473.988281 C 1299.703125 475.792969 1296.617188 476.6875 1292.238281 476.6875 Z M 1271.011719 476.6875 "/><path style=" stroke:none;fill-rule:nonzero;fill:#4e1053;fill-opacity:1;" d="M 1577.582031 476.6875 C 1555.953125 476.6875 1538.640625 474.25 1525.648438 469.371094 C 1512.652344 464.476562 1503.253906 455.792969 1497.453125 443.3125 C 1491.667969 430.816406 1488.777344 413.5 1488.777344 391.351562 L 1488.777344 318.007812 L 1462.527344 318.007812 C 1458.148438 318.007812 1455.054688 317.113281 1453.238281 315.308594 C 1451.433594 313.492188 1450.539062 310.410156 1450.539062 306.042969 L 1450.539062 288.289062 C 1450.539062 283.910156 1451.433594 280.886719 1453.238281 279.210938 C 1455.054688 277.542969 1458.148438 276.699219 1462.527344 276.699219 L 1488.777344 276.699219 L 1488.777344 241.9375 C 1488.777344 237.558594 1489.671875 234.539062 1491.472656 232.886719 C 1493.269531 231.214844 1496.359375 230.375 1500.738281 230.375 L 1521.964844 230.375 C 1526.34375 230.375 1529.367188 231.214844 1531.042969 232.886719 C 1532.710938 234.539062 1533.550781 237.558594 1533.550781 241.9375 L 1533.550781 276.699219 L 1577.957031 276.699219 C 1582.335938 276.699219 1585.359375 277.542969 1587.035156 279.210938 C 1588.703125 280.886719 1589.542969 283.910156 1589.542969 288.289062 L 1589.542969 306.042969 C 1589.542969 310.410156 1588.703125 313.492188 1587.035156 315.308594 C 1585.359375 317.113281 1582.335938 318.007812 1577.957031 318.007812 L 1533.550781 318.007812 L 1533.550781 389.804688 C 1533.550781 402.425781 1534.96875 411.898438 1537.796875 418.214844 C 1540.628906 424.515625 1545.253906 428.757812 1551.683594 430.949219 C 1558.125 433.125 1566.753906 434.207031 1577.582031 434.207031 C 1581.960938 434.207031 1585.042969 435.113281 1586.847656 436.929688 C 1588.640625 438.730469 1589.542969 441.816406 1589.542969 446.195312 L 1589.542969 464.324219 C 1589.542969 468.703125 1588.640625 471.867188 1586.847656 473.804688 C 1585.042969 475.726562 1581.960938 476.6875 1577.582031 476.6875 Z M 1577.582031 476.6875 "/><path style=" stroke:none;fill-rule:nonzero;fill:#4e1053;fill-opacity:1;" d="M 1692.230469 482.480469 C 1669.589844 482.480469 1651.117188 478.429688 1636.828125 470.332031 C 1622.550781 462.214844 1612.449219 450.695312 1606.523438 435.753906 C 1603.4375 427.785156 1606.023438 422.378906 1614.265625 419.546875 L 1631.621094 414.128906 C 1635.746094 412.847656 1638.96875 412.660156 1641.285156 413.566406 C 1643.597656 414.460938 1645.652344 417.089844 1647.453125 421.46875 C 1650.550781 428.945312 1655.632812 434.359375 1662.699219 437.703125 C 1669.78125 441.054688 1679.242188 442.722656 1691.082031 442.722656 C 1718.617188 442.722656 1732.386719 435.128906 1732.386719 419.921875 C 1732.386719 410.917969 1728.523438 404.9375 1720.800781 401.980469 C 1713.089844 399.027344 1701.507812 396.773438 1686.0625 395.222656 C 1676.539062 394.195312 1667.140625 392.714844 1657.867188 390.792969 C 1648.609375 388.855469 1640.179688 385.765625 1632.582031 381.527344 C 1625 377.273438 1618.953125 371.285156 1614.453125 363.558594 C 1609.945312 355.835938 1607.699219 345.667969 1607.699219 333.066406 C 1607.699219 314.789062 1614.386719 299.863281 1627.777344 288.289062 C 1641.160156 276.699219 1661.105469 270.90625 1687.613281 270.90625 C 1709.734375 270.90625 1727.429688 274.636719 1740.691406 282.09375 C 1753.949219 289.558594 1763.796875 299.597656 1770.222656 312.210938 C 1772.550781 316.589844 1773.132812 320.074219 1771.957031 322.652344 C 1770.796875 325.214844 1768.039062 327.53125 1763.679688 329.59375 L 1746.671875 336.535156 C 1742.292969 338.339844 1739.070312 338.914062 1737.007812 338.273438 C 1734.957031 337.632812 1732.65625 335.253906 1730.09375 331.144531 C 1726.742188 325.214844 1722.042969 320.324219 1715.996094 316.457031 C 1709.941406 312.597656 1700.734375 310.664062 1688.386719 310.664062 C 1675.761719 310.664062 1666.558594 312.472656 1660.777344 316.082031 C 1654.992188 319.679688 1652.101562 324.949219 1652.101562 331.890625 C 1652.101562 340.914062 1655.890625 346.84375 1663.476562 349.671875 C 1671.070312 352.503906 1682.332031 354.558594 1697.25 355.839844 C 1712.695312 357.390625 1726.339844 360.03125 1738.183594 363.769531 C 1750.015625 367.496094 1759.28125 373.535156 1765.976562 381.898438 C 1772.667969 390.269531 1776.015625 402.300781 1776.015625 418 C 1776.015625 436.796875 1768.941406 452.25 1754.789062 464.351562 C 1740.640625 476.441406 1719.785156 482.480469 1692.230469 482.480469 Z M 1692.230469 482.480469 "/><g clip-rule="nonzero" clip-path="url(#1db93e9bd6)"><g clip-rule="nonzero" clip-path="url(#8fb73806cc)"><path style=" stroke:none;fill-rule:nonzero;fill:#dc9542;fill-opacity:1;" d="M 38.988281 281.972656 L 109.628906 281.972656 L 109.628906 476.851562 L 38.988281 476.851562 Z M 38.988281 281.972656 "/></g></g><g clip-rule="nonzero" clip-path="url(#83281e6b9e)"><g clip-rule="nonzero" clip-path="url(#f8fe62d4b8)"><path style=" stroke:none;fill-rule:nonzero;fill:#dc9542;fill-opacity:1;" d="M 133.753906 135.882812 L 204.398438 135.882812 L 204.398438 476.855469 L 133.753906 476.855469 Z M 133.753906 135.882812 "/></g></g><g clip-rule="nonzero" clip-path="url(#7ab90b547d)"><g clip-rule="nonzero" clip-path="url(#8ee8355005)"><path style=" stroke:none;fill-rule:nonzero;fill:#dc9542;fill-opacity:1;" d="M 228.617188 202.742188 L 299.261719 202.742188 L 299.261719 477.007812 L 228.617188 477.007812 Z M 228.617188 202.742188 "/></g></g><g clip-rule="nonzero" clip-path="url(#8552292c9a)"><g clip-rule="nonzero" clip-path="url(#154ef46d09)"><path style=" stroke:none;fill-rule:nonzero;fill:#dc9542;fill-opacity:1;" d="M 323.480469 86.96875 L 394.121094 86.96875 L 394.121094 477.003906 L 323.480469 477.003906 Z M 323.480469 86.96875 "/></g></g><path style="fill:none;stroke-width:59;stroke-linecap:butt;stroke-linejoin:miter;stroke:#4e0f53;stroke-opacity:1;stroke-miterlimit:4;" d="M -0.00154952 29.497232 L 420.185921 29.505074 " transform="matrix(0.226468,-0.169209,0.169395,0.226218,68.636468,329.225368)"/><path style="fill:none;stroke-width:59;stroke-linecap:butt;stroke-linejoin:miter;stroke:#4e0f53;stroke-opacity:1;stroke-miterlimit:4;" d="M 0.000313934 29.497559 L 464.911598 29.503194 " transform="matrix(-0.204956,-0.194658,0.194873,-0.20473,258.525225,361.347691)"/><path style="fill:none;stroke-width:59;stroke-linecap:butt;stroke-linejoin:miter;stroke:#4e0f53;stroke-opacity:1;stroke-miterlimit:4;" d="M 0.00328743 29.49894 L 578.064048 29.503196 " transform="matrix(0.164402,-0.229865,0.230118,0.164221,257.062783,350.113452)"/><g clip-rule="nonzero" clip-path="url(#11e96f9670)"><g clip-rule="nonzero" clip-path="url(#703cb9712c)"><path style=" stroke:none;fill-rule:nonzero;fill:#4e0f53;fill-opacity:1;" d="M 54.828125 316.933594 L 92.441406 316.933594 L 92.441406 354.507812 L 54.828125 354.507812 Z M 54.828125 316.933594 "/></g></g><g clip-rule="nonzero" clip-path="url(#a8ddbb7c62)"><g clip-rule="nonzero" clip-path="url(#97453d4166)"><path style=" stroke:none;fill-rule:nonzero;fill:#4e0f53;fill-opacity:1;" d="M 149.984375 246.195312 L 187.601562 246.195312 L 187.601562 283.769531 L 149.984375 283.769531 Z M 149.984375 246.195312 "/></g></g><g clip-rule="nonzero" clip-path="url(#be092b2613)"><g clip-rule="nonzero" clip-path="url(#58f6ff7bc4)"><path style=" stroke:none;fill-rule:nonzero;fill:#4e0f53;fill-opacity:1;" d="M 245.042969 336.386719 L 282.660156 336.386719 L 282.660156 373.960938 L 245.042969 373.960938 Z M 245.042969 336.386719 "/></g></g><g clip-rule="nonzero" clip-path="url(#ed9f1af2a1)"><g clip-rule="nonzero" clip-path="url(#1bad0b5438)"><path style=" stroke:none;fill-rule:nonzero;fill:#4e0f53;fill-opacity:1;" d="M 339.992188 202.742188 L 377.609375 202.742188 L 377.609375 240.316406 L 339.992188 240.316406 Z M 339.992188 202.742188 "/></g></g><g clip-rule="nonzero" clip-path="url(#90f3b61719)"><g clip-rule="nonzero" clip-path="url(#c6bf300043)"><path style=" stroke:none;fill-rule:nonzero;fill:#0456c4;fill-opacity:1;" d="M 1807.710938 230.09375 L 1977.28125 230.09375 L 1977.28125 343.152344 L 1807.710938 343.152344 Z M 1807.710938 230.09375 "/></g></g><path style=" stroke:none;fill-rule:nonzero;fill:#ffffff;fill-opacity:1;" d="M 1834.949219 313.625 C 1833.988281 313.625 1833.316406 313.441406 1832.929688 313.0625 C 1832.550781 312.675781 1832.367188 312.003906 1832.367188 311.042969 L 1832.367188 262.179688 C 1832.367188 261.226562 1832.550781 260.554688 1832.929688 260.179688 C 1833.316406 259.792969 1833.988281 259.597656 1834.949219 259.597656 L 1839.296875 259.597656 C 1840.300781 259.597656 1840.980469 259.792969 1841.332031 260.179688 C 1841.695312 260.554688 1841.878906 261.226562 1841.878906 262.179688 L 1841.878906 281.898438 L 1845.917969 281.898438 L 1861.195312 261.726562 C 1861.910156 260.816406 1862.570312 260.234375 1863.179688 259.980469 C 1863.785156 259.722656 1864.851562 259.597656 1866.382812 259.597656 L 1871.257812 259.597656 C 1872.117188 259.597656 1872.65625 259.851562 1872.875 260.359375 C 1873.101562 260.871094 1872.96875 261.453125 1872.476562 262.105469 L 1855.503906 283.792969 C 1857.273438 284.605469 1858.800781 285.71875 1860.085938 287.140625 C 1861.382812 288.558594 1862.589844 290.335938 1863.707031 292.46875 L 1873.382812 311.042969 C 1873.785156 311.75 1873.902344 312.351562 1873.75 312.863281 C 1873.601562 313.371094 1873.046875 313.625 1872.09375 313.625 L 1867.671875 313.625 C 1866.09375 313.625 1864.949219 313.488281 1864.234375 313.207031 C 1863.53125 312.929688 1862.953125 312.3125 1862.507812 311.351562 L 1854.886719 295.890625 C 1853.875 293.816406 1852.761719 292.414062 1851.539062 291.6875 C 1850.324219 290.949219 1848.394531 290.578125 1845.753906 290.578125 L 1841.878906 290.578125 L 1841.878906 311.042969 C 1841.878906 312.003906 1841.695312 312.675781 1841.332031 313.0625 C 1840.980469 313.441406 1840.300781 313.625 1839.296875 313.625 Z M 1834.949219 313.625 "/><path style=" stroke:none;fill-rule:nonzero;fill:#ffffff;fill-opacity:1;" d="M 1897.496094 313.625 C 1896.539062 313.625 1895.867188 313.441406 1895.480469 313.0625 C 1895.101562 312.675781 1894.914062 312.003906 1894.914062 311.042969 L 1894.914062 271.167969 L 1884.328125 277.097656 C 1883.320312 277.65625 1882.527344 277.839844 1881.945312 277.644531 C 1881.363281 277.4375 1880.839844 276.929688 1880.382812 276.113281 L 1878.472656 272.695312 C 1878.019531 271.820312 1877.90625 271.148438 1878.125 270.675781 C 1878.351562 270.195312 1878.875 269.691406 1879.691406 269.183594 L 1894.53125 260.671875 C 1895.234375 260.261719 1895.828125 259.980469 1896.316406 259.832031 C 1896.796875 259.679688 1897.449219 259.597656 1898.261719 259.597656 L 1901.828125 259.597656 C 1902.847656 259.597656 1903.527344 259.792969 1903.882812 260.179688 C 1904.246094 260.554688 1904.429688 261.226562 1904.429688 262.179688 L 1904.429688 311.042969 C 1904.429688 312.003906 1904.246094 312.675781 1903.882812 313.0625 C 1903.527344 313.441406 1902.847656 313.625 1901.828125 313.625 Z M 1897.496094 313.625 "/><path style=" stroke:none;fill-rule:nonzero;fill:#ffffff;fill-opacity:1;" d="M 1918.425781 313.625 C 1917.449219 313.625 1916.769531 313.441406 1916.367188 313.0625 C 1915.96875 312.675781 1915.769531 312.003906 1915.769531 311.042969 L 1915.769531 305.332031 C 1915.769531 302.746094 1916.195312 300.558594 1917.058594 298.765625 C 1917.917969 296.957031 1919.070312 295.433594 1920.515625 294.199219 C 1921.957031 292.953125 1923.5625 291.882812 1925.335938 290.996094 C 1927.121094 290.101562 1928.925781 289.277344 1930.757812 288.523438 C 1933.132812 287.601562 1935.367188 286.648438 1937.46875 285.664062 C 1939.578125 284.675781 1941.308594 283.417969 1942.652344 281.898438 C 1944 280.371094 1944.671875 278.367188 1944.671875 275.878906 C 1944.671875 273.550781 1943.859375 271.546875 1942.234375 269.875 C 1940.605469 268.203125 1938.480469 267.363281 1935.851562 267.363281 C 1933.109375 267.363281 1930.910156 267.9375 1929.265625 269.074219 C 1927.613281 270.214844 1926.28125 271.902344 1925.265625 274.132812 C 1924.863281 275.105469 1924.429688 275.707031 1923.972656 275.933594 C 1923.523438 276.152344 1922.835938 276.109375 1921.917969 275.804688 L 1917.804688 274.277344 C 1916.894531 273.925781 1916.3125 273.511719 1916.058594 273.039062 C 1915.804688 272.558594 1915.859375 271.886719 1916.222656 271.019531 C 1917.738281 267.214844 1920.078125 264.171875 1923.246094 261.890625 C 1926.417969 259.597656 1930.726562 258.449219 1936.160156 258.449219 C 1940.0625 258.449219 1943.382812 259.242188 1946.109375 260.816406 C 1948.847656 262.394531 1950.953125 264.472656 1952.421875 267.054688 C 1953.898438 269.636719 1954.640625 272.429688 1954.640625 275.421875 C 1954.640625 279.234375 1953.929688 282.382812 1952.511719 284.867188 C 1951.09375 287.351562 1948.828125 289.535156 1945.726562 291.414062 C 1942.636719 293.285156 1938.550781 295.234375 1933.484375 297.273438 C 1932.417969 297.671875 1931.289062 298.117188 1930.101562 298.601562 C 1928.910156 299.085938 1927.902344 299.710938 1927.066406 300.472656 C 1926.226562 301.230469 1925.808594 302.183594 1925.808594 303.347656 L 1925.808594 304.730469 L 1951.148438 304.730469 C 1952.152344 304.730469 1952.832031 304.921875 1953.1875 305.292969 C 1953.550781 305.671875 1953.730469 306.34375 1953.730469 307.3125 L 1953.730469 311.042969 C 1953.730469 312.003906 1953.550781 312.675781 1953.1875 313.0625 C 1952.832031 313.441406 1952.152344 313.625 1951.148438 313.625 Z M 1918.425781 313.625 "/></g></svg>